<svg width="67" height="37" viewBox="0 0 67 37" fill="none" xmlns="http://www.w3.org/2000/svg">
<path d="M8.59737 12.8825L33.1767 4.27744L57.756 12.8825H8.59737Z" stroke="#2D2D2D" stroke-width="1.41177"/>
<rect x="2.82356" y="12.7059" width="60.7063" height="19.7648" rx="2.82355" stroke="#2D2D2D" stroke-width="1.41177"/>
<circle cx="32.8239" cy="4.58827" r="3.88238" fill="#DEDEDE" stroke="#2D2D2D" stroke-width="1.41177"/>
<path d="M23.1954 16.3684V17.6221H18.0622V21.6033H22.2298V22.8569H18.0622V28.1765H16.5205V16.3684H23.1954ZM31.2748 28.1765L28.4626 23.3482H26.599V28.1765H25.0574V16.3684H28.8692C29.7614 16.3684 30.5125 16.5209 31.1224 16.8258C31.7435 17.1308 32.2066 17.543 32.5115 18.0626C32.8165 18.5821 32.969 19.175 32.969 19.8414C32.969 20.6546 32.7318 21.3718 32.2574 21.9929C31.7944 22.6141 31.0941 23.0264 30.1567 23.2297L33.1214 28.1765H31.2748ZM26.599 22.1115H28.8692C29.7049 22.1115 30.3318 21.9082 30.7496 21.5016C31.1675 21.0838 31.3765 20.5303 31.3765 19.8414C31.3765 19.1412 31.1675 18.599 30.7496 18.215C30.3431 17.831 29.7162 17.639 28.8692 17.639H26.599V22.1115ZM36.9061 17.6221V21.5694H41.2092V22.84H36.9061V26.9059H41.7174V28.1765H35.3644V16.3515H41.7174V17.6221H36.9061ZM45.5918 17.6221V21.5694H49.8949V22.84H45.5918V26.9059H50.4031V28.1765H44.0501V16.3515H50.4031V17.6221H45.5918Z" fill="#2D2D2D"/>
</svg>
