<svg width="122" height="64" viewBox="0 0 122 64" fill="none" xmlns="http://www.w3.org/2000/svg">
<rect y="0.192139" width="121.759" height="63.6156" rx="12" fill="white"/>
<path d="M97.0362 19.7111H91.787C90.2001 19.7111 88.9793 20.1994 88.2469 21.7863L78.2369 44.614H85.3171C85.3171 44.614 86.5379 41.5622 86.782 40.8298C87.5145 40.8298 94.4726 40.8298 95.4492 40.8298C95.6934 41.6843 96.3037 44.492 96.3037 44.492H102.652L97.0362 19.7111ZM88.7352 35.7027C89.3456 34.2378 91.4208 28.7445 91.4208 28.7445C91.4208 28.8666 92.0312 27.2796 92.2753 26.4251L92.7636 28.6224C92.7636 28.6224 94.1064 34.604 94.3506 35.8247H88.7352V35.7027Z" fill="#3362AB"/>
<path d="M78.7248 36.4354C78.7248 41.5624 74.086 44.9805 66.8837 44.9805C63.8319 44.9805 60.9021 44.3701 59.3152 43.6377L60.2917 38.0223L61.1463 38.3885C63.3436 39.3651 64.8085 39.7313 67.4941 39.7313C69.4472 39.7313 71.5225 38.9989 71.5225 37.2899C71.5225 36.1912 70.668 35.4588 67.9824 34.238C65.4188 33.0173 62.0008 31.0641 62.0008 27.524C62.0008 22.6411 66.7616 19.3451 73.4757 19.3451C76.0392 19.3451 78.2365 19.8334 79.5793 20.4438L78.6027 25.815L78.1145 25.3267C76.8937 24.8384 75.3068 24.3501 72.9874 24.3501C70.4238 24.4722 69.2031 25.5708 69.2031 26.5474C69.2031 27.6461 70.668 28.5006 72.9874 29.5993C76.8937 31.4304 78.7248 33.5056 78.7248 36.4354Z" fill="#3362AB"/>
<path d="M19.1531 19.9558L19.2752 19.4675H29.7735C31.2384 19.4675 32.337 19.9558 32.7032 21.5428L35.0226 32.5294C32.7032 26.6699 27.332 21.909 19.1531 19.9558Z" fill="#F9B50B"/>
<path d="M49.7934 19.7122L39.173 44.4931H31.9707L25.867 23.7406C30.2616 26.5483 33.9238 30.9429 35.2666 33.9947L35.9991 36.5583L42.591 19.5901H49.7934V19.7122Z" fill="#3362AB"/>
<path d="M52.6012 19.5901H59.3152L55.0426 44.4931H48.3286L52.6012 19.5901Z" fill="#3362AB"/>
</svg>
