<svg width="122" height="64" viewBox="0 0 122 64" fill="none" xmlns="http://www.w3.org/2000/svg">
<rect y="0.384277" width="121.759" height="63.6156" rx="12" fill="white"/>
<path d="M58.642 31.5198V41.1717H55.5587V17.3357H63.7362C64.7123 17.3155 65.6828 17.4874 66.5917 17.8416C67.5005 18.1957 68.3297 18.7251 69.0315 19.3992C69.7403 20.0324 70.3045 20.8089 70.686 21.6766C71.0675 22.5442 71.2576 23.483 71.2434 24.4296C71.2637 25.3814 71.0766 26.3262 70.6948 27.1994C70.313 28.0726 69.7456 28.8535 69.0315 29.4886C67.6015 30.8427 65.8365 31.5191 63.7362 31.5178H58.642V31.5198ZM58.642 20.2703V28.5909H63.8128C64.3797 28.6076 64.9438 28.5066 65.4692 28.2944C65.9945 28.0822 66.4694 27.7634 66.8636 27.3585C67.2557 26.9799 67.5674 26.5271 67.7802 26.0268C67.9931 25.5265 68.1027 24.9889 68.1027 24.4458C68.1027 23.9027 67.9931 23.3651 67.7802 22.8648C67.5674 22.3645 67.2557 21.9117 66.8636 21.5331C66.4744 21.1197 66.0011 20.7931 65.4751 20.575C64.9492 20.357 64.3825 20.2525 63.8128 20.2684H58.642V20.2703Z" fill="#5F6368"/>
<path d="M78.3489 24.3314C80.6279 24.3314 82.4268 24.9362 83.7457 26.1458C85.0645 27.3554 85.7233 29.0138 85.7221 31.121V41.1724H82.7728V38.9091H82.6387C81.362 40.773 79.6639 41.7049 77.5445 41.7049C75.7354 41.7049 74.2218 41.1724 73.0038 40.1073C72.4193 39.6185 71.952 39.0063 71.6359 38.3154C71.3198 37.6244 71.163 36.8722 71.1768 36.1134C71.1768 34.4258 71.819 33.0838 73.1034 32.0872C74.3878 31.0906 76.1025 30.5911 78.2474 30.5885C80.0782 30.5885 81.5861 30.9214 82.7709 31.587V30.8871C82.7744 30.3698 82.6619 29.8583 82.4416 29.3895C82.2213 28.9208 81.8988 28.5066 81.4973 28.177C80.682 27.4464 79.6193 27.0478 78.5212 27.0606C76.7989 27.0606 75.436 27.782 74.4325 29.2249L71.7169 27.5265C73.2106 25.3965 75.4213 24.3314 78.3489 24.3314ZM74.3597 36.18C74.3576 36.5697 74.4494 36.9542 74.6273 37.3016C74.8051 37.6489 75.064 37.9491 75.3824 38.1769C76.0643 38.7096 76.9107 38.9918 77.7782 38.9757C79.0793 38.9736 80.3265 38.4593 81.2464 37.5455C82.2678 36.5908 82.7785 35.4706 82.7785 34.1849C81.8171 33.4242 80.4766 33.0438 78.7568 33.0438C77.5043 33.0438 76.4599 33.3437 75.6237 33.9434C74.7791 34.552 74.3597 35.2918 74.3597 36.18V36.18Z" fill="#5F6368"/>
<path d="M102.651 24.8634L92.3556 48.3608H89.1727L92.9934 40.1391L86.2234 24.8634H89.5749L94.468 36.5788H94.535L99.2941 24.8634H102.651Z" fill="#5F6368"/>
<path d="M46.1823 29.4396C46.1835 28.5064 46.104 27.5749 45.9448 26.6553H32.9413V31.9291H40.3891C40.2367 32.7714 39.9141 33.5744 39.4408 34.2895C38.9675 35.0047 38.3533 35.6173 37.6352 36.0904V39.5137H42.0802C44.6828 37.1307 46.1823 33.6066 46.1823 29.4396Z" fill="#4285F4"/>
<path d="M32.9414 42.821C36.6624 42.821 39.7955 41.6076 42.0803 39.5156L37.6353 36.0923C36.3981 36.9253 34.8048 37.4007 32.9414 37.4007C29.3448 37.4007 26.2921 34.993 25.2005 31.7484H20.6215V35.2764C21.7691 37.5443 23.5289 39.4508 25.7044 40.7831C27.8799 42.1153 30.3855 42.8209 32.9414 42.821V42.821Z" fill="#34A853"/>
<path d="M25.2004 31.7483C24.6233 30.0482 24.6233 28.207 25.2004 26.5068V22.9789H20.6214C19.656 24.8867 19.1532 26.9924 19.1532 29.1276C19.1532 31.2628 19.656 33.3684 20.6214 35.2763L25.2004 31.7483Z" fill="#FBBC04"/>
<path d="M32.9414 20.8543C34.9078 20.8224 36.8079 21.5602 38.2309 22.9083L42.1665 19C39.6709 16.6723 36.3649 15.3943 32.9414 15.434C30.3855 15.4341 27.8799 16.1397 25.7044 17.472C23.5289 18.8042 21.7691 20.7107 20.6215 22.9787L25.2005 26.5066C26.2921 23.262 29.3448 20.8543 32.9414 20.8543Z" fill="#EA4335"/>
</svg>
