<svg width="91" height="87" viewBox="0 0 91 87" fill="none" xmlns="http://www.w3.org/2000/svg">
<rect x="4.2326" width="86.7674" height="86.7674" rx="43.3837" fill="url(#paint0_linear_1_221)"/>
<path d="M44.6535 43.8071C43.1611 49.6632 42.7488 53.3304 42.3108 57.5965C42.2998 58.2488 42.2772 59.6792 42.2772 60.5425" stroke="white" stroke-width="2.96279" stroke-linecap="round"/>
<path d="M56.3548 30.5165C54.6501 37.2055 52.4494 43.9308 51.3579 50.7428C50.6537 55.1377 50.817 58.8927 55.4293 60.4864" stroke="white" stroke-width="2.96279" stroke-linecap="round"/>
<path d="M48.6744 51.5362C49.1744 50.4929 51.6128 49.877 52.5673 49.4303C54.2271 48.6535 55.8892 48.021 57.6723 47.6333" stroke="white" stroke-width="2.96279" stroke-linecap="round"/>
<path d="M67.1483 49.0252C64.8529 48.6786 62.1976 50.8345 61.2926 52.8109C59.3857 56.9754 62.6389 60.2297 66.6117 60.2478" stroke="white" stroke-width="2.96279" stroke-linecap="round"/>
<path d="M76.2994 28.7815C74.6073 35.4211 73.2482 41.8748 73.0364 48.7325C72.9449 51.6976 72.3774 54.7981 72.5267 57.7676C72.5905 59.0365 72.8222 60.66 72.5079 61.8935" stroke="white" stroke-width="2.96279" stroke-linecap="round"/>
<path d="M72.7308 52.9142C73.1208 51.3839 74.2083 50.5856 75.382 49.6026C76.6992 48.4993 77.5672 48.5638 79.1751 48.676C80.7576 48.7865 80.5655 49.712 80.5323 51.1733C80.475 53.6905 79.9234 55.8536 80.1083 58.4087" stroke="white" stroke-width="2.96279" stroke-linecap="round"/>
<path d="M22.3799 42.6376C22.3091 41.9903 22.2286 41.3474 22.1382 40.7085C20.5928 46.007 19.3636 51.47 20.0331 56.8841C20.1572 57.887 20.2173 61.948 21.3792 62.5263C21.4534 62.5632 21.8359 61.1628 21.8465 61.1261C22.2319 59.7966 22.2856 58.5448 22.3799 57.1651C22.7126 52.2964 22.9122 47.5058 22.3799 42.6376Z" fill="url(#paint1_linear_1_221)"/>
<path d="M11.5714 16.4082C14.3604 18.3312 16.1441 21.965 17.5173 24.9501C20.1279 30.6252 21.7012 36.4309 22.3799 42.6376C22.9122 47.5058 22.7126 52.2964 22.3799 57.1651C22.2856 58.5448 22.2319 59.7966 21.8465 61.1261C21.8359 61.1628 21.4534 62.5632 21.3792 62.5263C20.2173 61.948 20.1572 57.887 20.0331 56.8841C19.0718 49.1103 22.0251 41.2355 24.2079 33.892C25.1004 30.8895 26.3581 28.0783 28.2767 25.581C29.0897 24.5228 30.366 22.6813 31.7717 22.3248C32.9639 22.0226 34.9338 22.7635 35.7651 23.6052C38.6282 26.5043 38.405 31.7149 37.7662 35.3649C36.7138 41.3778 33.299 47.7166 28.3168 51.4226C27.9146 51.7218 27.3776 51.9421 26.8952 52.0855C26.8343 52.1036 26.2169 52.1604 26.2094 52.2246C26.1674 52.5825 27.0664 53.4784 27.23 53.6875C28.1742 54.8943 29.1549 56.074 30.2546 57.1441C32.1092 58.9489 34.0897 60.468 36.3324 61.7315" stroke="white" stroke-width="2.96279" stroke-linecap="round"/>
<path d="M37.4231 73.5147C40.2997 73.4248 43.1804 72.373 45.9205 71.5927C50.801 70.2029 57.3512 68.9626 57.3512 68.9626C57.3512 68.9626 64.9354 67.6647 66.0107 68.9626C67.0861 70.2604 63.3712 74.1067 63.2794 74.2431" stroke="white" stroke-width="2.96279" stroke-linecap="round"/>
<defs>
<linearGradient id="paint0_linear_1_221" x1="3.84506" y1="50.6268" x2="91" y2="51.2676" gradientUnits="userSpaceOnUse">
<stop stop-color="#FF0F7B"/>
<stop offset="1" stop-color="#F89B29"/>
</linearGradient>
<linearGradient id="paint1_linear_1_221" x1="4.70276" y1="39.5209" x2="39.7553" y2="49.9243" gradientUnits="userSpaceOnUse">
<stop stop-color="#FF0F7B"/>
<stop offset="1" stop-color="#F89B29"/>
</linearGradient>
</defs>
</svg>
