<svg width="186" height="89" viewBox="0 0 186 89" fill="none" xmlns="http://www.w3.org/2000/svg">
<rect x="1" y="1" width="184" height="87" stroke="#2D2D2D" stroke-width="2" stroke-dasharray="9 9"/>
<rect x="1" y="1" width="184" height="87" stroke="#2D2D2D" stroke-width="2" stroke-dasharray="9 9"/>
<circle cx="32.5" cy="23.5" r="13" stroke="#2D2D2D"/>
<circle cx="151" cy="51" r="18.5" stroke="#2D2D2D"/>
<path d="M51.6077 58L62 40L72.3923 58H51.6077Z" stroke="#2D2D2D"/>
<path d="M104 22.618L105.994 28.7553L106.106 29.1008H106.47H112.923L107.702 32.8939L107.408 33.1074L107.52 33.4529L109.515 39.5902L104.294 35.7971L104 35.5836L103.706 35.7971L98.4854 39.5902L100.48 33.4529L100.592 33.1074L100.298 32.8939L95.0772 29.1008H101.53H101.894L102.006 28.7553L104 22.618Z" stroke="#2D2D2D"/>
</svg>
