<svg width="325" height="277" viewBox="0 0 325 277" fill="none" xmlns="http://www.w3.org/2000/svg">
<path d="M107.104 248.896V251.128H100.024V256.048H105.544V258.28H100.024V265.576H97.2883V248.896H107.104ZM111.032 250.6C110.536 250.6 110.12 250.432 109.784 250.096C109.448 249.76 109.28 249.344 109.28 248.848C109.28 248.352 109.448 247.936 109.784 247.6C110.12 247.264 110.536 247.096 111.032 247.096C111.512 247.096 111.92 247.264 112.256 247.6C112.592 247.936 112.76 248.352 112.76 248.848C112.76 249.344 112.592 249.76 112.256 250.096C111.92 250.432 111.512 250.6 111.032 250.6ZM112.376 252.352V265.576H109.64V252.352H112.376ZM118.704 247.816V265.576H115.968V247.816H118.704ZM134.416 258.64C134.416 259.136 134.384 259.584 134.32 259.984H124.216C124.296 261.04 124.688 261.888 125.392 262.528C126.096 263.168 126.96 263.488 127.984 263.488C129.456 263.488 130.496 262.872 131.104 261.64H134.056C133.656 262.856 132.928 263.856 131.872 264.64C130.832 265.408 129.536 265.792 127.984 265.792C126.72 265.792 125.584 265.512 124.576 264.952C123.584 264.376 122.8 263.576 122.224 262.552C121.664 261.512 121.384 260.312 121.384 258.952C121.384 257.592 121.656 256.4 122.2 255.376C122.76 254.336 123.536 253.536 124.528 252.976C125.536 252.416 126.688 252.136 127.984 252.136C129.232 252.136 130.344 252.408 131.32 252.952C132.296 253.496 133.056 254.264 133.6 255.256C134.144 256.232 134.416 257.36 134.416 258.64ZM131.56 257.776C131.544 256.768 131.184 255.96 130.48 255.352C129.776 254.744 128.904 254.44 127.864 254.44C126.92 254.44 126.112 254.744 125.44 255.352C124.768 255.944 124.368 256.752 124.24 257.776H131.56ZM150.015 252.136C151.055 252.136 151.983 252.352 152.799 252.784C153.631 253.216 154.279 253.856 154.743 254.704C155.207 255.552 155.439 256.576 155.439 257.776V265.576H152.727V258.184C152.727 257 152.431 256.096 151.839 255.472C151.247 254.832 150.439 254.512 149.415 254.512C148.391 254.512 147.575 254.832 146.967 255.472C146.375 256.096 146.079 257 146.079 258.184V265.576H143.343V252.352H146.079V253.864C146.527 253.32 147.095 252.896 147.783 252.592C148.487 252.288 149.231 252.136 150.015 252.136ZM158.017 258.904C158.017 257.576 158.289 256.4 158.833 255.376C159.393 254.352 160.145 253.56 161.089 253C162.049 252.424 163.105 252.136 164.257 252.136C165.297 252.136 166.201 252.344 166.969 252.76C167.753 253.16 168.377 253.664 168.841 254.272V252.352H171.601V265.576H168.841V263.608C168.377 264.232 167.745 264.752 166.945 265.168C166.145 265.584 165.233 265.792 164.209 265.792C163.073 265.792 162.033 265.504 161.089 264.928C160.145 264.336 159.393 263.52 158.833 262.48C158.289 261.424 158.017 260.232 158.017 258.904ZM168.841 258.952C168.841 258.04 168.649 257.248 168.265 256.576C167.897 255.904 167.409 255.392 166.801 255.04C166.193 254.688 165.537 254.512 164.833 254.512C164.129 254.512 163.473 254.688 162.865 255.04C162.257 255.376 161.761 255.88 161.377 256.552C161.009 257.208 160.825 257.992 160.825 258.904C160.825 259.816 161.009 260.616 161.377 261.304C161.761 261.992 162.257 262.52 162.865 262.888C163.489 263.24 164.145 263.416 164.833 263.416C165.537 263.416 166.193 263.24 166.801 262.888C167.409 262.536 167.897 262.024 168.265 261.352C168.649 260.664 168.841 259.864 168.841 258.952ZM191.203 252.136C192.243 252.136 193.171 252.352 193.987 252.784C194.819 253.216 195.467 253.856 195.931 254.704C196.411 255.552 196.651 256.576 196.651 257.776V265.576H193.939V258.184C193.939 257 193.643 256.096 193.051 255.472C192.459 254.832 191.651 254.512 190.627 254.512C189.603 254.512 188.787 254.832 188.179 255.472C187.587 256.096 187.291 257 187.291 258.184V265.576H184.579V258.184C184.579 257 184.283 256.096 183.691 255.472C183.099 254.832 182.291 254.512 181.267 254.512C180.243 254.512 179.427 254.832 178.819 255.472C178.227 256.096 177.931 257 177.931 258.184V265.576H175.195V252.352H177.931V253.864C178.379 253.32 178.947 252.896 179.635 252.592C180.323 252.288 181.059 252.136 181.843 252.136C182.899 252.136 183.843 252.36 184.675 252.808C185.507 253.256 186.147 253.904 186.595 254.752C186.995 253.952 187.619 253.32 188.467 252.856C189.315 252.376 190.227 252.136 191.203 252.136ZM212.252 258.64C212.252 259.136 212.22 259.584 212.156 259.984H202.052C202.132 261.04 202.524 261.888 203.228 262.528C203.932 263.168 204.796 263.488 205.82 263.488C207.292 263.488 208.332 262.872 208.94 261.64H211.892C211.492 262.856 210.764 263.856 209.708 264.64C208.668 265.408 207.372 265.792 205.82 265.792C204.556 265.792 203.42 265.512 202.412 264.952C201.42 264.376 200.636 263.576 200.06 262.552C199.5 261.512 199.22 260.312 199.22 258.952C199.22 257.592 199.492 256.4 200.036 255.376C200.596 254.336 201.372 253.536 202.364 252.976C203.372 252.416 204.524 252.136 205.82 252.136C207.068 252.136 208.18 252.408 209.156 252.952C210.132 253.496 210.892 254.264 211.436 255.256C211.98 256.232 212.252 257.36 212.252 258.64ZM209.396 257.776C209.38 256.768 209.02 255.96 208.316 255.352C207.612 254.744 206.74 254.44 205.7 254.44C204.756 254.44 203.948 254.744 203.276 255.352C202.604 255.944 202.204 256.752 202.076 257.776H209.396ZM216.049 265.744C215.553 265.744 215.137 265.576 214.801 265.24C214.465 264.904 214.297 264.488 214.297 263.992C214.297 263.496 214.465 263.08 214.801 262.744C215.137 262.408 215.553 262.24 216.049 262.24C216.529 262.24 216.937 262.408 217.273 262.744C217.609 263.08 217.777 263.496 217.777 263.992C217.777 264.488 217.609 264.904 217.273 265.24C216.937 265.576 216.529 265.744 216.049 265.744ZM221.838 265.744C221.342 265.744 220.926 265.576 220.59 265.24C220.254 264.904 220.086 264.488 220.086 263.992C220.086 263.496 220.254 263.08 220.59 262.744C220.926 262.408 221.342 262.24 221.838 262.24C222.318 262.24 222.726 262.408 223.062 262.744C223.398 263.08 223.566 263.496 223.566 263.992C223.566 264.488 223.398 264.904 223.062 265.24C222.726 265.576 222.318 265.744 221.838 265.744ZM227.627 265.744C227.131 265.744 226.715 265.576 226.379 265.24C226.043 264.904 225.875 264.488 225.875 263.992C225.875 263.496 226.043 263.08 226.379 262.744C226.715 262.408 227.131 262.24 227.627 262.24C228.107 262.24 228.515 262.408 228.851 262.744C229.187 263.08 229.355 263.496 229.355 263.992C229.355 264.488 229.187 264.904 228.851 265.24C228.515 265.576 228.107 265.744 227.627 265.744Z" fill="#2D2D2D"/>
<rect width="325" height="221" rx="25.8604" fill="#D9D9D9"/>
<rect x="62" y="19.6182" width="201.533" height="181.915" rx="12.4843" fill="white"/>
</svg>
