<svg width="1106" height="395" viewBox="0 0 1106 395" fill="none" xmlns="http://www.w3.org/2000/svg">
<path d="M922 104.691C923.354 85.0593 939.804 68.649 953.769 56.366C972.057 40.2818 1002.18 29.355 1026.03 26.6555C1046.97 24.285 1071.7 24.2256 1090.03 36.6555C1097.13 41.4677 1103.49 49.3228 1103.22 58.3796C1103.06 63.8468 1096.84 69.3023 1091.14 67.9999C1079.57 65.3553 1074.67 55.6616 1070.53 46.1555C1066.74 37.4485 1064.73 28.0701 1067.42 18.1084C1070.34 7.29895 1086.53 2 1097.18 2" stroke="#2D2D2D" stroke-width="4" stroke-linecap="round"/>
<path d="M1003 218C1003 235.285 1018.79 248.339 1033.62 254.854C1039.15 257.282 1052.07 259.324 1058.59 256.262C1067.89 251.888 1069.22 245.712 1067.89 237.719C1066.58 229.82 1060.06 224.127 1053.39 223.221C1042.42 221.728 1034.78 226.245 1029.54 236.725C1017.76 260.279 1025.03 288.1 1041.48 306.908" stroke="#2D2D2D" stroke-width="2.63611" stroke-linecap="round"/>
<path d="M181.337 137.234C181.337 111.025 180.228 81.3501 161.712 60.6563C151.597 49.3515 139.79 41.0316 124.217 41.0316C112.953 41.0316 100.416 44.9836 99.3938 57.7626C98.7585 65.7033 103.394 81.6171 112.191 81.6171C122.727 81.6171 124.694 67.866 122.894 57.7626C120.13 42.248 104.394 29.7626 89.6439 26" stroke="#2D2D2D" stroke-width="4" stroke-linecap="round"/>
<path d="M777.406 20.0223L769.796 29.2849L758.635 24.9095L765.093 35.0095L757.483 44.2721L769.084 41.2517L775.541 51.3517L776.254 39.3849L787.855 36.3645L776.694 31.9891L777.406 20.0223Z" fill="#2D2D2D"/>
<path d="M121.88 350.13L123.466 362.013L112.655 367.193L124.446 369.357L126.032 381.239L131.733 370.694L143.525 372.857L135.257 364.176L140.958 353.631L130.147 358.811L121.88 350.13Z" fill="#2D2D2D"/>
<path d="M898.432 336.517L900.522 352.172L900.666 353.252L899.683 353.723L885.44 360.548L900.974 363.399L902.046 363.595L902.19 364.675L904.28 380.33L911.791 366.437L912.31 365.478L913.382 365.675L928.916 368.525L918.024 357.088L917.272 356.299L917.79 355.341L925.302 341.447L911.059 348.272L910.076 348.743L909.324 347.954L898.432 336.517Z" stroke="#2D2D2D" stroke-width="3"/>
<path d="M22.637 168.219L24.2155 180.045L24.3597 181.126L23.3769 181.597L12.6175 186.752L24.3524 188.905L25.4244 189.102L25.5685 190.182L27.147 202.008L32.8211 191.513L33.3394 190.554L34.4113 190.751L46.1463 192.904L37.9181 184.265L37.1665 183.475L37.6848 182.517L43.3589 172.022L32.5996 177.177L31.6167 177.648L30.8652 176.859L22.637 168.219Z" stroke="#2D2D2D" stroke-width="3"/>
</svg>
