<svg width="38" height="200" viewBox="0 0 38 200" fill="none" xmlns="http://www.w3.org/2000/svg">
<path d="M35.2023 0H2.2723C1.73259 0 1.21498 0.214401 0.833343 0.596038C0.451706 0.977674 0.237305 1.49528 0.237305 2.035V34.965C0.237305 35.2322 0.289942 35.4969 0.39221 35.7438C0.494478 35.9907 0.644375 36.215 0.833343 36.404C1.02231 36.5929 1.24665 36.7428 1.49354 36.8451C1.74044 36.9474 2.00506 37 2.2723 37H19.9953V22.6625H15.1853V17.1125H19.9953V12.95C19.8957 11.9728 20.011 10.9855 20.3333 10.0576C20.6556 9.12965 21.177 8.28346 21.861 7.57836C22.5449 6.87326 23.3748 6.32634 24.2925 5.97594C25.2102 5.62555 26.1935 5.48017 27.1733 5.55C28.6132 5.54114 30.0524 5.61526 31.4838 5.772V10.767H28.5423C26.2113 10.767 25.7673 11.877 25.7673 13.4865V17.057H31.3173L30.5958 22.607H25.7673V37H35.2023C35.4695 37 35.7342 36.9474 35.9811 36.8451C36.228 36.7428 36.4523 36.5929 36.6413 36.404C36.8302 36.215 36.9801 35.9907 37.0824 35.7438C37.1847 35.4969 37.2373 35.2322 37.2373 34.965V2.035C37.2373 1.76776 37.1847 1.50314 37.0824 1.25624C36.9801 1.00934 36.8302 0.785005 36.6413 0.596038C36.4523 0.407071 36.228 0.257174 35.9811 0.154905C35.7342 0.052637 35.4695 0 35.2023 0Z" fill="white"/>
<path d="M18.2373 63.25C16.4573 63.25 14.7172 63.7925 13.2372 64.8089C11.7571 65.8253 10.6036 67.27 9.92239 68.9602C9.2412 70.6504 9.06297 72.5103 9.41024 74.3046C9.7575 76.0989 10.6147 77.7471 11.8733 79.0407C13.132 80.3344 14.7357 81.2154 16.4815 81.5723C18.2273 81.9292 20.0369 81.746 21.6815 81.0459C23.326 80.3458 24.7316 79.1602 25.7205 77.639C26.7095 76.1179 27.2373 74.3295 27.2373 72.5C27.2373 70.0467 26.2891 67.694 24.6013 65.9593C22.9134 64.2246 20.6243 63.25 18.2373 63.25ZM18.2373 78.05C17.1693 78.05 16.1252 77.7245 15.2372 77.1147C14.3492 76.5048 13.6571 75.638 13.2484 74.6239C12.8396 73.6098 12.7327 72.4938 12.9411 71.4172C13.1494 70.3407 13.6637 69.3517 14.4189 68.5756C15.1741 67.7994 16.1363 67.2708 17.1838 67.0566C18.2313 66.8425 19.3171 66.9524 20.3038 67.3725C21.2905 67.7925 22.1339 68.5039 22.7272 69.4166C23.3206 70.3293 23.6373 71.4023 23.6373 72.5C23.6373 73.972 23.0684 75.3836 22.0557 76.4244C21.043 77.4653 19.6695 78.05 18.2373 78.05ZM27.2373 61.4C26.8813 61.4 26.5333 61.5085 26.2373 61.7118C25.9413 61.9151 25.7106 62.204 25.5743 62.542C25.4381 62.8801 25.4024 63.2521 25.4719 63.6109C25.5413 63.9698 25.7128 64.2994 25.9645 64.5581C26.2162 64.8169 26.537 64.9931 26.8861 65.0645C27.2353 65.1358 27.5972 65.0992 27.9261 64.9592C28.255 64.8192 28.5362 64.582 28.734 64.2778C28.9317 63.9736 29.0373 63.6159 29.0373 63.25C29.0373 62.7593 28.8477 62.2888 28.5101 61.9419C28.1725 61.5949 27.7147 61.4 27.2373 61.4ZM36.1293 65.544C36.0995 63.963 35.8073 62.3989 35.2653 60.919C34.7627 59.5723 33.9902 58.3493 32.9978 57.3294C32.0055 56.3095 30.8156 55.5156 29.5053 54.999C28.0654 54.442 26.5435 54.1417 25.0053 54.111C23.2593 54 22.6833 54 18.2373 54C13.7913 54 13.2153 54 11.4693 54.111C9.93107 54.1417 8.40921 54.442 6.9693 54.999C5.65902 55.5156 4.46909 56.3095 3.47676 57.3294C2.48443 58.3493 1.71189 59.5723 1.2093 60.919C0.667323 62.3989 0.375126 63.963 0.345305 65.544C0.237305 67.357 0.237305 67.949 0.237305 72.5C0.237305 77.051 0.237305 77.643 0.345305 79.456C0.375126 81.037 0.667323 82.6011 1.2093 84.081C1.71189 85.4277 2.48443 86.6507 3.47676 87.6706C4.46909 88.6905 5.65902 89.4844 6.9693 90.001C8.40921 90.558 9.93107 90.8584 11.4693 90.889C13.2693 90.889 13.7913 91 18.2373 91C22.6833 91 23.2593 91 25.0053 90.889C26.5435 90.8584 28.0654 90.558 29.5053 90.001C30.8156 89.4844 32.0055 88.6905 32.9978 87.6706C33.9902 86.6507 34.7627 85.4277 35.2653 84.081C35.8073 82.6011 36.0995 81.037 36.1293 79.456C36.1293 77.606 36.2373 77.051 36.2373 72.5C36.2373 67.949 36.2373 67.357 36.1293 65.544ZM32.5293 79.2895C32.4978 80.4635 32.2851 81.625 31.8993 82.7305C31.5803 83.6043 31.0761 84.3943 30.4233 85.043C29.7959 85.7143 29.0258 86.2271 28.1733 86.5415C27.0951 86.9542 25.9575 87.1793 24.8073 87.2075C23.1153 87.2075 22.5933 87.3 18.2193 87.3C13.8453 87.3 13.3413 87.3 11.6493 87.3C10.5009 87.2695 9.36466 87.0509 8.2833 86.6525C7.43309 86.3247 6.66451 85.8065 6.0333 85.1355C5.38018 84.4906 4.88116 83.6991 4.5753 82.823C4.17535 81.7208 3.95637 80.558 3.9273 79.382C3.9273 77.532 3.9273 77.0695 3.9273 72.5925C3.9273 68.1155 3.9273 67.579 3.9273 65.803C3.95833 64.6212 4.17722 63.4526 4.5753 62.3435C4.88591 61.4752 5.38446 60.6907 6.0333 60.0495C6.66074 59.3782 7.43084 58.8654 8.2833 58.551C9.36149 58.1383 10.4991 57.9132 11.6493 57.885C13.3413 57.7 13.8633 57.7 18.2373 57.7C22.6113 57.7 23.1333 57.7 24.8253 57.7C25.9812 57.7302 27.1244 57.9552 28.2093 58.366C29.0542 58.6852 29.8174 59.1976 30.4413 59.8645C31.0944 60.5094 31.5935 61.3009 31.8993 62.177C32.3399 63.3028 32.5896 64.498 32.6373 65.7105C32.6373 67.5605 32.7273 68.023 32.7273 72.5C32.7273 76.977 32.6373 77.5135 32.6373 79.2895H32.5293Z" fill="white"/>
<path d="M34.5014 108H2.97322C2.61881 107.995 2.26691 108.06 1.9376 108.19C1.6083 108.321 1.30804 108.514 1.05398 108.76C0.79992 109.005 0.597034 109.298 0.456907 109.622C0.316781 109.946 0.242159 110.293 0.237305 110.646V142.354C0.242159 142.707 0.316781 143.054 0.456907 143.378C0.597034 143.702 0.79992 143.995 1.05398 144.24C1.30804 144.486 1.6083 144.679 1.9376 144.81C2.26691 144.94 2.61881 145.005 2.97322 145H34.5014C34.8558 145.005 35.2077 144.94 35.537 144.81C35.8663 144.679 36.1666 144.486 36.4206 144.24C36.6747 143.995 36.8776 143.702 37.0177 143.378C37.1578 143.054 37.2325 142.707 37.2373 142.354V110.646C37.2325 110.293 37.1578 109.946 37.0177 109.622C36.8776 109.298 36.6747 109.005 36.4206 108.76C36.1666 108.514 35.8663 108.321 35.537 108.19C35.2077 108.06 34.8558 107.995 34.5014 108ZM11.4601 138.969H5.87664V122.319H11.4601V138.969ZM8.66839 119.988C7.89836 119.988 7.15986 119.684 6.61536 119.143C6.07087 118.602 5.76497 117.868 5.76497 117.102C5.76497 116.337 6.07087 115.603 6.61536 115.061C7.15986 114.52 7.89836 114.216 8.66839 114.216C9.07728 114.17 9.49135 114.21 9.8835 114.334C10.2756 114.458 10.637 114.663 10.944 114.936C11.2509 115.208 11.4965 115.542 11.6646 115.915C11.8328 116.289 11.9197 116.693 11.9197 117.102C11.9197 117.511 11.8328 117.916 11.6646 118.289C11.4965 118.662 11.2509 118.996 10.944 119.269C10.637 119.541 10.2756 119.746 9.8835 119.87C9.49135 119.994 9.07728 120.034 8.66839 119.988ZM31.598 138.969H26.0145V130.033C26.0145 127.795 25.2142 126.334 23.1855 126.334C22.5577 126.338 21.9463 126.534 21.4338 126.894C20.9214 127.255 20.5324 127.763 20.3193 128.35C20.1737 128.785 20.1105 129.243 20.1332 129.7V138.95H14.5497C14.5497 138.95 14.5497 123.818 14.5497 122.301H20.1332V124.65C20.6404 123.775 21.3781 123.054 22.2669 122.565C23.1557 122.076 24.1618 121.838 25.1769 121.875C28.8993 121.875 31.598 124.262 31.598 129.386V138.969Z" fill="white"/>
<rect y="162" width="37.3672" height="37.3672" rx="4" fill="white"/>
<path d="M31.4667 173.036C30.4812 173.456 29.439 173.734 28.3725 173.86C29.4977 173.2 30.3408 172.161 30.7456 170.936C29.6883 171.554 28.5308 171.99 27.3236 172.224C26.5166 171.364 25.4421 170.792 24.2684 170.596C23.0947 170.401 21.8883 170.595 20.8384 171.146C19.7886 171.697 18.9545 172.575 18.4672 173.642C17.9799 174.71 17.8668 175.906 18.1457 177.043C16.0078 176.937 13.9165 176.39 12.0078 175.437C10.0991 174.485 8.41556 173.149 7.06661 171.515C6.59347 172.327 6.34486 173.247 6.34549 174.183C6.34381 175.051 6.5608 175.907 6.97713 176.674C7.39347 177.44 7.99623 178.094 8.73175 178.576C7.87686 178.553 7.04024 178.328 6.29304 177.919V177.984C6.29945 179.201 6.73358 180.379 7.52199 181.318C8.3104 182.257 9.40469 182.9 10.6198 183.137C10.152 183.277 9.66642 183.351 9.17753 183.357C8.83912 183.353 8.50154 183.322 8.16796 183.266C8.51398 184.314 9.18359 185.229 10.0836 185.885C10.9836 186.541 12.0693 186.904 13.1896 186.926C11.2979 188.388 8.96235 189.187 6.55527 189.193C6.11701 189.195 5.67909 189.169 5.24414 189.116C7.70176 190.675 10.5658 191.503 13.4911 191.5C15.5099 191.52 17.5126 191.145 19.3822 190.397C21.2519 189.648 22.951 188.541 24.3804 187.14C25.8097 185.739 26.9407 184.072 27.7072 182.237C28.4736 180.401 28.8603 178.434 28.8445 176.45C28.8445 176.231 28.8445 175.999 28.8445 175.767C29.8733 175.013 30.7607 174.089 31.4667 173.036Z" fill="#FF1976"/>
</svg>
