<svg width="159" height="210" viewBox="0 0 159 210" fill="none" xmlns="http://www.w3.org/2000/svg">
<path d="M40.0507 21.1129L80.3332 7.01013L120.616 21.1129H40.0507Z" stroke="white" stroke-width="2.31373"/>
<rect x="30.5881" y="20.8236" width="99.4902" height="32.3922" rx="4.62745" stroke="white" stroke-width="2.31373"/>
<circle cx="79.7547" cy="7.51961" r="6.36275" fill="white" stroke="white" stroke-width="2.31373"/>
<path d="M63.6557 26.6873V28.7419H55.243V35.2666H62.0731V37.3212H55.243V46.0393H52.7164V26.6873H63.6557ZM76.8969 46.0393L72.2879 38.1264H69.2338V46.0393H66.7072V26.6873H72.9543C74.4165 26.6873 75.6474 26.9372 76.647 27.437C77.665 27.9367 78.4239 28.6123 78.9237 29.4638C79.4234 30.3152 79.6733 31.287 79.6733 32.3791C79.6733 33.7118 79.2846 34.8871 78.5072 35.9052C77.7483 36.9232 76.6007 37.5988 75.0644 37.932L79.9232 46.0393H76.8969ZM69.2338 36.0995H72.9543C74.324 36.0995 75.3513 35.7664 76.0362 35.1C76.721 34.4151 77.0634 33.5082 77.0634 32.3791C77.0634 31.2315 76.721 30.343 76.0362 29.7137C75.3698 29.0843 74.3425 28.7697 72.9543 28.7697H69.2338V36.0995ZM86.1258 28.7419V35.2111H93.178V37.2934H86.1258V43.957H94.011V46.0393H83.5992V26.6595H94.011V28.7419H86.1258ZM100.361 28.7419V35.2111H107.413V37.2934H100.361V43.957H108.246V46.0393H97.834V26.6595H108.246V28.7419H100.361Z" fill="white"/>
<path d="M13.1994 94L8.61105 85.6718H7.32253V94H1.94849V71.9381H10.9681C12.7071 71.9381 14.1841 72.2419 15.3993 72.8495C16.6355 73.4571 17.5573 74.2952 18.1649 75.3637C18.7725 76.4113 19.0763 77.5845 19.0763 78.8835C19.0763 80.3501 18.6573 81.6596 17.8192 82.8119C17.0021 83.9643 15.7869 84.7814 14.1737 85.2632L19.2649 94H13.1994ZM7.32253 81.8691H10.6538C11.6385 81.8691 12.3718 81.6282 12.8537 81.1463C13.3566 80.6644 13.608 79.9835 13.608 79.1035C13.608 78.2655 13.3566 77.6055 12.8537 77.1236C12.3718 76.6417 11.6385 76.4008 10.6538 76.4008H7.32253V81.8691ZM25.1526 74.6409C24.2097 74.6409 23.4345 74.3685 22.8269 73.8237C22.2403 73.2581 21.947 72.5667 21.947 71.7496C21.947 70.9115 22.2403 70.2201 22.8269 69.6754C23.4345 69.1097 24.2097 68.8268 25.1526 68.8268C26.0744 68.8268 26.8287 69.1097 27.4153 69.6754C28.0229 70.2201 28.3267 70.9115 28.3267 71.7496C28.3267 72.5667 28.0229 73.2581 27.4153 73.8237C26.8287 74.3685 26.0744 74.6409 25.1526 74.6409ZM27.8239 76.4636V94H22.4498V76.4636H27.8239ZM41.4922 89.4431V94H38.7581C36.8096 94 35.2906 93.5286 34.2011 92.5858C33.1116 91.622 32.5669 90.0611 32.5669 87.9031V80.9263H30.4299V76.4636H32.5669V72.1895H37.941V76.4636H41.4608V80.9263H37.941V87.966C37.941 88.4898 38.0667 88.8669 38.3181 89.0974C38.5695 89.3278 38.9885 89.4431 39.5752 89.4431H41.4922ZM43.4171 85.2318C43.4171 83.409 43.7838 81.8167 44.5171 80.4549C45.2714 79.093 46.3084 78.0455 47.6284 77.3122C48.9693 76.5789 50.4987 76.2122 52.2168 76.2122C54.4167 76.2122 56.2499 76.7884 57.7165 77.9407C59.2041 79.093 60.1783 80.7168 60.6392 82.8119H54.9195C54.4376 81.471 53.5053 80.8006 52.1225 80.8006C51.1378 80.8006 50.3521 81.1882 49.7654 81.9634C49.1788 82.7176 48.8855 83.8071 48.8855 85.2318C48.8855 86.6565 49.1788 87.7565 49.7654 88.5317C50.3521 89.2859 51.1378 89.663 52.1225 89.663C53.5053 89.663 54.4376 88.9926 54.9195 87.6517H60.6392C60.1783 89.705 59.2041 91.3182 57.7165 92.4915C56.229 93.6648 54.3957 94.2514 52.2168 94.2514C50.4987 94.2514 48.9693 93.8848 47.6284 93.1515C46.3084 92.4182 45.2714 91.3706 44.5171 90.0087C43.7838 88.6469 43.4171 87.0546 43.4171 85.2318ZM74.2934 76.2751C76.3047 76.2751 77.918 76.9455 79.1332 78.2864C80.3483 79.6063 80.9559 81.4291 80.9559 83.7547V94H75.6133V84.4776C75.6133 83.3043 75.3095 82.3929 74.7019 81.7434C74.0943 81.0939 73.2772 80.7692 72.2506 80.7692C71.224 80.7692 70.4069 81.0939 69.7993 81.7434C69.1917 82.3929 68.8879 83.3043 68.8879 84.4776V94H63.5139V70.7439H68.8879V78.8207C69.4326 78.0455 70.1764 77.4274 71.1192 76.9665C72.062 76.5055 73.1201 76.2751 74.2934 76.2751ZM105.712 71.9381V76.2436H96.7243V80.8949H103.45V85.0747H96.7243V94H91.3502V71.9381H105.712ZM113.911 79.3864C114.54 78.4226 115.325 77.6683 116.268 77.1236C117.211 76.5579 118.258 76.2751 119.411 76.2751V81.9634H117.934C116.593 81.9634 115.587 82.2567 114.917 82.8433C114.246 83.409 113.911 84.4147 113.911 85.8604V94H108.537V76.4636H113.911V79.3864ZM138.51 84.949C138.51 85.4518 138.479 85.9756 138.416 86.5203H126.254C126.337 87.6098 126.683 88.4479 127.291 89.0345C127.919 89.6002 128.684 89.883 129.585 89.883C130.926 89.883 131.858 89.3173 132.382 88.186H138.102C137.808 89.3383 137.274 90.3754 136.499 91.2973C135.745 92.2191 134.791 92.942 133.639 93.4657C132.487 93.9895 131.198 94.2514 129.773 94.2514C128.055 94.2514 126.526 93.8848 125.185 93.1515C123.844 92.4182 122.797 91.3706 122.042 90.0087C121.288 88.6469 120.911 87.0546 120.911 85.2318C120.911 83.409 121.278 81.8167 122.011 80.4549C122.765 79.093 123.813 78.0455 125.154 77.3122C126.495 76.5789 128.034 76.2122 129.773 76.2122C131.47 76.2122 132.979 76.5684 134.299 77.2807C135.619 77.9931 136.645 79.0092 137.379 80.3292C138.133 81.6491 138.51 83.189 138.51 84.949ZM133.01 83.5347C133.01 82.6129 132.696 81.8796 132.068 81.3348C131.439 80.7901 130.653 80.5177 129.711 80.5177C128.81 80.5177 128.045 80.7796 127.416 81.3034C126.809 81.8272 126.432 82.571 126.285 83.5347H133.01ZM157.876 84.949C157.876 85.4518 157.845 85.9756 157.782 86.5203H145.619C145.703 87.6098 146.049 88.4479 146.656 89.0345C147.285 89.6002 148.05 89.883 148.951 89.883C150.292 89.883 151.224 89.3173 151.748 88.186H157.467C157.174 89.3383 156.64 90.3754 155.865 91.2973C155.11 92.2191 154.157 92.942 153.005 93.4657C151.852 93.9895 150.564 94.2514 149.139 94.2514C147.421 94.2514 145.892 93.8848 144.551 93.1515C143.21 92.4182 142.162 91.3706 141.408 90.0087C140.654 88.6469 140.277 87.0546 140.277 85.2318C140.277 83.409 140.643 81.8167 141.377 80.4549C142.131 79.093 143.178 78.0455 144.519 77.3122C145.86 76.5789 147.4 76.2122 149.139 76.2122C150.836 76.2122 152.345 76.5684 153.665 77.2807C154.985 77.9931 156.011 79.0092 156.745 80.3292C157.499 81.6491 157.876 83.189 157.876 84.949ZM152.376 83.5347C152.376 82.6129 152.062 81.8796 151.433 81.3348C150.805 80.7901 150.019 80.5177 149.076 80.5177C148.175 80.5177 147.411 80.7796 146.782 81.3034C146.175 81.8272 145.797 82.571 145.651 83.5347H152.376Z" fill="white"/>
<path d="M56.6862 127.797V133.235H64.3902V142.661H56.1424C55.1756 148.039 52.8191 152.148 49.0728 154.988C45.3266 157.767 39.8583 159.157 32.6679 159.157V162.782C32.6679 165.139 33.121 166.982 34.0274 168.311C34.9337 169.58 36.5047 170.214 38.7404 170.214C40.8552 170.214 42.3658 169.58 43.2722 168.311C44.1785 167.042 44.6317 165.139 44.6317 162.601H58.9521C58.7104 168.704 56.8977 173.447 53.514 176.831C50.1907 180.214 45.387 181.906 39.103 181.906C32.3355 181.906 27.1391 180.154 23.5137 176.65C19.9487 173.085 18.1662 167.767 18.1662 160.698V149.006C24.4503 149.006 29.0727 148.885 32.0334 148.643C35.0546 148.341 37.2903 147.767 38.7404 146.921C40.251 146.015 41.248 144.595 41.7314 142.661H16.4441V133.235H42.1846V127.797H16.4441V117.374H64.3902V127.797H56.6862ZM90.4542 147.012C90.4542 136.619 92.4482 128.432 96.4361 122.45C100.485 116.468 106.98 113.477 115.923 113.477C124.865 113.477 131.331 116.468 135.319 122.45C139.367 128.432 141.391 136.619 141.391 147.012C141.391 157.525 139.367 165.773 135.319 171.755C131.331 177.737 124.865 180.728 115.923 180.728C106.98 180.728 100.485 177.737 96.4361 171.755C92.4482 165.773 90.4542 157.525 90.4542 147.012ZM126.165 147.012C126.165 140.909 125.5 136.226 124.171 132.963C122.841 129.64 120.092 127.978 115.923 127.978C111.754 127.978 109.004 129.64 107.675 132.963C106.346 136.226 105.681 140.909 105.681 147.012C105.681 151.121 105.923 154.534 106.406 157.254C106.889 159.912 107.856 162.087 109.306 163.779C110.817 165.411 113.022 166.226 115.923 166.226C118.823 166.226 120.998 165.411 122.448 163.779C123.959 162.087 124.956 159.912 125.439 157.254C125.923 154.534 126.165 151.121 126.165 147.012Z" fill="white"/>
</svg>
