<svg width="278" height="229" viewBox="0 0 278 229" fill="none" xmlns="http://www.w3.org/2000/svg">
<g filter="url(#filter0_d_248_1281)">
<rect x="22" y="124" width="215.557" height="79" rx="39.5" fill="#F89B29"/>
<rect x="24.2571" y="126.257" width="211.043" height="74.4857" rx="37.2429" stroke="white" stroke-width="4.51429"/>
</g>
<path d="M71.061 160.642C70.5603 160.642 70.0709 160.791 69.6546 161.069C69.2383 161.348 68.9138 161.744 68.7222 162.207C68.5306 162.67 68.4805 163.18 68.5781 163.671C68.6758 164.163 68.9169 164.615 69.271 164.969C69.625 165.324 70.076 165.565 70.5671 165.663C71.0582 165.761 71.5672 165.711 72.0297 165.519C72.4923 165.327 72.8877 165.002 73.1658 164.585C73.444 164.168 73.5924 163.678 73.5924 163.177C73.5924 162.505 73.3257 161.86 72.851 161.384C72.3762 160.909 71.7324 160.642 71.061 160.642ZM81.1869 160.642C80.6862 160.642 80.1968 160.791 79.7805 161.069C79.3642 161.348 79.0397 161.744 78.8481 162.207C78.6565 162.67 78.6064 163.18 78.704 163.671C78.8017 164.163 79.0428 164.615 79.3968 164.969C79.7509 165.324 80.2019 165.565 80.693 165.663C81.1841 165.761 81.6931 165.711 82.1556 165.519C82.6182 165.327 83.0135 165.002 83.2917 164.585C83.5699 164.168 83.7183 163.678 83.7183 163.177C83.7183 162.505 83.4516 161.86 82.9769 161.384C82.5021 160.909 81.8583 160.642 81.1869 160.642ZM91.3128 160.642C90.8121 160.642 90.3226 160.791 89.9063 161.069C89.49 161.348 89.1656 161.744 88.974 162.207C88.7824 162.67 88.7322 163.18 88.8299 163.671C88.9276 164.163 89.1687 164.615 89.5227 164.969C89.8768 165.324 90.3278 165.565 90.8189 165.663C91.3099 165.761 91.8189 165.711 92.2815 165.519C92.7441 165.327 93.1394 165.002 93.4176 164.585C93.6958 164.168 93.8442 163.678 93.8442 163.177C93.8442 162.505 93.5775 161.86 93.1028 161.384C92.628 160.909 91.9841 160.642 91.3128 160.642ZM81.1869 137.828C77.8625 137.828 74.5707 138.483 71.4993 139.757C68.428 141.031 65.6373 142.898 63.2866 145.252C58.5392 150.006 55.8721 156.454 55.8721 163.177C55.85 169.03 57.874 174.707 61.5933 179.223L56.5303 184.293C56.1791 184.649 55.9411 185.102 55.8465 185.594C55.7519 186.086 55.8048 186.594 55.9987 187.056C56.209 187.512 56.5498 187.895 56.978 188.157C57.4062 188.419 57.9024 188.547 58.4036 188.526H81.1869C87.9007 188.526 94.3396 185.855 99.0871 181.102C103.835 176.348 106.502 169.9 106.502 163.177C106.502 156.454 103.835 150.006 99.0871 145.252C94.3396 140.498 87.9007 137.828 81.1869 137.828ZM81.1869 183.456H64.5045L66.8587 181.099C67.0979 180.864 67.2882 180.584 67.4186 180.275C67.5489 179.966 67.6168 179.634 67.6182 179.299C67.6087 178.63 67.3357 177.993 66.8587 177.525C63.544 174.209 61.4798 169.845 61.0178 165.176C60.5559 160.508 61.7248 155.823 64.3253 151.921C66.9258 148.018 70.7972 145.139 75.2797 143.775C79.7623 142.41 84.5787 142.644 88.9084 144.436C93.2381 146.228 96.8133 149.469 99.0247 153.605C101.236 157.741 101.947 162.517 101.036 167.119C100.126 171.721 97.6498 175.864 94.0304 178.843C90.411 181.822 85.872 183.453 81.1869 183.456Z" fill="white"/>
<path d="M118.452 163.261C118.452 160.915 118.976 158.82 120.024 156.975C121.094 155.107 122.54 153.661 124.362 152.636C126.207 151.588 128.269 151.064 130.546 151.064C133.211 151.064 135.545 151.748 137.55 153.114C139.554 154.481 140.955 156.371 141.752 158.785H136.251C135.705 157.647 134.93 156.793 133.928 156.223C132.949 155.654 131.81 155.369 130.512 155.369C129.123 155.369 127.881 155.699 126.788 156.36C125.718 156.998 124.875 157.909 124.26 159.093C123.668 160.277 123.372 161.667 123.372 163.261C123.372 164.832 123.668 166.222 124.26 167.429C124.875 168.613 125.718 169.536 126.788 170.196C127.881 170.834 129.123 171.153 130.512 171.153C131.81 171.153 132.949 170.868 133.928 170.299C134.93 169.706 135.705 168.841 136.251 167.702H141.752C140.955 170.139 139.554 172.041 137.55 173.408C135.568 174.751 133.234 175.423 130.546 175.423C128.269 175.423 126.207 174.911 124.362 173.886C122.54 172.838 121.094 171.392 120.024 169.547C118.976 167.702 118.452 165.607 118.452 163.261ZM156.496 156.018C157.931 156.018 159.207 156.337 160.323 156.975C161.439 157.59 162.304 158.512 162.919 159.742C163.557 160.949 163.876 162.407 163.876 164.115V175.218H159.093V164.764C159.093 163.261 158.717 162.111 157.965 161.314C157.214 160.494 156.189 160.084 154.891 160.084C153.57 160.084 152.522 160.494 151.747 161.314C150.996 162.111 150.62 163.261 150.62 164.764V175.218H145.837V149.937H150.62V158.649C151.235 157.829 152.055 157.191 153.08 156.736C154.105 156.257 155.244 156.018 156.496 156.018ZM167.194 165.687C167.194 163.773 167.57 162.077 168.321 160.596C169.096 159.116 170.132 157.977 171.43 157.18C172.751 156.383 174.22 155.984 175.838 155.984C177.25 155.984 178.48 156.269 179.527 156.838C180.598 157.407 181.452 158.125 182.09 158.99V156.291H186.907V175.218H182.09V172.451C181.475 173.339 180.62 174.079 179.527 174.672C178.457 175.241 177.215 175.526 175.803 175.526C174.209 175.526 172.751 175.116 171.43 174.296C170.132 173.476 169.096 172.326 168.321 170.845C167.57 169.342 167.194 167.622 167.194 165.687ZM182.09 165.755C182.09 164.593 181.862 163.603 181.406 162.783C180.951 161.94 180.336 161.302 179.561 160.869C178.787 160.414 177.956 160.186 177.067 160.186C176.179 160.186 175.359 160.403 174.608 160.835C173.856 161.268 173.241 161.906 172.763 162.748C172.307 163.568 172.08 164.548 172.08 165.687C172.08 166.825 172.307 167.827 172.763 168.693C173.241 169.536 173.856 170.185 174.608 170.64C175.382 171.096 176.202 171.324 177.067 171.324C177.956 171.324 178.787 171.107 179.561 170.674C180.336 170.219 180.951 169.581 181.406 168.761C181.862 167.919 182.09 166.916 182.09 165.755ZM197.147 160.22V169.376C197.147 170.014 197.295 170.481 197.591 170.777C197.91 171.05 198.434 171.187 199.162 171.187H201.383V175.218H198.377C194.345 175.218 192.33 173.26 192.33 169.342V160.22H190.075V156.291H192.33V151.611H197.147V156.291H201.383V160.22H197.147Z" fill="white"/>
<path d="M40.688 35H34.416L26.064 22.392V35H19.792V12.44H26.064L34.416 25.208V12.44H40.688V35ZM61.4128 25.816C61.4128 26.3067 61.3808 26.7973 61.3168 27.288H49.4448C49.5088 28.2693 49.7754 29.0053 50.2448 29.496C50.7354 29.9653 51.3541 30.2 52.1008 30.2C53.1461 30.2 53.8928 29.7307 54.3408 28.792H61.0288C60.7514 30.0293 60.2074 31.1387 59.3968 32.12C58.6074 33.08 57.6048 33.8373 56.3888 34.392C55.1728 34.9467 53.8288 35.224 52.3568 35.224C50.5861 35.224 49.0074 34.8507 47.6208 34.104C46.2554 33.3573 45.1781 32.2907 44.3888 30.904C43.6208 29.5173 43.2368 27.8853 43.2368 26.008C43.2368 24.1307 43.6208 22.5093 44.3888 21.144C45.1568 19.7573 46.2234 18.6907 47.5888 17.944C48.9754 17.1973 50.5648 16.824 52.3568 16.824C54.1274 16.824 55.6954 17.1867 57.0608 17.912C58.4261 18.6373 59.4928 19.6827 60.2608 21.048C61.0288 22.392 61.4128 23.9813 61.4128 25.816ZM55.0128 24.248C55.0128 23.48 54.7568 22.8827 54.2448 22.456C53.7328 22.008 53.0928 21.784 52.3248 21.784C51.5568 21.784 50.9274 21.9973 50.4368 22.424C49.9461 22.8293 49.6261 23.4373 49.4768 24.248H55.0128ZM81.1315 25.816C81.1315 26.3067 81.0995 26.7973 81.0355 27.288H69.1635C69.2275 28.2693 69.4942 29.0053 69.9635 29.496C70.4542 29.9653 71.0728 30.2 71.8195 30.2C72.8648 30.2 73.6115 29.7307 74.0595 28.792H80.7475C80.4702 30.0293 79.9262 31.1387 79.1155 32.12C78.3262 33.08 77.3235 33.8373 76.1075 34.392C74.8915 34.9467 73.5475 35.224 72.0755 35.224C70.3048 35.224 68.7262 34.8507 67.3395 34.104C65.9742 33.3573 64.8968 32.2907 64.1075 30.904C63.3395 29.5173 62.9555 27.8853 62.9555 26.008C62.9555 24.1307 63.3395 22.5093 64.1075 21.144C64.8755 19.7573 65.9422 18.6907 67.3075 17.944C68.6942 17.1973 70.2835 16.824 72.0755 16.824C73.8462 16.824 75.4142 17.1867 76.7795 17.912C78.1448 18.6373 79.2115 19.6827 79.9795 21.048C80.7475 22.392 81.1315 23.9813 81.1315 25.816ZM74.7315 24.248C74.7315 23.48 74.4755 22.8827 73.9635 22.456C73.4515 22.008 72.8115 21.784 72.0435 21.784C71.2755 21.784 70.6462 21.9973 70.1555 22.424C69.6648 22.8293 69.3448 23.4373 69.1955 24.248H74.7315ZM82.6743 26.008C82.6743 24.152 83.0049 22.5307 83.6663 21.144C84.3489 19.7573 85.2769 18.6907 86.4503 17.944C87.6236 17.1973 88.9249 16.824 90.3542 16.824C91.5063 16.824 92.5303 17.0693 93.4263 17.56C94.3436 18.0293 95.0583 18.68 95.5703 19.512V11.32H101.874V35H95.5703V32.504C95.0796 33.336 94.3863 33.9973 93.4903 34.488C92.5943 34.9787 91.5383 35.224 90.3223 35.224C88.8929 35.224 87.5916 34.8507 86.4183 34.104C85.2663 33.3573 84.3489 32.2907 83.6663 30.904C83.0049 29.496 82.6743 27.864 82.6743 26.008ZM95.6023 26.008C95.6023 24.856 95.2823 23.9493 94.6423 23.288C94.0236 22.6267 93.2556 22.296 92.3383 22.296C91.3996 22.296 90.6209 22.6267 90.0023 23.288C89.3836 23.928 89.0743 24.8347 89.0743 26.008C89.0743 27.16 89.3836 28.0773 90.0023 28.76C90.6209 29.4213 91.3996 29.752 92.3383 29.752C93.2556 29.752 94.0236 29.4213 94.6423 28.76C95.2823 28.0987 95.6023 27.1813 95.6023 26.008ZM110.549 26.008C110.549 24.152 110.88 22.5307 111.541 21.144C112.224 19.7573 113.141 18.6907 114.293 17.944C115.467 17.1973 116.768 16.824 118.197 16.824C119.435 16.824 120.501 17.0693 121.397 17.56C122.293 18.0507 122.987 18.712 123.477 19.544V17.048H129.749V35H123.477V32.504C122.987 33.336 122.283 33.9973 121.365 34.488C120.469 34.9787 119.413 35.224 118.197 35.224C116.768 35.224 115.467 34.8507 114.293 34.104C113.141 33.3573 112.224 32.2907 111.541 30.904C110.88 29.496 110.549 27.864 110.549 26.008ZM123.477 26.008C123.477 24.856 123.157 23.9493 122.517 23.288C121.899 22.6267 121.131 22.296 120.213 22.296C119.275 22.296 118.496 22.6267 117.877 23.288C117.259 23.928 116.949 24.8347 116.949 26.008C116.949 27.16 117.259 28.0773 117.877 28.76C118.496 29.4213 119.275 29.752 120.213 29.752C121.131 29.752 121.899 29.4213 122.517 28.76C123.157 28.0987 123.477 27.1813 123.477 26.008ZM145.067 16.888C147.137 16.888 148.779 17.5813 149.995 18.968C151.211 20.3333 151.819 22.1893 151.819 24.536V35H145.547V25.368C145.547 24.344 145.281 23.544 144.747 22.968C144.214 22.3707 143.499 22.072 142.603 22.072C141.665 22.072 140.929 22.3707 140.395 22.968C139.862 23.544 139.595 24.344 139.595 25.368V35H133.323V17.048H139.595V19.608C140.15 18.7973 140.897 18.1467 141.835 17.656C142.774 17.144 143.851 16.888 145.067 16.888ZM174.589 17.048L163.197 43.544H156.381L160.669 34.232L153.309 17.048H160.285L164.061 27.224L167.709 17.048H174.589ZM194.163 16.888C196.211 16.888 197.832 17.5813 199.027 18.968C200.243 20.3333 200.851 22.1893 200.851 24.536V35H194.579V25.368C194.579 24.344 194.312 23.544 193.779 22.968C193.245 22.3707 192.531 22.072 191.635 22.072C190.696 22.072 189.96 22.3707 189.427 22.968C188.893 23.544 188.627 24.344 188.627 25.368V35H182.355V11.32H188.627V19.608C189.181 18.7973 189.928 18.1467 190.867 17.656C191.827 17.144 192.925 16.888 194.163 16.888ZM221.444 25.816C221.444 26.3067 221.412 26.7973 221.348 27.288H209.476C209.54 28.2693 209.807 29.0053 210.276 29.496C210.767 29.9653 211.385 30.2 212.132 30.2C213.177 30.2 213.924 29.7307 214.372 28.792H221.06C220.783 30.0293 220.239 31.1387 219.428 32.12C218.639 33.08 217.636 33.8373 216.42 34.392C215.204 34.9467 213.86 35.224 212.388 35.224C210.617 35.224 209.039 34.8507 207.652 34.104C206.287 33.3573 205.209 32.2907 204.42 30.904C203.652 29.5173 203.268 27.8853 203.268 26.008C203.268 24.1307 203.652 22.5093 204.42 21.144C205.188 19.7573 206.255 18.6907 207.62 17.944C209.007 17.1973 210.596 16.824 212.388 16.824C214.159 16.824 215.727 17.1867 217.092 17.912C218.457 18.6373 219.524 19.6827 220.292 21.048C221.06 22.392 221.444 23.9813 221.444 25.816ZM215.044 24.248C215.044 23.48 214.788 22.8827 214.276 22.456C213.764 22.008 213.124 21.784 212.356 21.784C211.588 21.784 210.959 21.9973 210.468 22.424C209.977 22.8293 209.657 23.4373 209.508 24.248H215.044ZM230.283 11.32V35H224.011V11.32H230.283ZM240.127 19.544C240.617 18.712 241.311 18.0507 242.207 17.56C243.103 17.0693 244.159 16.824 245.375 16.824C246.804 16.824 248.095 17.1973 249.247 17.944C250.42 18.6907 251.337 19.7573 251.999 21.144C252.681 22.5307 253.023 24.152 253.023 26.008C253.023 27.864 252.681 29.496 251.999 30.904C251.337 32.2907 250.42 33.3573 249.247 34.104C248.095 34.8507 246.804 35.224 245.375 35.224C244.159 35.224 243.103 34.9787 242.207 34.488C241.332 33.9973 240.639 33.336 240.127 32.504V43.576H233.855V17.048H240.127V19.544ZM246.655 26.008C246.655 24.8347 246.335 23.928 245.695 23.288C245.076 22.6267 244.308 22.296 243.391 22.296C242.473 22.296 241.695 22.6267 241.055 23.288C240.436 23.9493 240.127 24.856 240.127 26.008C240.127 27.1813 240.436 28.0987 241.055 28.76C241.695 29.4213 242.473 29.752 243.391 29.752C244.308 29.752 245.076 29.4213 245.695 28.76C246.335 28.0773 246.655 27.16 246.655 26.008ZM262.453 10.776C264.778 10.776 266.645 11.3733 268.053 12.568C269.461 13.7627 270.165 15.4693 270.165 17.688C270.165 19.6293 269.514 21.1653 268.213 22.296C266.933 23.4267 265.237 24.0133 263.125 24.056L262.965 26.392H257.429L257.237 20.024H259.541C260.991 20.024 262.101 19.864 262.869 19.544C263.637 19.2027 264.021 18.6053 264.021 17.752C264.021 17.176 263.861 16.728 263.541 16.408C263.242 16.0667 262.826 15.896 262.293 15.896C261.695 15.896 261.237 16.0773 260.917 16.44C260.618 16.7813 260.469 17.2507 260.469 17.848H254.549C254.506 16.5467 254.773 15.3627 255.349 14.296C255.946 13.208 256.842 12.3547 258.036 11.736C259.231 11.096 260.703 10.776 262.453 10.776ZM260.245 35.256C259.135 35.256 258.239 34.9573 257.557 34.36C256.895 33.7413 256.565 32.9627 256.565 32.024C256.565 31.0853 256.895 30.3067 257.557 29.688C258.239 29.0693 259.135 28.76 260.245 28.76C261.333 28.76 262.207 29.0693 262.869 29.688C263.551 30.3067 263.893 31.0853 263.893 32.024C263.893 32.9413 263.551 33.7093 262.869 34.328C262.207 34.9467 261.333 35.256 260.245 35.256ZM19.024 71.672C19.024 69.4533 19.4827 67.48 20.4 65.752C21.3387 64.0027 22.6613 62.648 24.368 61.688C26.0747 60.7067 28.0373 60.216 30.256 60.216C33.072 60.216 35.44 60.9733 37.36 62.488C39.28 63.9813 40.5173 66.0187 41.072 68.6H34.32C33.9147 67.7467 33.3493 67.096 32.624 66.648C31.92 66.2 31.0987 65.976 30.16 65.976C28.7093 65.976 27.5467 66.4987 26.672 67.544C25.8187 68.568 25.392 69.944 25.392 71.672C25.392 73.4213 25.8187 74.8187 26.672 75.864C27.5467 76.888 28.7093 77.4 30.16 77.4C31.0987 77.4 31.92 77.176 32.624 76.728C33.3493 76.28 33.9147 75.6293 34.32 74.776H41.072C40.5173 77.3573 39.28 79.4053 37.36 80.92C35.44 82.4133 33.072 83.16 30.256 83.16C28.0373 83.16 26.0747 82.68 24.368 81.72C22.6613 80.7387 21.3387 79.384 20.4 77.656C19.4827 75.9067 19.024 73.912 19.024 71.672ZM55.85 64.888C57.898 64.888 59.5193 65.5813 60.714 66.968C61.93 68.3333 62.538 70.1893 62.538 72.536V83H56.266V73.368C56.266 72.344 55.9993 71.544 55.466 70.968C54.9327 70.3707 54.218 70.072 53.322 70.072C52.3833 70.072 51.6473 70.3707 51.114 70.968C50.5807 71.544 50.314 72.344 50.314 73.368V83H44.042V59.32H50.314V67.608C50.8687 66.7973 51.6153 66.1467 52.554 65.656C53.514 65.144 54.6127 64.888 55.85 64.888ZM64.9555 74.008C64.9555 72.152 65.2862 70.5307 65.9475 69.144C66.6302 67.7573 67.5475 66.6907 68.6995 65.944C69.8728 65.1973 71.1742 64.824 72.6035 64.824C73.8408 64.824 74.9075 65.0693 75.8035 65.56C76.6995 66.0507 77.3928 66.712 77.8835 67.544V65.048H84.1555V83H77.8835V80.504C77.3928 81.336 76.6888 81.9973 75.7715 82.488C74.8755 82.9787 73.8195 83.224 72.6035 83.224C71.1742 83.224 69.8728 82.8507 68.6995 82.104C67.5475 81.3573 66.6302 80.2907 65.9475 78.904C65.2862 77.496 64.9555 75.864 64.9555 74.008ZM77.8835 74.008C77.8835 72.856 77.5635 71.9493 76.9235 71.288C76.3048 70.6267 75.5368 70.296 74.6195 70.296C73.6808 70.296 72.9022 70.6267 72.2835 71.288C71.6648 71.928 71.3555 72.8347 71.3555 74.008C71.3555 75.16 71.6648 76.0773 72.2835 76.76C72.9022 77.4213 73.6808 77.752 74.6195 77.752C75.5368 77.752 76.3048 77.4213 76.9235 76.76C77.5635 76.0987 77.8835 75.1813 77.8835 74.008ZM98.3215 77.656V83H95.6015C91.0148 83 88.7215 80.728 88.7215 76.184V70.264H86.5135V65.048H88.7215V60.696H95.0255V65.048H98.2895V70.264H95.0255V76.28C95.0255 76.7707 95.1322 77.1227 95.3455 77.336C95.5802 77.5493 95.9642 77.656 96.4975 77.656H98.3215ZM133.851 65.048L129.275 83H122.235L119.739 72.12L117.147 83H110.139L105.595 65.048H111.835L113.851 76.952L116.507 65.048H123.227L125.979 76.984L127.963 65.048H133.851ZM138.804 63.384C137.694 63.384 136.798 63.0853 136.116 62.488C135.454 61.8693 135.124 61.1013 135.124 60.184C135.124 59.2453 135.454 58.4667 136.116 57.848C136.798 57.2293 137.694 56.92 138.804 56.92C139.892 56.92 140.766 57.2293 141.428 57.848C142.11 58.4667 142.452 59.2453 142.452 60.184C142.452 61.1013 142.11 61.8693 141.428 62.488C140.766 63.0853 139.892 63.384 138.804 63.384ZM141.908 65.048V83H135.636V65.048H141.908ZM156.072 77.656V83H153.352C148.765 83 146.472 80.728 146.472 76.184V70.264H144.264V65.048H146.472V60.696H152.776V65.048H156.04V70.264H152.776V76.28C152.776 76.7707 152.882 77.1227 153.095 77.336C153.33 77.5493 153.714 77.656 154.248 77.656H156.072ZM170.756 64.888C172.804 64.888 174.426 65.5813 175.62 66.968C176.836 68.3333 177.444 70.1893 177.444 72.536V83H171.172V73.368C171.172 72.344 170.906 71.544 170.372 70.968C169.839 70.3707 169.124 70.072 168.228 70.072C167.29 70.072 166.554 70.3707 166.02 70.968C165.487 71.544 165.22 72.344 165.22 73.368V83H158.948V59.32H165.22V67.608C165.775 66.7973 166.522 66.1467 167.46 65.656C168.42 65.144 169.519 64.888 170.756 64.888ZM205.379 65.048V83H199.075V80.44C198.541 81.2507 197.805 81.912 196.867 82.424C195.928 82.9147 194.851 83.16 193.635 83.16C191.544 83.16 189.891 82.4773 188.675 81.112C187.48 79.7253 186.883 77.848 186.883 75.48V65.048H193.123V74.68C193.123 75.704 193.389 76.5147 193.923 77.112C194.477 77.688 195.203 77.976 196.099 77.976C197.016 77.976 197.741 77.688 198.275 77.112C198.808 76.5147 199.075 75.704 199.075 74.68V65.048H205.379ZM216.596 83.224C214.975 83.224 213.524 82.9573 212.244 82.424C210.986 81.8693 209.983 81.1227 209.236 80.184C208.511 79.224 208.106 78.1467 208.02 76.952H214.1C214.186 77.528 214.452 77.976 214.9 78.296C215.348 78.616 215.903 78.776 216.564 78.776C217.076 78.776 217.482 78.6693 217.78 78.456C218.079 78.2427 218.228 77.9653 218.228 77.624C218.228 77.176 217.983 76.8453 217.492 76.632C217.002 76.4187 216.191 76.184 215.06 75.928C213.78 75.672 212.714 75.384 211.86 75.064C211.007 74.744 210.26 74.2213 209.62 73.496C209.002 72.7707 208.692 71.7893 208.692 70.552C208.692 69.4853 208.98 68.5253 209.556 67.672C210.132 66.7973 210.975 66.104 212.084 65.592C213.215 65.08 214.57 64.824 216.148 64.824C218.495 64.824 220.34 65.4 221.684 66.552C223.028 67.704 223.807 69.2187 224.02 71.096H218.356C218.25 70.52 217.994 70.0827 217.588 69.784C217.204 69.464 216.682 69.304 216.02 69.304C215.508 69.304 215.114 69.4 214.836 69.592C214.58 69.784 214.452 70.0507 214.452 70.392C214.452 70.8187 214.698 71.1493 215.188 71.384C215.679 71.5973 216.468 71.8213 217.556 72.056C218.858 72.3333 219.935 72.6427 220.788 72.984C221.663 73.3253 222.42 73.88 223.06 74.648C223.722 75.3947 224.052 76.4187 224.052 77.72C224.052 78.7653 223.743 79.704 223.124 80.536C222.527 81.368 221.663 82.0293 220.532 82.52C219.423 82.9893 218.111 83.224 216.596 83.224Z" fill="white"/>
<defs>
<filter id="filter0_d_248_1281" x="0.750001" y="114.29" width="250.317" height="113.76" filterUnits="userSpaceOnUse" color-interpolation-filters="sRGB">
<feFlood flood-opacity="0" result="BackgroundImageFix"/>
<feColorMatrix in="SourceAlpha" type="matrix" values="0 0 0 0 0 0 0 0 0 0 0 0 0 0 0 0 0 0 127 0" result="hardAlpha"/>
<feOffset dx="-3.87" dy="7.67"/>
<feGaussianBlur stdDeviation="8.69"/>
<feComposite in2="hardAlpha" operator="out"/>
<feColorMatrix type="matrix" values="0 0 0 0 0 0 0 0 0 0 0 0 0 0 0 0 0 0 0.25 0"/>
<feBlend mode="normal" in2="BackgroundImageFix" result="effect1_dropShadow_248_1281"/>
<feBlend mode="normal" in="SourceGraphic" in2="effect1_dropShadow_248_1281" result="shape"/>
</filter>
</defs>
</svg>
