<svg width="186" height="197" viewBox="0 0 186 197" fill="none" xmlns="http://www.w3.org/2000/svg">
<rect x="1" y="1" width="184" height="195" stroke="#2D2D2D" stroke-width="2" stroke-dasharray="9 9"/>
<mask id="path-2-inside-1_3_141" fill="white">
<path fill-rule="evenodd" clip-rule="evenodd" d="M110.938 60H55V145H132V81.0625L110.938 60Z"/>
</mask>
<path d="M55 60V59H54V60H55ZM110.938 60L111.645 59.2929L111.352 59H110.938V60ZM55 145H54V146H55V145ZM132 145V146H133V145H132ZM132 81.0625H133V80.6483L132.707 80.3554L132 81.0625ZM55 61H110.938V59H55V61ZM56 145V60H54V145H56ZM132 144H55V146H132V144ZM131 81.0625V145H133V81.0625H131ZM132.707 80.3554L111.645 59.2929L110.23 60.7071L131.293 81.7696L132.707 80.3554Z" fill="#2D2D2D" mask="url(#path-2-inside-1_3_141)"/>
<path d="M111 81H130L111 62V81Z" stroke="#2D2D2D"/>
<path d="M149.241 144.767H133.457V160.774H127.158V144.767H111.447V139.061H127.158V122.98H133.457V139.061H149.241V144.767Z" fill="#2D2D2D"/>
</svg>
