<svg width="577" height="289" viewBox="0 0 577 289" fill="none" xmlns="http://www.w3.org/2000/svg">
<path d="M569.948 288.448C569.948 213.804 540.296 142.216 487.514 89.4343C434.732 36.6525 363.145 7.00001 288.5 7C213.855 6.99999 142.268 36.6525 89.4861 89.4343C36.7043 142.216 7.05177 213.803 7.05176 288.448" stroke="#FF0F7B" stroke-width="6.48872" stroke-dasharray="48.67 48.67"/>
<path d="M494.895 282.93C494.895 228.19 473.15 175.693 434.444 136.986C395.737 98.2794 343.239 76.5342 288.5 76.5342C233.76 76.5342 181.263 98.2793 142.556 136.986C103.85 175.693 82.1045 228.19 82.1045 282.93" stroke="#F89B29" stroke-width="4.7584" stroke-dasharray="35.69 35.69"/>
<path d="M446.332 282.93C446.332 241.07 429.703 200.925 400.104 171.326C370.505 141.727 330.36 125.098 288.5 125.098C246.641 125.098 206.496 141.727 176.896 171.326C147.297 200.925 130.668 241.07 130.668 282.93" stroke="#9610FF" stroke-width="3.63877" stroke-dasharray="27.29 27.29"/>
</svg>
