<svg width="122" height="210" viewBox="0 0 122 210" fill="none" xmlns="http://www.w3.org/2000/svg">
<rect y="73.1924" width="121.759" height="63.6156" rx="12" fill="white"/>
<path d="M97.0365 92.7109H91.7873C90.2004 92.7109 88.9796 93.1992 88.2472 94.7862L78.2372 117.614H85.3174C85.3174 117.614 86.5382 114.562 86.7823 113.83C87.5148 113.83 94.4729 113.83 95.4495 113.83C95.6937 114.684 96.304 117.492 96.304 117.492H102.652L97.0365 92.7109ZM88.7355 108.703C89.3459 107.238 91.4211 101.744 91.4211 101.744C91.4211 101.866 92.0315 100.279 92.2756 99.425L92.7639 101.622C92.7639 101.622 94.1067 107.604 94.3509 108.825H88.7355V108.703Z" fill="#3362AB"/>
<path d="M78.7251 109.435C78.7251 114.563 74.0863 117.981 66.884 117.981C63.8321 117.981 60.9024 117.37 59.3154 116.638L60.292 111.022L61.1465 111.389C63.3439 112.365 64.8087 112.731 67.4943 112.731C69.4475 112.731 71.5228 111.999 71.5228 110.29C71.5228 109.191 70.6683 108.459 67.9826 107.238C65.4191 106.017 62.001 104.064 62.001 100.524C62.001 95.6412 66.7619 92.3452 73.4759 92.3452C76.0395 92.3452 78.2368 92.8335 79.5796 93.4439L78.603 98.8151L78.1147 98.3268C76.894 97.8385 75.307 97.3502 72.9876 97.3502C70.4241 97.4723 69.2034 98.571 69.2034 99.5475C69.2034 100.646 70.6683 101.501 72.9876 102.599C76.894 104.43 78.7251 106.506 78.7251 109.435Z" fill="#3362AB"/>
<path d="M19.1533 92.9556L19.2754 92.4673H29.7737C31.2386 92.4673 32.3372 92.9556 32.7035 94.5425L35.0229 105.529C32.7035 99.6696 27.3322 94.9088 19.1533 92.9556Z" fill="#F9B50B"/>
<path d="M49.7937 92.7124L39.1733 117.493H31.971L25.8673 96.7408C30.262 99.5485 33.9242 103.943 35.267 106.995L35.9994 109.559L42.5914 92.5903H49.7937V92.7124Z" fill="#3362AB"/>
<path d="M52.6017 92.5903H59.3157L55.0431 117.493H48.3291L52.6017 92.5903Z" fill="#3362AB"/>
<rect width="121.759" height="63.6156" rx="12" fill="white"/>
<path d="M71.0259 12.1485L49.4645 12.2227L50.1178 51.6961L71.6792 51.6219L71.0259 12.1485Z" fill="#FF5F00"/>
<path d="M50.8841 32.0395C50.7504 24.0109 54.3467 16.8773 59.9799 12.25C55.7277 8.91333 50.3968 6.90683 44.6181 6.92658C30.9281 6.97337 20.0395 18.2512 20.2708 32.1442C20.5022 46.0371 31.7652 57.2392 45.4552 57.1924C51.2339 57.1727 56.4973 55.13 60.6379 51.7646C54.8524 47.2462 51.0178 40.0681 50.8841 32.0395Z" fill="#EB001B"/>
<path d="M100.875 31.7019C101.107 45.5948 90.2185 56.8726 76.5285 56.9193C70.7498 56.939 65.4188 54.9325 61.1665 51.5958C66.8683 46.9684 70.3956 39.8349 70.2616 31.8063C70.1277 23.7778 66.294 16.6695 60.5072 12.0812C64.6477 8.71586 69.9111 6.67318 75.6898 6.65347C89.3798 6.60677 100.644 17.8788 100.875 31.7019Z" fill="#F79E1B"/>
<rect y="146.384" width="121.759" height="63.6156" rx="12" fill="white"/>
<path d="M58.6418 177.52V187.172H55.5585V163.336H63.736C64.7121 163.315 65.6826 163.487 66.5914 163.841C67.5003 164.196 68.3295 164.725 69.0313 165.399C69.7401 166.032 70.3042 166.809 70.6858 167.676C71.0673 168.544 71.2574 169.483 71.2432 170.43C71.2635 171.381 71.0764 172.326 70.6946 173.199C70.3128 174.072 69.7454 174.853 69.0313 175.488C67.6013 176.843 65.8362 177.519 63.736 177.518H58.6418V177.52ZM58.6418 166.27V174.591H63.8126C64.3795 174.607 64.9436 174.506 65.4689 174.294C65.9942 174.082 66.4692 173.763 66.8634 173.358C67.2555 172.98 67.5672 172.527 67.78 172.027C67.9929 171.526 68.1025 170.989 68.1025 170.446C68.1025 169.903 67.9929 169.365 67.78 168.865C67.5672 168.364 67.2555 167.912 66.8634 167.533C66.4741 167.12 66.0008 166.793 65.4749 166.575C64.9489 166.357 64.3823 166.252 63.8126 166.268H58.6418V166.27Z" fill="#5F6368"/>
<path d="M78.349 170.332C80.6279 170.332 82.4269 170.936 83.7457 172.146C85.0646 173.355 85.7234 175.014 85.7221 177.121V187.172H82.7729V184.909H82.6388C81.3621 186.773 79.664 187.705 77.5446 187.705C75.7355 187.705 74.2219 187.172 73.0039 186.107C72.4194 185.619 71.952 185.006 71.636 184.315C71.3199 183.625 71.163 182.872 71.1769 182.114C71.1769 180.426 71.8191 179.084 73.1035 178.087C74.3879 177.091 76.1025 176.591 78.2475 176.589C80.0783 176.589 81.5861 176.921 82.7709 177.587V176.887C82.7744 176.37 82.662 175.858 82.4417 175.39C82.2214 174.921 81.8988 174.507 81.4974 174.177C80.682 173.447 79.6194 173.048 78.5213 173.061C76.799 173.061 75.4361 173.782 74.4326 175.225L71.7169 173.527C73.2107 171.397 75.4214 170.332 78.349 170.332ZM74.3598 182.18C74.3577 182.57 74.4494 182.954 74.6273 183.302C74.8052 183.649 75.0641 183.949 75.3824 184.177C76.0644 184.71 76.9108 184.992 77.7782 184.976C79.0794 184.974 80.3266 184.459 81.2465 183.546C82.2679 182.591 82.7786 181.471 82.7786 180.185C81.8172 179.424 80.4766 179.044 78.7569 179.044C77.5044 179.044 76.46 179.344 75.6237 179.944C74.7792 180.552 74.3598 181.292 74.3598 182.18Z" fill="#5F6368"/>
<path d="M102.651 170.863L92.3557 194.361H89.1728L92.9934 186.139L86.2235 170.863H89.575L94.4681 182.579H94.5351L99.2941 170.863H102.651Z" fill="#5F6368"/>
<path d="M46.1823 175.44C46.1835 174.506 46.1041 173.575 45.9449 172.655H32.9413V177.929H40.3891C40.2367 178.771 39.9142 179.574 39.4409 180.29C38.9676 181.005 38.3533 181.617 37.6352 182.09V185.514H42.0802C44.6828 183.131 46.1823 179.607 46.1823 175.44Z" fill="#4285F4"/>
<path d="M32.9414 188.821C36.6624 188.821 39.7955 187.608 42.0803 185.516L37.6353 182.092C36.3981 182.925 34.8048 183.401 32.9414 183.401C29.3448 183.401 26.2921 180.993 25.2005 177.749H20.6215V181.276C21.7691 183.544 23.5289 185.451 25.7044 186.783C27.8799 188.115 30.3855 188.821 32.9414 188.821Z" fill="#34A853"/>
<path d="M25.2005 177.748C24.6234 176.048 24.6234 174.207 25.2005 172.507V168.979H20.6215C19.656 170.887 19.1532 172.992 19.1532 175.128C19.1532 177.263 19.656 179.369 20.6215 181.276L25.2005 177.748Z" fill="#FBBC04"/>
<path d="M32.9414 166.854C34.9078 166.822 36.8078 167.56 38.2309 168.908L42.1664 165C39.6709 162.672 36.3648 161.394 32.9414 161.434C30.3855 161.434 27.8799 162.14 25.7044 163.472C23.5289 164.804 21.7691 166.711 20.6215 168.979L25.2005 172.507C26.2921 169.262 29.3448 166.854 32.9414 166.854Z" fill="#EA4335"/>
</svg>
