<svg width="122" height="64" viewBox="0 0 122 64" fill="none" xmlns="http://www.w3.org/2000/svg">
<rect width="121.759" height="63.6156" rx="12" fill="white"/>
<path d="M71.0261 12.1485L49.4647 12.2227L50.1181 51.6961L71.6795 51.6219L71.0261 12.1485Z" fill="#FF5F00"/>
<path d="M50.8835 32.0392C50.7501 24.0106 54.3467 16.8769 59.98 12.2496C55.7279 8.91296 50.3971 6.9065 44.6184 6.92629C30.9284 6.97317 20.0393 18.2511 20.2702 32.144C20.5011 46.037 31.7637 57.239 45.4537 57.1922C51.2324 57.1724 56.4959 55.1296 60.6366 51.7642C54.8513 47.2459 51.017 40.0678 50.8835 32.0392Z" fill="#EB001B"/>
<path d="M100.874 31.7013C101.104 45.5942 90.2154 56.8721 76.5254 56.919C70.7467 56.9388 65.4159 54.9324 61.1638 51.5957C66.8659 46.9682 70.3936 39.8347 70.2602 31.8061C70.1268 23.7775 66.2936 16.6693 60.5071 12.0811C64.6478 8.71568 69.9113 6.67293 75.69 6.65314C89.38 6.60625 100.644 17.8781 100.874 31.7013Z" fill="#F79E1B"/>
</svg>
