<svg width="38" height="200" viewBox="0 0 38 200" fill="none" xmlns="http://www.w3.org/2000/svg">
<path d="M35.2025 0H2.27255C1.73283 0 1.21522 0.214401 0.833587 0.596038C0.45195 0.977674 0.237549 1.49528 0.237549 2.035V34.965C0.237549 35.2322 0.290186 35.4969 0.392454 35.7438C0.494722 35.9907 0.64462 36.215 0.833587 36.404C1.02255 36.5929 1.24689 36.7428 1.49379 36.8451C1.74069 36.9474 2.00531 37 2.27255 37H19.9955V22.6625H15.1855V17.1125H19.9955V12.95C19.8959 11.9728 20.0113 10.9855 20.3336 10.0576C20.6559 9.12965 21.1773 8.28346 21.8612 7.57836C22.5452 6.87326 23.3751 6.32634 24.2928 5.97594C25.2105 5.62554 26.1937 5.48017 27.1735 5.55C28.6135 5.54114 30.0527 5.61526 31.484 5.772V10.767H28.5425C26.2115 10.767 25.7675 11.877 25.7675 13.4865V17.057H31.3175L30.596 22.607H25.7675V37H35.2025C35.4698 37 35.7344 36.9474 35.9813 36.8451C36.2282 36.7428 36.4525 36.5929 36.6415 36.404C36.8305 36.215 36.9804 35.9907 37.0826 35.7438C37.1849 35.4969 37.2375 35.2322 37.2375 34.965V2.035C37.2375 1.76776 37.1849 1.50314 37.0826 1.25624C36.9804 1.00934 36.8305 0.785005 36.6415 0.596038C36.4525 0.407071 36.2282 0.257174 35.9813 0.154905C35.7344 0.052637 35.4698 0 35.2025 0V0Z" fill="white"/>
<path d="M18.2375 63.25C16.4575 63.25 14.7175 63.7925 13.2374 64.8089C11.7574 65.8253 10.6038 67.27 9.92263 68.9602C9.24144 70.6504 9.06321 72.5103 9.41048 74.3046C9.75775 76.0989 10.6149 77.7471 11.8736 79.0407C13.1323 80.3344 14.7359 81.2154 16.4817 81.5723C18.2276 81.9292 20.0372 81.746 21.6817 81.0459C23.3262 80.3458 24.7318 79.1602 25.7208 77.639C26.7097 76.1179 27.2375 74.3295 27.2375 72.5C27.2375 70.0467 26.2893 67.694 24.6015 65.9593C22.9137 64.2246 20.6245 63.25 18.2375 63.25V63.25ZM18.2375 78.05C17.1695 78.05 16.1255 77.7245 15.2375 77.1147C14.3494 76.5048 13.6573 75.638 13.2486 74.6239C12.8399 73.6098 12.7329 72.4938 12.9413 71.4172C13.1497 70.3407 13.664 69.3517 14.4192 68.5756C15.1744 67.7994 16.1366 67.2708 17.1841 67.0566C18.2316 66.8425 19.3173 66.9524 20.304 67.3725C21.2908 67.7925 22.1341 68.5039 22.7275 69.4166C23.3208 70.3293 23.6375 71.4023 23.6375 72.5C23.6375 73.972 23.0686 75.3836 22.0559 76.4244C21.0432 77.4653 19.6697 78.05 18.2375 78.05ZM27.2375 61.4C26.8815 61.4 26.5335 61.5085 26.2375 61.7118C25.9415 61.9151 25.7108 62.204 25.5746 62.542C25.4383 62.8801 25.4027 63.2521 25.4721 63.6109C25.5416 63.9698 25.713 64.2994 25.9648 64.5581C26.2165 64.8169 26.5372 64.9931 26.8864 65.0645C27.2355 65.1358 27.5975 65.0992 27.9264 64.9592C28.2553 64.8192 28.5364 64.582 28.7342 64.2778C28.932 63.9736 29.0375 63.6159 29.0375 63.25C29.0375 62.7593 28.8479 62.2888 28.5103 61.9419C28.1728 61.5949 27.7149 61.4 27.2375 61.4ZM36.1295 65.544C36.0997 63.963 35.8075 62.3989 35.2655 60.919C34.763 59.5723 33.9904 58.3493 32.9981 57.3294C32.0058 56.3095 30.8158 55.5156 29.5055 54.999C28.0656 54.442 26.5438 54.1417 25.0055 54.111C23.2595 54 22.6835 54 18.2375 54C13.7915 54 13.2155 54 11.4695 54.111C9.93131 54.1417 8.40945 54.442 6.96955 54.999C5.65927 55.5156 4.46933 56.3095 3.477 57.3294C2.48468 58.3493 1.71214 59.5723 1.20955 60.919C0.667567 62.3989 0.375371 63.963 0.345549 65.544C0.237549 67.357 0.237549 67.949 0.237549 72.5C0.237549 77.051 0.237549 77.643 0.345549 79.456C0.375371 81.037 0.667567 82.6011 1.20955 84.081C1.71214 85.4277 2.48468 86.6507 3.477 87.6706C4.46933 88.6905 5.65927 89.4844 6.96955 90.001C8.40945 90.558 9.93131 90.8584 11.4695 90.889C13.2695 90.889 13.7915 91 18.2375 91C22.6835 91 23.2595 91 25.0055 90.889C26.5438 90.8584 28.0656 90.558 29.5055 90.001C30.8158 89.4844 32.0058 88.6905 32.9981 87.6706C33.9904 86.6507 34.763 85.4277 35.2655 84.081C35.8075 82.6011 36.0997 81.037 36.1295 79.456C36.1295 77.606 36.2375 77.051 36.2375 72.5C36.2375 67.949 36.2375 67.357 36.1295 65.544ZM32.5295 79.2895C32.498 80.4635 32.2854 81.625 31.8995 82.7305C31.5806 83.6043 31.0764 84.3943 30.4235 85.043C29.7961 85.7143 29.026 86.2272 28.1735 86.5415C27.0954 86.9542 25.9578 87.1793 24.8075 87.2075C23.1155 87.2075 22.5935 87.3 18.2195 87.3C13.8455 87.3 13.3415 87.3 11.6495 87.3C10.5012 87.2695 9.3649 87.0509 8.28355 86.6525C7.43333 86.3247 6.66476 85.8065 6.03355 85.1355C5.38043 84.4906 4.8814 83.6991 4.57555 82.823C4.1756 81.7208 3.95662 80.558 3.92755 79.382C3.92755 77.532 3.92755 77.0695 3.92755 72.5925C3.92755 68.1155 3.92755 67.579 3.92755 65.803C3.95858 64.6212 4.17746 63.4526 4.57555 62.3435C4.88615 61.4752 5.38471 60.6907 6.03355 60.0495C6.66098 59.3782 7.43108 58.8654 8.28355 58.551C9.36173 58.1383 10.4993 57.9132 11.6495 57.885C13.3415 57.7 13.8635 57.7 18.2375 57.7C22.6115 57.7 23.1335 57.7 24.8255 57.7C25.9814 57.7302 27.1246 57.9552 28.2095 58.366C29.0544 58.6852 29.8176 59.1976 30.4415 59.8645C31.0947 60.5094 31.5937 61.3009 31.8995 62.177C32.3402 63.3028 32.5898 64.498 32.6375 65.7105C32.6375 67.5605 32.7275 68.023 32.7275 72.5C32.7275 76.977 32.6375 77.5135 32.6375 79.2895H32.5295Z" fill="white"/>
<path d="M34.5016 108H2.97346C2.61906 107.995 2.26715 108.06 1.93785 108.19C1.60854 108.321 1.30828 108.514 1.05422 108.76C0.800164 109.005 0.597278 109.298 0.457151 109.622C0.317025 109.946 0.242403 110.293 0.237549 110.646V142.354C0.242403 142.707 0.317025 143.054 0.457151 143.378C0.597278 143.702 0.800164 143.995 1.05422 144.24C1.30828 144.486 1.60854 144.679 1.93785 144.81C2.26715 144.94 2.61906 145.005 2.97346 145H34.5016C34.856 145.005 35.2079 144.94 35.5372 144.81C35.8666 144.679 36.1668 144.486 36.4209 144.24C36.6749 143.995 36.8778 143.702 37.0179 143.378C37.1581 143.054 37.2327 142.707 37.2375 142.354V110.646C37.2327 110.293 37.1581 109.946 37.0179 109.622C36.8778 109.298 36.6749 109.005 36.4209 108.76C36.1668 108.514 35.8666 108.321 35.5372 108.19C35.2079 108.06 34.856 107.995 34.5016 108V108ZM11.4604 138.969H5.87689V122.319H11.4604V138.969ZM8.66864 119.988C7.8986 119.988 7.1601 119.684 6.61561 119.143C6.07111 118.602 5.76522 117.868 5.76522 117.102C5.76522 116.337 6.07111 115.603 6.61561 115.061C7.1601 114.52 7.8986 114.216 8.66864 114.216C9.07753 114.17 9.4916 114.21 9.88374 114.334C10.2759 114.458 10.6373 114.663 10.9442 114.936C11.2511 115.208 11.4967 115.542 11.6649 115.915C11.833 116.289 11.9199 116.693 11.9199 117.102C11.9199 117.511 11.833 117.916 11.6649 118.289C11.4967 118.662 11.2511 118.996 10.9442 119.269C10.6373 119.541 10.2759 119.746 9.88374 119.87C9.4916 119.994 9.07753 120.034 8.66864 119.988V119.988ZM31.5982 138.969H26.0147V130.033C26.0147 127.795 25.2144 126.334 23.1857 126.334C22.5579 126.338 21.9466 126.534 21.4341 126.894C20.9216 127.255 20.5326 127.763 20.3195 128.35C20.1739 128.785 20.1108 129.243 20.1334 129.7V138.95H14.5499C14.5499 138.95 14.5499 123.818 14.5499 122.301H20.1334V124.65C20.6406 123.775 21.3784 123.054 22.2671 122.565C23.1559 122.076 24.162 121.838 25.1772 121.875C28.8995 121.875 31.5982 124.262 31.5982 129.386V138.969Z" fill="white"/>
<rect y="162" width="37.3672" height="37.3672" rx="4" fill="white"/>
<path d="M31.467 173.036C30.4815 173.456 29.4392 173.734 28.3727 173.86C29.4979 173.2 30.3411 172.16 30.7459 170.935C29.6885 171.554 28.5311 171.99 27.3238 172.224C26.5169 171.364 25.4423 170.791 24.2686 170.596C23.095 170.401 21.8886 170.594 20.8387 171.146C19.7888 171.697 18.9548 172.575 18.4674 173.642C17.9801 174.71 17.867 175.906 18.1459 177.043C16.008 176.937 13.9168 176.39 12.0081 175.437C10.0993 174.485 8.41581 173.149 7.06686 171.515C6.59372 172.327 6.3451 173.247 6.34573 174.182C6.34406 175.051 6.56104 175.907 6.97738 176.674C7.39371 177.44 7.99647 178.094 8.73199 178.576C7.8771 178.553 7.04048 178.328 6.29329 177.919V177.983C6.2997 179.201 6.73382 180.379 7.52223 181.318C8.31064 182.257 9.40494 182.9 10.62 183.137C10.1523 183.277 9.66666 183.351 9.17778 183.356C8.83936 183.353 8.50179 183.322 8.16821 183.266C8.51423 184.314 9.18384 185.229 10.0839 185.885C10.9839 186.54 12.0696 186.904 13.1898 186.926C11.2981 188.388 8.9626 189.187 6.55552 189.193C6.11725 189.195 5.67933 189.169 5.24438 189.116C7.702 190.675 10.566 191.503 13.4914 191.5C15.5101 191.52 17.5128 191.145 19.3825 190.397C21.2521 189.648 22.9512 188.541 24.3806 187.14C25.81 185.739 26.9409 184.072 27.7074 182.237C28.4739 180.401 28.8605 178.434 28.8447 176.45C28.8447 176.231 28.8447 175.999 28.8447 175.767C29.8736 175.013 30.7609 174.089 31.467 173.036V173.036Z" fill="#FF1976"/>
</svg>
