<svg width="1440" height="999" viewBox="0 0 1440 999" fill="none" xmlns="http://www.w3.org/2000/svg">
<mask id="mask0_107_1604" style="mask-type:alpha" maskUnits="userSpaceOnUse" x="0" y="0" width="1440" height="999">
<rect width="1440" height="999" fill="#F1F1F1"/>
</mask>
<g mask="url(#mask0_107_1604)">
<path d="M-40.635 -19.0435C-21.5868 -24.1475 -4.96575 -22.9967 9.22804 -15.5912C23.6086 -8.23578 33.2257 4.49921 38.0795 22.6137C43.1334 41.4753 40.9605 57.2693 31.5606 69.996C22.1607 82.7226 7.56316 91.738 -12.2321 97.0421L-7.42297 119.472L-35.155 126.903L-48.3398 83.2989L-39.0958 80.822C-20.9812 75.9682 -7.81241 69.8376 0.410708 62.4302C8.82058 54.9727 11.1991 44.4277 7.54626 30.7951C4.89419 20.8975 -0.0770113 13.923 -7.36736 9.87182C-14.471 5.77056 -23.0649 5.07098 -33.1493 7.77308C-43.2337 10.4752 -50.4449 15.3097 -54.783 22.2766C-59.121 29.2435 -59.989 37.5823 -57.387 47.2932L-87.36 55.3245C-90.3623 44.1196 -90.5183 33.4531 -87.828 23.3249C-85.1376 13.1967 -79.7742 4.45389 -71.7379 -2.90348C-63.5147 -10.3109 -53.1471 -15.6909 -40.635 -19.0435ZM-5.12128 185.207C-10.9105 186.758 -16.2913 186.098 -21.2638 183.227C-26.2363 180.356 -29.4982 176.026 -31.0494 170.237C-32.6006 164.448 -31.9408 159.067 -29.0699 154.095C-26.199 149.122 -21.869 145.86 -16.0798 144.309C-10.4774 142.808 -5.18989 143.493 -0.217371 146.364C4.75515 149.234 8.01701 153.565 9.56822 159.354C11.1194 165.143 10.4596 170.524 7.5887 175.496C4.71781 180.469 0.481155 183.706 -5.12128 185.207Z" fill="#EAEAEA"/>
<path d="M134.624 -66.004C153.673 -71.108 170.294 -69.9572 184.487 -62.5517C198.868 -55.1962 208.485 -42.4612 213.339 -24.3467C218.393 -5.48518 216.22 10.3089 206.82 23.0355C197.42 35.7621 182.822 44.7775 163.027 50.0816L167.836 72.5115L140.104 79.9422L126.92 36.3384L136.164 33.8615C154.278 29.0077 167.447 22.8771 175.67 15.4697C184.08 8.01226 186.458 -2.53276 182.806 -16.1653C180.153 -26.063 175.182 -33.0374 167.892 -37.0886C160.788 -41.1899 152.194 -41.8895 142.11 -39.1874C132.026 -36.4853 124.814 -31.6508 120.476 -24.6839C116.138 -17.717 115.27 -9.3781 117.872 0.332773L87.8993 8.36402C84.8969 -2.84085 84.7409 -13.5074 87.4313 -23.6356C90.1217 -33.7638 95.485 -42.5066 103.521 -49.8639C111.745 -57.2714 122.112 -62.6514 134.624 -66.004ZM170.138 138.246C164.349 139.798 158.968 139.138 153.995 136.267C149.023 133.396 145.761 129.066 144.21 123.277C142.659 117.488 143.318 112.107 146.189 107.134C149.06 102.162 153.39 98.8998 159.179 97.3486C164.782 95.8474 170.069 96.5322 175.042 99.4031C180.014 102.274 183.276 106.604 184.827 112.393C186.379 118.182 185.719 123.563 182.848 128.536C179.977 133.508 175.74 136.745 170.138 138.246Z" fill="#EAEAEA"/>
<path d="M309.883 -112.964C328.932 -118.068 345.553 -116.918 359.746 -109.512C374.127 -102.157 383.744 -89.4217 388.598 -71.3072C393.652 -52.4456 391.479 -36.6516 382.079 -23.9249C372.679 -11.1983 358.082 -2.18295 338.286 3.12118L343.095 25.551L315.363 32.9818L302.179 -10.622L311.423 -13.0989C329.537 -17.9527 342.706 -24.0833 350.929 -31.4907C359.339 -38.9482 361.717 -49.4932 358.065 -63.1258C355.413 -73.0234 350.441 -79.9979 343.151 -84.0491C336.047 -88.1503 327.453 -88.8499 317.369 -86.1478C307.285 -83.4457 300.073 -78.6112 295.735 -71.6443C291.397 -64.6774 290.529 -56.3386 293.131 -46.6277L263.158 -38.5964C260.156 -49.8013 260 -60.4678 262.69 -70.596C265.381 -80.7242 270.744 -89.467 278.781 -96.8244C287.004 -104.232 297.371 -109.612 309.883 -112.964ZM345.397 91.2859C339.608 92.8371 334.227 92.1772 329.255 89.3063C324.282 86.4355 321.02 82.1054 319.469 76.3162C317.918 70.5271 318.578 65.1462 321.448 60.1737C324.319 55.2012 328.649 51.9393 334.439 50.3881C340.041 48.8869 345.328 49.5718 350.301 52.4427C355.274 55.3136 358.535 59.6436 360.087 65.4328C361.638 71.222 360.978 76.6028 358.107 81.5753C355.236 86.5478 351 89.7847 345.397 91.2859Z" fill="#EAEAEA"/>
<path d="M485.142 -159.925C504.191 -165.029 520.812 -163.879 535.006 -156.473C549.386 -149.118 559.003 -136.383 563.857 -118.268C568.911 -99.4066 566.738 -83.6125 557.338 -70.8859C547.938 -58.1593 533.341 -49.1439 513.545 -43.8398L518.355 -21.4099L490.623 -13.9791L477.438 -57.5829L486.682 -60.0599C504.796 -64.9136 517.965 -71.0442 526.188 -78.4517C534.598 -85.9091 536.977 -96.4541 533.324 -110.087C530.672 -119.984 525.701 -126.959 518.41 -131.01C511.307 -135.111 502.713 -135.811 492.628 -133.109C482.544 -130.407 475.333 -125.572 470.995 -118.605C466.657 -111.638 465.789 -103.299 468.391 -93.5886L438.418 -85.5574C435.415 -96.7622 435.259 -107.429 437.95 -117.557C440.64 -127.685 446.003 -136.428 454.04 -143.785C462.263 -151.193 472.63 -156.573 485.142 -159.925ZM520.656 44.3249C514.867 45.8761 509.486 45.2163 504.514 42.3454C499.541 39.4745 496.279 35.1445 494.728 29.3553C493.177 23.5661 493.837 18.1853 496.708 13.2128C499.579 8.24024 503.909 4.97837 509.698 3.42717C515.3 1.926 520.588 2.61086 525.56 5.48175C530.533 8.35263 533.795 12.6827 535.346 18.4718C536.897 24.261 536.237 29.6419 533.366 34.6144C530.495 39.5869 526.259 42.8238 520.656 44.3249Z" fill="#EAEAEA"/>
<path d="M660.402 -206.886C679.45 -211.99 696.071 -210.839 710.265 -203.434C724.645 -196.078 734.262 -183.343 739.116 -165.229C744.17 -146.367 741.997 -130.573 732.597 -117.846C723.197 -105.12 708.6 -96.1043 688.805 -90.8002L693.614 -68.3704L665.882 -60.9396L652.697 -104.543L661.941 -107.02C680.055 -111.874 693.224 -118.005 701.447 -125.412C709.857 -132.87 712.236 -143.415 708.583 -157.047C705.931 -166.945 700.96 -173.919 693.669 -177.97C686.566 -182.072 677.972 -182.771 667.887 -180.069C657.803 -177.367 650.592 -172.533 646.254 -165.566C641.916 -158.599 641.048 -150.26 643.65 -140.549L613.677 -132.518C610.674 -143.723 610.518 -154.389 613.209 -164.517C615.899 -174.646 621.262 -183.388 629.299 -190.746C637.522 -198.153 647.89 -203.533 660.402 -206.886ZM695.915 -2.63553C690.126 -1.08432 684.745 -1.74416 679.773 -4.61505C674.8 -7.48593 671.538 -11.816 669.987 -17.6051C668.436 -23.3943 669.096 -28.7752 671.967 -33.7477C674.838 -38.7202 679.168 -41.9821 684.957 -43.5333C690.559 -45.0344 695.847 -44.3496 700.819 -41.4787C705.792 -38.6078 709.054 -34.2778 710.605 -28.4886C712.156 -22.6994 711.496 -17.3186 708.625 -12.3461C705.754 -7.37354 701.518 -4.1367 695.915 -2.63553Z" fill="#EAEAEA"/>
<path d="M91.8714 475.477C110.92 470.373 127.541 471.524 141.735 478.929C156.115 486.285 165.732 499.02 170.586 517.134C175.64 535.996 173.467 551.79 164.067 564.516C154.667 577.243 140.07 586.258 120.274 591.563L125.083 613.992L97.3515 621.423L84.1667 577.819L93.4107 575.342C111.525 570.489 124.694 564.358 132.917 556.951C141.327 549.493 143.706 538.948 140.053 525.316C137.401 515.418 132.429 508.444 125.139 504.392C118.036 500.291 109.442 499.591 99.3572 502.294C89.2728 504.996 82.0616 509.83 77.7235 516.797C73.3855 523.764 72.5174 532.103 75.1195 541.814L45.1465 549.845C42.1441 538.64 41.9881 527.974 44.6785 517.845C47.3689 507.717 52.7322 498.974 60.7686 491.617C68.9917 484.21 79.3593 478.83 91.8714 475.477ZM127.385 679.727C121.596 681.278 116.215 680.619 111.243 677.748C106.27 674.877 103.008 670.547 101.457 664.758C99.9059 658.968 100.566 653.588 103.437 648.615C106.307 643.643 110.637 640.381 116.427 638.83C122.029 637.328 127.317 638.013 132.289 640.884C137.262 643.755 140.523 648.085 142.075 653.874C143.626 659.663 142.966 665.044 140.095 670.017C137.224 674.989 132.988 678.226 127.385 679.727Z" fill="#EAEAEA"/>
<path d="M267.131 428.517C286.179 423.413 302.8 424.563 316.994 431.969C331.374 439.324 340.991 452.059 345.845 470.174C350.899 489.035 348.726 504.829 339.326 517.556C329.926 530.283 315.329 539.298 295.534 544.602L300.343 567.032L272.611 574.463L259.426 530.859L268.67 528.382C286.784 523.528 299.953 517.398 308.176 509.99C316.586 502.533 318.965 491.988 315.312 478.355C312.66 468.458 307.689 461.483 300.398 457.432C293.295 453.331 284.701 452.631 274.616 455.333C264.532 458.035 257.321 462.87 252.983 469.837C248.645 476.804 247.777 485.142 250.379 494.853L220.406 502.885C217.403 491.68 217.247 481.013 219.938 470.885C222.628 460.757 227.991 452.014 236.028 444.657C244.251 437.249 254.618 431.869 267.131 428.517ZM302.644 632.767C296.855 634.318 291.474 633.658 286.502 630.787C281.529 627.916 278.267 623.586 276.716 617.797C275.165 612.008 275.825 606.627 278.696 601.655C281.567 596.682 285.897 593.42 291.686 591.869C297.288 590.368 302.576 591.053 307.548 593.924C312.521 596.795 315.783 601.125 317.334 606.914C318.885 612.703 318.225 618.084 315.354 623.056C312.483 628.029 308.247 631.266 302.644 632.767Z" fill="#EAEAEA"/>
<path d="M442.39 381.556C461.438 376.452 478.059 377.602 492.253 385.008C506.633 392.363 516.25 405.098 521.104 423.213C526.158 442.074 523.985 457.868 514.585 470.595C505.185 483.322 490.588 492.337 470.793 497.641L475.602 520.071L447.87 527.502L434.685 483.898L443.929 481.421C462.043 476.567 475.212 470.437 483.435 463.029C491.845 455.572 494.224 445.027 490.571 431.394C487.919 421.497 482.948 414.522 475.657 410.471C468.554 406.37 459.96 405.67 449.875 408.372C439.791 411.074 432.58 415.909 428.242 422.876C423.904 429.843 423.036 438.181 425.638 447.892L395.665 455.924C392.662 444.719 392.506 434.052 395.197 423.924C397.887 413.796 403.25 405.053 411.287 397.696C419.51 390.288 429.878 384.908 442.39 381.556ZM477.903 585.806C472.114 587.357 466.733 586.697 461.761 583.826C456.788 580.955 453.527 576.625 451.975 570.836C450.424 565.047 451.084 559.666 453.955 554.694C456.826 549.721 461.156 546.459 466.945 544.908C472.547 543.407 477.835 544.092 482.807 546.963C487.78 549.834 491.042 554.164 492.593 559.953C494.144 565.742 493.484 571.123 490.613 576.095C487.743 581.068 483.506 584.305 477.903 585.806Z" fill="#EAEAEA"/>
<path d="M617.649 334.595C636.697 329.491 653.318 330.642 667.512 338.047C681.892 345.403 691.51 358.138 696.363 376.252C701.417 395.114 699.244 410.908 689.844 423.635C680.445 436.361 665.847 445.377 646.052 450.681L650.861 473.111L623.129 480.541L609.944 436.938L619.188 434.461C637.303 429.607 650.471 423.476 658.695 416.069C667.104 408.611 669.483 398.066 665.83 384.434C663.178 374.536 658.207 367.562 650.917 363.51C643.813 359.409 635.219 358.71 625.135 361.412C615.05 364.114 607.839 368.948 603.501 375.915C599.163 382.882 598.295 391.221 600.897 400.932L570.924 408.963C567.922 397.758 567.766 387.092 570.456 376.964C573.146 366.835 578.51 358.093 586.546 350.735C594.769 343.328 605.137 337.948 617.649 334.595ZM653.163 538.845C647.373 540.397 641.993 539.737 637.02 536.866C632.048 533.995 628.786 529.665 627.234 523.876C625.683 518.087 626.343 512.706 629.214 507.733C632.085 502.761 636.415 499.499 642.204 497.948C647.807 496.447 653.094 497.131 658.067 500.002C663.039 502.873 666.301 507.203 667.852 512.992C669.403 518.782 668.743 524.162 665.873 529.135C663.002 534.107 658.765 537.344 653.163 538.845Z" fill="#EAEAEA"/>
<path d="M792.908 287.635C811.956 282.531 828.577 283.681 842.771 291.087C857.152 298.442 866.769 311.177 871.623 329.292C876.677 348.153 874.504 363.948 865.104 376.674C855.704 389.401 841.106 398.416 821.311 403.72L826.12 426.15L798.388 433.581L785.203 389.977L794.447 387.5C812.562 382.646 825.731 376.516 833.954 369.108C842.364 361.651 844.742 351.106 841.089 337.473C838.437 327.576 833.466 320.601 826.176 316.55C819.072 312.449 810.478 311.749 800.394 314.451C790.309 317.153 783.098 321.988 778.76 328.955C774.422 335.922 773.554 344.261 776.156 353.971L746.183 362.003C743.181 350.798 743.025 340.131 745.715 330.003C748.406 319.875 753.769 311.132 761.805 303.775C770.028 296.367 780.396 290.987 792.908 287.635ZM828.422 491.885C822.633 493.436 817.252 492.776 812.279 489.905C807.307 487.035 804.045 482.705 802.494 476.915C800.943 471.126 801.602 465.745 804.473 460.773C807.344 455.8 811.674 452.538 817.463 450.987C823.066 449.486 828.353 450.171 833.326 453.042C838.298 455.913 841.56 460.243 843.111 466.032C844.663 471.821 844.003 477.202 841.132 482.174C838.261 487.147 834.024 490.384 828.422 491.885Z" fill="#EAEAEA"/>
<path d="M968.167 240.674C987.215 235.57 1003.84 236.721 1018.03 244.127C1032.41 251.482 1042.03 264.217 1046.88 282.332C1051.94 301.193 1049.76 316.987 1040.36 329.714C1030.96 342.44 1016.37 351.456 996.57 356.76L1001.38 379.19L973.647 386.62L960.462 343.017L969.706 340.54C987.821 335.686 1000.99 329.555 1009.21 322.148C1017.62 314.69 1020 304.145 1016.35 290.513C1013.7 280.615 1008.73 273.641 1001.43 269.59C994.331 265.488 985.737 264.789 975.653 267.491C965.568 270.193 958.357 275.027 954.019 281.994C949.681 288.961 948.813 297.3 951.415 307.011L921.442 315.042C918.44 303.837 918.284 293.171 920.974 283.043C923.665 272.914 929.028 264.172 937.064 256.814C945.287 249.407 955.655 244.027 968.167 240.674ZM1003.68 444.925C997.892 446.476 992.511 445.816 987.538 442.945C982.566 440.074 979.304 435.744 977.753 429.955C976.202 424.166 976.861 418.785 979.732 413.812C982.603 408.84 986.933 405.578 992.722 404.027C998.325 402.526 1003.61 403.21 1008.58 406.081C1013.56 408.952 1016.82 413.282 1018.37 419.071C1019.92 424.861 1019.26 430.241 1016.39 435.214C1013.52 440.187 1009.28 443.423 1003.68 444.925Z" fill="#EAEAEA"/>
<path d="M1143.43 193.714C1162.47 188.61 1179.1 189.761 1193.29 197.166C1207.67 204.522 1217.29 217.257 1222.14 235.371C1227.19 254.233 1225.02 270.027 1215.62 282.753C1206.22 295.48 1191.62 304.495 1171.83 309.799L1176.64 332.229L1148.91 339.66L1135.72 296.056L1144.97 293.579C1163.08 288.726 1176.25 282.595 1184.47 275.188C1192.88 267.73 1195.26 257.185 1191.61 243.552C1188.96 233.655 1183.98 226.68 1176.69 222.629C1169.59 218.528 1161 217.828 1150.91 220.53C1140.83 223.233 1133.62 228.067 1129.28 235.034C1124.94 242.001 1124.07 250.34 1126.67 260.051L1096.7 268.082C1093.7 256.877 1093.54 246.21 1096.23 236.082C1098.92 225.954 1104.29 217.211 1112.32 209.854C1120.55 202.446 1130.91 197.066 1143.43 193.714ZM1178.94 397.964C1173.15 399.515 1167.77 398.855 1162.8 395.985C1157.82 393.114 1154.56 388.784 1153.01 382.994C1151.46 377.205 1152.12 371.824 1154.99 366.852C1157.86 361.879 1162.19 358.618 1167.98 357.066C1173.58 355.565 1178.87 356.25 1183.84 359.121C1188.82 361.992 1192.08 366.322 1193.63 372.111C1195.18 377.9 1194.52 383.281 1191.65 388.254C1188.78 393.226 1184.54 396.463 1178.94 397.964Z" fill="#EAEAEA"/>
<path d="M1318.69 146.753C1337.73 141.649 1354.35 142.8 1368.55 150.206C1382.93 157.561 1392.55 170.296 1397.4 188.411C1402.45 207.272 1400.28 223.066 1390.88 235.793C1381.48 248.519 1366.88 257.535 1347.09 262.839L1351.9 285.269L1324.17 292.7L1310.98 249.096L1320.22 246.619C1338.34 241.765 1351.51 235.634 1359.73 228.227C1368.14 220.77 1370.52 210.225 1366.87 196.592C1364.21 186.694 1359.24 179.72 1351.95 175.669C1344.85 171.567 1336.26 170.868 1326.17 173.57C1316.09 176.272 1308.88 181.107 1304.54 188.073C1300.2 195.04 1299.33 203.379 1301.93 213.09L1271.96 221.121C1268.96 209.916 1268.8 199.25 1271.49 189.122C1274.18 178.994 1279.55 170.251 1287.58 162.893C1295.81 155.486 1306.17 150.106 1318.69 146.753ZM1354.2 351.004C1348.41 352.555 1343.03 351.895 1338.06 349.024C1333.08 346.153 1329.82 341.823 1328.27 336.034C1326.72 330.245 1327.38 324.864 1330.25 319.891C1333.12 314.919 1337.45 311.657 1343.24 310.106C1348.84 308.605 1354.13 309.29 1359.1 312.16C1364.08 315.031 1367.34 319.361 1368.89 325.151C1370.44 330.94 1369.78 336.321 1366.91 341.293C1364.04 346.266 1359.8 349.502 1354.2 351.004Z" fill="#EAEAEA"/>
<path d="M1493.94 99.7929C1512.99 94.6889 1529.61 95.8397 1543.81 103.245C1558.19 110.601 1567.81 123.336 1572.66 141.45C1577.71 160.312 1575.54 176.106 1566.14 188.832C1556.74 201.559 1542.14 210.574 1522.35 215.879L1527.16 238.308L1499.42 245.739L1486.24 202.135L1495.48 199.658C1513.6 194.805 1526.77 188.674 1534.99 181.267C1543.4 173.809 1545.78 163.264 1542.13 149.632C1539.47 139.734 1534.5 132.759 1527.21 128.708C1520.11 124.607 1511.51 123.907 1501.43 126.61C1491.35 129.312 1484.13 134.146 1479.8 141.113C1475.46 148.08 1474.59 156.419 1477.19 166.13L1447.22 174.161C1444.22 162.956 1444.06 152.29 1446.75 142.161C1449.44 132.033 1454.81 123.29 1462.84 115.933C1471.07 108.526 1481.43 103.145 1493.94 99.7929ZM1529.46 304.043C1523.67 305.594 1518.29 304.935 1513.32 302.064C1508.34 299.193 1505.08 294.863 1503.53 289.074C1501.98 283.284 1502.64 277.904 1505.51 272.931C1508.38 267.958 1512.71 264.697 1518.5 263.145C1524.1 261.644 1529.39 262.329 1534.36 265.2C1539.34 268.071 1542.6 272.401 1544.15 278.19C1545.7 283.979 1545.04 289.36 1542.17 294.333C1539.3 299.305 1535.06 302.542 1529.46 304.043Z" fill="#EAEAEA"/>
<path d="M224.378 969.998C243.426 964.894 260.047 966.045 274.241 973.451C288.622 980.806 298.239 993.541 303.092 1011.66C308.146 1030.52 305.973 1046.31 296.574 1059.04C287.174 1071.76 272.576 1080.78 252.781 1086.08L257.59 1108.51L229.858 1115.94L216.673 1072.34L225.917 1069.86C244.032 1065.01 257.201 1058.88 265.424 1051.47C273.834 1044.01 276.212 1033.47 272.559 1019.84C269.907 1009.94 264.936 1002.97 257.646 998.914C250.542 994.813 241.948 994.113 231.864 996.815C221.779 999.517 214.568 1004.35 210.23 1011.32C205.892 1018.29 205.024 1026.62 207.626 1036.34L177.653 1044.37C174.651 1033.16 174.495 1022.5 177.185 1012.37C179.875 1002.24 185.239 993.496 193.275 986.139C201.498 978.731 211.866 973.351 224.378 969.998ZM259.892 1174.25C254.102 1175.8 248.722 1175.14 243.749 1172.27C238.777 1169.4 235.515 1165.07 233.964 1159.28C232.412 1153.49 233.072 1148.11 235.943 1143.14C238.814 1138.16 243.144 1134.9 248.933 1133.35C254.536 1131.85 259.823 1132.53 264.796 1135.41C269.768 1138.28 273.03 1142.61 274.581 1148.4C276.132 1154.18 275.473 1159.57 272.602 1164.54C269.731 1169.51 265.494 1172.75 259.892 1174.25Z" fill="#EAEAEA"/>
<path d="M399.637 923.038C418.685 917.934 435.306 919.085 449.5 926.49C463.881 933.846 473.498 946.581 478.352 964.695C483.406 983.557 481.233 999.351 471.833 1012.08C462.433 1024.8 447.835 1033.82 428.04 1039.12L432.849 1061.55L405.117 1068.98L391.932 1025.38L401.176 1022.9C419.291 1018.05 432.46 1011.92 440.683 1004.51C449.093 997.054 451.471 986.509 447.818 972.877C445.166 962.979 440.195 956.005 432.905 951.953C425.801 947.852 417.207 947.153 407.123 949.855C397.038 952.557 389.827 957.391 385.489 964.358C381.151 971.325 380.283 979.664 382.885 989.375L352.912 997.406C349.91 986.201 349.754 975.535 352.444 965.406C355.135 955.278 360.498 946.535 368.534 939.178C376.757 931.771 387.125 926.391 399.637 923.038ZM435.151 1127.29C429.362 1128.84 423.981 1128.18 419.008 1125.31C414.036 1122.44 410.774 1118.11 409.223 1112.32C407.672 1106.53 408.331 1101.15 411.202 1096.18C414.073 1091.2 418.403 1087.94 424.192 1086.39C429.795 1084.89 435.082 1085.57 440.055 1088.45C445.027 1091.32 448.289 1095.65 449.84 1101.44C451.392 1107.22 450.732 1112.61 447.861 1117.58C444.99 1122.55 440.753 1125.79 435.151 1127.29Z" fill="#EAEAEA"/>
<path d="M574.896 876.077C593.945 870.973 610.566 872.124 624.759 879.529C639.14 886.885 648.757 899.62 653.611 917.734C658.665 936.596 656.492 952.39 647.092 965.117C637.692 977.843 623.094 986.859 603.299 992.163L608.108 1014.59L580.376 1022.02L567.192 978.419L576.436 975.943C594.55 971.089 607.719 964.958 615.942 957.551C624.352 950.093 626.73 939.548 623.078 925.916C620.426 916.018 615.454 909.044 608.164 904.992C601.06 900.891 592.466 900.192 582.382 902.894C572.298 905.596 565.086 910.43 560.748 917.397C556.41 924.364 555.542 932.703 558.144 942.414L528.171 950.445C525.169 939.24 525.013 928.574 527.703 918.445C530.394 908.317 535.757 899.574 543.793 892.217C552.017 884.81 562.384 879.43 574.896 876.077ZM610.41 1080.33C604.621 1081.88 599.24 1081.22 594.267 1078.35C589.295 1075.48 586.033 1071.15 584.482 1065.36C582.931 1059.57 583.591 1054.19 586.461 1049.22C589.332 1044.24 593.662 1040.98 599.452 1039.43C605.054 1037.93 610.341 1038.61 615.314 1041.48C620.286 1044.36 623.548 1048.69 625.1 1054.47C626.651 1060.26 625.991 1065.64 623.12 1070.62C620.249 1075.59 616.012 1078.83 610.41 1080.33Z" fill="#EAEAEA"/>
<path d="M750.155 829.116C769.204 824.012 785.825 825.163 800.019 832.568C814.399 839.924 824.016 852.659 828.87 870.773C833.924 889.635 831.751 905.429 822.351 918.156C812.951 930.882 798.354 939.898 778.558 945.202L783.367 967.632L755.635 975.062L742.451 931.459L751.695 928.982C769.809 924.128 782.978 917.997 791.201 910.59C799.611 903.132 801.99 892.587 798.337 878.955C795.685 869.057 790.713 862.083 783.423 858.031C776.32 853.93 767.726 853.231 757.641 855.933C747.557 858.635 740.346 863.469 736.008 870.436C731.669 877.403 730.801 885.742 733.403 895.453L703.43 903.484C700.428 892.279 700.272 881.613 702.962 871.485C705.653 861.356 711.016 852.614 719.053 845.256C727.276 837.849 737.643 832.469 750.155 829.116ZM785.669 1033.37C779.88 1034.92 774.499 1034.26 769.527 1031.39C764.554 1028.52 761.292 1024.19 759.741 1018.4C758.19 1012.61 758.85 1007.23 761.721 1002.25C764.591 997.282 768.921 994.02 774.711 992.469C780.313 990.968 785.601 991.652 790.573 994.523C795.546 997.394 798.807 1001.72 800.359 1007.51C801.91 1013.3 801.25 1018.68 798.379 1023.66C795.508 1028.63 791.272 1031.87 785.669 1033.37Z" fill="#EAEAEA"/>
<path d="M925.415 782.156C944.463 777.052 961.084 778.202 975.278 785.608C989.658 792.963 999.275 805.698 1004.13 823.813C1009.18 842.674 1007.01 858.469 997.61 871.195C988.21 883.922 973.613 892.937 953.818 898.241L958.627 920.671L930.895 928.102L917.71 884.498L926.954 882.021C945.068 877.167 958.237 871.037 966.46 863.629C974.87 856.172 977.249 845.627 973.596 831.994C970.944 822.097 965.973 815.122 958.682 811.071C951.579 806.97 942.985 806.27 932.9 808.972C922.816 811.674 915.605 816.509 911.267 823.476C906.929 830.443 906.061 838.782 908.663 848.492L878.69 856.524C875.687 845.319 875.531 834.652 878.222 824.524C880.912 814.396 886.275 805.653 894.312 798.296C902.535 790.888 912.902 785.508 925.415 782.156ZM960.928 986.406C955.139 987.957 949.758 987.297 944.786 984.426C939.813 981.556 936.551 977.226 935 971.436C933.449 965.647 934.109 960.266 936.98 955.294C939.851 950.321 944.181 947.059 949.97 945.508C955.572 944.007 960.86 944.692 965.832 947.563C970.805 950.434 974.067 954.764 975.618 960.553C977.169 966.342 976.509 971.723 973.638 976.695C970.767 981.668 966.531 984.905 960.928 986.406Z" fill="#EAEAEA"/>
<path d="M1100.67 735.195C1119.72 730.091 1136.34 731.242 1150.54 738.648C1164.92 746.003 1174.53 758.738 1179.39 776.853C1184.44 795.714 1182.27 811.508 1172.87 824.235C1163.47 836.961 1148.87 845.977 1129.08 851.281L1133.89 873.711L1106.15 881.141L1092.97 837.538L1102.21 835.061C1120.33 830.207 1133.5 824.076 1141.72 816.669C1150.13 809.211 1152.51 798.666 1148.86 785.034C1146.2 775.136 1141.23 768.162 1133.94 764.111C1126.84 760.009 1118.24 759.31 1108.16 762.012C1098.08 764.714 1090.86 769.548 1086.53 776.515C1082.19 783.482 1081.32 791.821 1083.92 801.532L1053.95 809.563C1050.95 798.358 1050.79 787.692 1053.48 777.564C1056.17 767.435 1061.53 758.693 1069.57 751.335C1077.79 743.928 1088.16 738.548 1100.67 735.195ZM1136.19 939.446C1130.4 940.997 1125.02 940.337 1120.05 937.466C1115.07 934.595 1111.81 930.265 1110.26 924.476C1108.71 918.687 1109.37 913.306 1112.24 908.333C1115.11 903.361 1119.44 900.099 1125.23 898.548C1130.83 897.047 1136.12 897.731 1141.09 900.602C1146.06 903.473 1149.33 907.803 1150.88 913.592C1152.43 919.382 1151.77 924.762 1148.9 929.735C1146.03 934.708 1141.79 937.944 1136.19 939.446Z" fill="#EAEAEA"/>
<path d="M1275.93 688.235C1294.98 683.131 1311.6 684.282 1325.8 691.687C1340.18 699.043 1349.79 711.778 1354.65 729.892C1359.7 748.754 1357.53 764.548 1348.13 777.274C1338.73 790.001 1324.13 799.016 1304.34 804.32L1309.14 826.75L1281.41 834.181L1268.23 790.577L1277.47 788.1C1295.59 783.247 1308.76 777.116 1316.98 769.708C1325.39 762.251 1327.77 751.706 1324.11 738.073C1321.46 728.176 1316.49 721.201 1309.2 717.15C1302.1 713.049 1293.5 712.349 1283.42 715.051C1273.33 717.754 1266.12 722.588 1261.78 729.555C1257.45 736.522 1256.58 744.861 1259.18 754.572L1229.21 762.603C1226.21 751.398 1226.05 740.731 1228.74 730.603C1231.43 720.475 1236.79 711.732 1244.83 704.375C1253.05 696.967 1263.42 691.587 1275.93 688.235ZM1311.45 892.485C1305.66 894.036 1300.28 893.376 1295.3 890.506C1290.33 887.635 1287.07 883.305 1285.52 877.515C1283.97 871.726 1284.63 866.345 1287.5 861.373C1290.37 856.4 1294.7 853.139 1300.49 851.587C1306.09 850.086 1311.38 850.771 1316.35 853.642C1321.32 856.513 1324.58 860.843 1326.14 866.632C1327.69 872.421 1327.03 877.802 1324.16 882.775C1321.29 887.747 1317.05 890.984 1311.45 892.485Z" fill="#EAEAEA"/>
<path d="M1451.19 641.274C1470.24 636.17 1486.86 637.321 1501.06 644.727C1515.44 652.082 1525.05 664.817 1529.91 682.932C1534.96 701.793 1532.79 717.587 1523.39 730.314C1513.99 743.04 1499.39 752.056 1479.6 757.36L1484.4 779.79L1456.67 787.221L1443.49 743.617L1452.73 741.14C1470.85 736.286 1484.01 730.155 1492.24 722.748C1500.65 715.291 1503.03 704.746 1499.37 691.113C1496.72 681.215 1491.75 674.241 1484.46 670.19C1477.36 666.088 1468.76 665.389 1458.68 668.091C1448.59 670.793 1441.38 675.628 1437.04 682.594C1432.71 689.561 1431.84 697.9 1434.44 707.611L1404.47 715.642C1401.46 704.437 1401.31 693.771 1404 683.643C1406.69 673.515 1412.05 664.772 1420.09 657.414C1428.31 650.007 1438.68 644.627 1451.19 641.274ZM1486.71 845.525C1480.92 847.076 1475.54 846.416 1470.56 843.545C1465.59 840.674 1462.33 836.344 1460.78 830.555C1459.23 824.766 1459.89 819.385 1462.76 814.412C1465.63 809.44 1469.96 806.178 1475.75 804.627C1481.35 803.126 1486.64 803.811 1491.61 806.681C1496.58 809.552 1499.84 813.882 1501.4 819.672C1502.95 825.461 1502.29 830.842 1499.42 835.814C1496.55 840.787 1492.31 844.023 1486.71 845.525Z" fill="#EAEAEA"/>
<path d="M-88.9336 242.759C-69.8854 237.655 -53.2643 238.806 -39.0705 246.211C-24.69 253.566 -15.0729 266.301 -10.2191 284.416C-5.16515 303.278 -7.33812 319.072 -16.738 331.798C-26.1379 344.525 -40.7354 353.54 -60.5307 358.844L-55.7216 381.274L-83.4536 388.705L-96.6384 345.101L-87.3943 342.624C-69.2798 337.77 -56.111 331.64 -47.8879 324.232C-39.478 316.775 -37.0995 306.23 -40.7523 292.597C-43.4044 282.7 -48.3756 275.725 -55.6659 271.674C-62.7695 267.573 -71.3635 266.873 -81.4479 269.575C-91.5323 272.277 -98.7435 277.112 -103.082 284.079C-107.42 291.046 -108.288 299.385 -105.686 309.095L-135.659 317.127C-138.661 305.922 -138.817 295.255 -136.127 285.127C-133.436 274.999 -128.073 266.256 -120.036 258.899C-111.813 251.491 -101.446 246.111 -88.9336 242.759ZM-53.4199 447.009C-59.209 448.56 -64.5899 447.9 -69.5624 445.029C-74.5349 442.159 -77.7968 437.829 -79.348 432.039C-80.8992 426.25 -80.2394 420.869 -77.3685 415.897C-74.4976 410.924 -70.1676 407.662 -64.3784 406.111C-58.7759 404.61 -53.4885 405.295 -48.516 408.166C-43.5434 411.037 -40.2816 415.367 -38.7304 421.156C-37.1792 426.945 -37.839 432.326 -40.7099 437.298C-43.5808 442.271 -47.8174 445.508 -53.4199 447.009Z" fill="#EAEAEA"/>
<path d="M86.3256 195.798C105.374 190.694 121.995 191.845 136.189 199.25C150.569 206.606 160.186 219.341 165.04 237.455C170.094 256.317 167.921 272.111 158.521 284.837C149.121 297.564 134.524 306.579 114.729 311.883L119.538 334.313L91.8056 341.744L78.6209 298.14L87.8649 295.663C105.979 290.81 119.148 284.679 127.371 277.271C135.781 269.814 138.16 259.269 134.507 245.636C131.855 235.739 126.884 228.764 119.593 224.713C112.49 220.612 103.896 219.912 93.8113 222.614C83.7269 225.316 76.5157 230.151 72.1777 237.118C67.8396 244.085 66.9716 252.424 69.5736 262.135L39.6006 270.166C36.5983 258.961 36.4423 248.294 39.1327 238.166C41.823 228.038 47.1864 219.295 55.2228 211.938C63.4459 204.53 73.8135 199.15 86.3256 195.798ZM121.839 400.048C116.05 401.599 110.669 400.939 105.697 398.069C100.724 395.198 97.4624 390.868 95.9112 385.078C94.36 379.289 95.0199 373.908 97.8907 368.936C100.762 363.963 105.092 360.702 110.881 359.15C116.483 357.649 121.771 358.334 126.743 361.205C131.716 364.076 134.978 368.406 136.529 374.195C138.08 379.984 137.42 385.365 134.549 390.338C131.678 395.31 127.442 398.547 121.839 400.048Z" fill="#EAEAEA"/>
<path d="M261.585 148.837C280.633 143.733 297.254 144.884 311.448 152.29C325.828 159.645 335.445 172.38 340.299 190.495C345.353 209.356 343.18 225.15 333.78 237.877C324.38 250.603 309.783 259.619 289.988 264.923L294.797 287.353L267.065 294.784L253.88 251.18L263.124 248.703C281.238 243.849 294.407 237.718 302.63 230.311C311.04 222.854 313.419 212.309 309.766 198.676C307.114 188.778 302.143 181.804 294.852 177.753C287.749 173.651 279.155 172.952 269.07 175.654C258.986 178.356 251.775 183.191 247.437 190.157C243.099 197.124 242.231 205.463 244.833 215.174L214.86 223.205C211.857 212 211.701 201.334 214.392 191.206C217.082 181.078 222.445 172.335 230.482 164.977C238.705 157.57 249.073 152.19 261.585 148.837ZM297.098 353.088C291.309 354.639 285.928 353.979 280.956 351.108C275.983 348.237 272.722 343.907 271.17 338.118C269.619 332.329 270.279 326.948 273.15 321.975C276.021 317.003 280.351 313.741 286.14 312.19C291.742 310.689 297.03 311.374 302.002 314.244C306.975 317.115 310.237 321.445 311.788 327.235C313.339 333.024 312.679 338.405 309.808 343.377C306.938 348.35 302.701 351.586 297.098 353.088Z" fill="#EAEAEA"/>
<path d="M436.844 101.877C455.892 96.7729 472.513 97.9237 486.707 105.329C501.088 112.685 510.705 125.42 515.558 143.534C520.612 162.396 518.439 178.19 509.04 190.916C499.64 203.643 485.042 212.658 465.247 217.962L470.056 240.392L442.324 247.823L429.139 204.219L438.383 201.742C456.498 196.889 469.667 190.758 477.89 183.351C486.3 175.893 488.678 165.348 485.025 151.716C482.373 141.818 477.402 134.843 470.112 130.792C463.008 126.691 454.414 125.991 444.33 128.693C434.245 131.396 427.034 136.23 422.696 143.197C418.358 150.164 417.49 158.503 420.092 168.214L390.119 176.245C387.117 165.04 386.961 154.373 389.651 144.245C392.341 134.117 397.705 125.374 405.741 118.017C413.964 110.609 424.332 105.229 436.844 101.877ZM472.358 306.127C466.568 307.678 461.188 307.019 456.215 304.148C451.243 301.277 447.981 296.947 446.43 291.158C444.878 285.368 445.538 279.988 448.409 275.015C451.28 270.042 455.61 266.781 461.399 265.229C467.002 263.728 472.289 264.413 477.262 267.284C482.234 270.155 485.496 274.485 487.047 280.274C488.598 286.063 487.939 291.444 485.068 296.417C482.197 301.389 477.96 304.626 472.358 306.127Z" fill="#EAEAEA"/>
<path d="M612.103 54.9164C631.151 49.8125 647.772 50.9632 661.966 58.3687C676.347 65.7242 685.964 78.4592 690.818 96.5737C695.872 115.435 693.699 131.229 684.299 143.956C674.899 156.683 660.301 165.698 640.506 171.002L645.315 193.432L617.583 200.863L604.398 157.259L613.642 154.782C631.757 149.928 644.926 143.798 653.149 136.39C661.559 128.933 663.937 118.388 660.284 104.755C657.632 94.8574 652.661 87.883 645.371 83.8318C638.267 79.7305 629.673 79.0309 619.589 81.733C609.504 84.4351 602.293 89.2696 597.955 96.2365C593.617 103.203 592.749 111.542 595.351 121.253L565.378 129.284C562.376 118.08 562.22 107.413 564.91 97.2848C567.6 87.1566 572.964 78.4139 581 71.0565C589.223 63.649 599.591 58.269 612.103 54.9164ZM647.617 259.167C641.828 260.718 636.447 260.058 631.474 257.187C626.502 254.316 623.24 249.986 621.689 244.197C620.137 238.408 620.797 233.027 623.668 228.055C626.539 223.082 630.869 219.82 636.658 218.269C642.261 216.768 647.548 217.453 652.521 220.324C657.493 223.194 660.755 227.524 662.306 233.314C663.858 239.103 663.198 244.484 660.327 249.456C657.456 254.429 653.219 257.666 647.617 259.167Z" fill="#EAEAEA"/>
<path d="M787.362 7.95597C806.41 2.85201 823.032 4.00277 837.225 11.4083C851.606 18.7637 861.223 31.4987 866.077 49.6133C871.131 68.4748 868.958 84.2688 859.558 96.9955C850.158 109.722 835.56 118.737 815.765 124.042L820.574 146.471L792.842 153.902L779.657 110.298L788.901 107.821C807.016 102.968 820.185 96.8371 828.408 89.4297C836.818 81.9722 839.196 71.4272 835.544 57.7946C832.891 47.897 827.92 40.9226 820.63 36.8713C813.526 32.7701 804.932 32.0705 794.848 34.7726C784.764 37.4747 777.552 42.3092 773.214 49.2761C768.876 56.243 768.008 64.5819 770.61 74.2927L740.637 82.324C737.635 71.1191 737.479 60.4526 740.169 50.3244C742.86 40.1962 748.223 31.4534 756.259 24.096C764.483 16.6886 774.85 11.3086 787.362 7.95597ZM822.876 212.206C817.087 213.757 811.706 213.098 806.733 210.227C801.761 207.356 798.499 203.026 796.948 197.237C795.397 191.447 796.056 186.067 798.927 181.094C801.798 176.122 806.128 172.86 811.917 171.309C817.52 169.807 822.807 170.492 827.78 173.363C832.752 176.234 836.014 180.564 837.565 186.353C839.117 192.142 838.457 197.523 835.586 202.496C832.715 207.468 828.478 210.705 822.876 212.206Z" fill="#EAEAEA"/>
<path d="M962.621 -39.005C981.67 -44.1089 998.291 -42.9582 1012.48 -35.5527C1026.87 -28.1972 1036.48 -15.4622 1041.34 2.65232C1046.39 21.5138 1044.22 37.3079 1034.82 50.0345C1025.42 62.7612 1010.82 71.7765 991.024 77.0807L995.834 99.5105L968.102 106.941L954.917 63.3375L964.161 60.8605C982.275 56.0068 995.444 49.8762 1003.67 42.4688C1012.08 35.0113 1014.46 24.4663 1010.8 10.8337C1008.15 0.936051 1003.18 -6.03838 995.889 -10.0896C988.786 -14.1909 980.192 -14.8904 970.107 -12.1883C960.023 -9.48625 952.812 -4.65175 948.474 2.31513C944.136 9.28203 943.268 17.6209 945.87 27.3318L915.897 35.363C912.894 24.1582 912.738 13.4917 915.429 3.36346C918.119 -6.76474 923.482 -15.5075 931.519 -22.8649C939.742 -30.2723 950.109 -35.6524 962.621 -39.005ZM998.135 165.245C992.346 166.797 986.965 166.137 981.993 163.266C977.02 160.395 973.758 156.065 972.207 150.276C970.656 144.487 971.316 139.106 974.187 134.133C977.058 129.161 981.388 125.899 987.177 124.348C992.779 122.846 998.067 123.531 1003.04 126.402C1008.01 129.273 1011.27 133.603 1012.82 139.392C1014.38 145.181 1013.72 150.562 1010.85 155.535C1007.97 160.507 1003.74 163.744 998.135 165.245Z" fill="#EAEAEA"/>
<path d="M1137.88 -85.9654C1156.93 -91.0694 1173.55 -89.9186 1187.74 -82.5131C1202.12 -75.1577 1211.74 -62.4227 1216.59 -44.3081C1221.65 -25.4466 1219.48 -9.65254 1210.08 3.07408C1200.68 15.8007 1186.08 24.8161 1166.28 30.1202L1171.09 52.55L1143.36 59.9808L1130.18 16.377L1139.42 13.9001C1157.53 9.04632 1170.7 2.91572 1178.93 -4.4917C1187.34 -11.9492 1189.71 -22.4942 1186.06 -36.1268C1183.41 -46.0244 1178.44 -52.9988 1171.15 -57.0501C1164.04 -61.1513 1155.45 -61.8509 1145.37 -59.1488C1135.28 -56.4467 1128.07 -51.6122 1123.73 -44.6453C1119.39 -37.6784 1118.53 -29.3395 1121.13 -19.6287L1091.16 -11.5974C1088.15 -22.8023 1088 -33.4688 1090.69 -43.597C1093.38 -53.7252 1098.74 -62.468 1106.78 -69.8254C1115 -77.2328 1125.37 -82.6128 1137.88 -85.9654ZM1173.39 118.285C1167.6 119.836 1162.22 119.176 1157.25 116.305C1152.28 113.434 1149.02 109.104 1147.47 103.315C1145.91 97.5261 1146.57 92.1452 1149.45 87.1727C1152.32 82.2002 1156.65 78.9383 1162.44 77.3871C1168.04 75.886 1173.33 76.5708 1178.3 79.4417C1183.27 82.3126 1186.53 86.6426 1188.08 92.4318C1189.63 98.221 1188.97 103.602 1186.1 108.574C1183.23 113.547 1179 116.784 1173.39 118.285Z" fill="#EAEAEA"/>
<path d="M1313.14 -132.926C1332.19 -138.03 1348.81 -136.879 1363 -129.474C1377.38 -122.118 1387 -109.383 1391.85 -91.2686C1396.91 -72.4071 1394.74 -56.613 1385.34 -43.8864C1375.94 -31.1597 1361.34 -22.1444 1341.54 -16.8402L1346.35 5.58959L1318.62 13.0204L1305.43 -30.5834L1314.68 -33.0604C1332.79 -37.9141 1345.96 -44.0447 1354.19 -51.4521C1362.6 -58.9096 1364.97 -69.4546 1361.32 -83.0872C1358.67 -92.9848 1353.7 -99.9593 1346.41 -104.011C1339.3 -108.112 1330.71 -108.811 1320.63 -106.109C1310.54 -103.407 1303.33 -98.5727 1298.99 -91.6058C1294.65 -84.6389 1293.79 -76.3 1296.39 -66.5891L1266.41 -58.5579C1263.41 -69.7627 1263.26 -80.4292 1265.95 -90.5574C1268.64 -100.686 1274 -109.428 1282.04 -116.786C1290.26 -124.193 1300.63 -129.573 1313.14 -132.926ZM1348.65 71.3244C1342.86 72.8756 1337.48 72.2158 1332.51 69.3449C1327.54 66.474 1324.28 62.144 1322.73 56.3548C1321.17 50.5656 1321.83 45.1848 1324.7 40.2123C1327.58 35.2397 1331.91 31.9779 1337.69 30.4267C1343.3 28.9255 1348.58 29.6104 1353.56 32.4813C1358.53 35.3521 1361.79 39.6822 1363.34 45.4714C1364.89 51.2605 1364.23 56.6414 1361.36 61.6139C1358.49 66.5864 1354.26 69.8233 1348.65 71.3244Z" fill="#EAEAEA"/>
<path d="M43.5729 737.28C62.6212 732.176 79.2422 733.327 93.436 740.732C107.817 748.087 117.434 760.822 122.287 778.937C127.341 797.799 125.168 813.593 115.769 826.319C106.369 839.046 91.7711 848.061 71.9759 853.365L76.785 875.795L49.0529 883.226L35.8682 839.622L45.1122 837.145C63.2267 832.291 76.3955 826.161 84.6187 818.753C93.0285 811.296 95.407 800.751 91.7542 787.118C89.1021 777.221 84.1309 770.246 76.8406 766.195C69.737 762.094 61.143 761.394 51.0586 764.096C40.9743 766.798 33.763 771.633 29.425 778.6C25.0869 785.567 24.2189 793.906 26.8209 803.616L-3.15206 811.648C-6.15439 800.443 -6.31038 789.776 -3.62002 779.648C-0.929664 769.52 4.4337 760.777 12.4701 753.42C20.6932 746.012 31.0608 740.632 43.5729 737.28ZM79.0867 941.53C73.2975 943.081 67.9166 942.421 62.9441 939.55C57.9716 936.68 54.7097 932.35 53.1585 926.56C51.6073 920.771 52.2672 915.39 55.1381 910.418C58.0089 905.445 62.339 902.183 68.1282 900.632C73.7306 899.131 79.0181 899.816 83.9906 902.687C88.9631 905.558 92.225 909.888 93.7762 915.677C95.3274 921.466 94.6675 926.847 91.7966 931.819C88.9258 936.792 84.6891 940.029 79.0867 941.53Z" fill="#EAEAEA"/>
<path d="M218.832 690.319C237.881 685.215 254.502 686.366 268.695 693.772C283.076 701.127 292.693 713.862 297.547 731.977C302.601 750.838 300.428 766.632 291.028 779.359C281.628 792.085 267.03 801.101 247.235 806.405L252.044 828.835L224.312 836.265L211.128 792.662L220.372 790.185C238.486 785.331 251.655 779.2 259.878 771.793C268.288 764.336 270.666 753.79 267.014 740.158C264.361 730.26 259.39 723.286 252.1 719.235C244.996 715.133 236.402 714.434 226.318 717.136C216.234 719.838 209.022 724.672 204.684 731.639C200.346 738.606 199.478 746.945 202.08 756.656L172.107 764.687C169.105 753.482 168.949 742.816 171.639 732.688C174.33 722.559 179.693 713.817 187.729 706.459C195.953 699.052 206.32 693.672 218.832 690.319ZM254.346 894.57C248.557 896.121 243.176 895.461 238.203 892.59C233.231 889.719 229.969 885.389 228.418 879.6C226.867 873.811 227.527 868.43 230.397 863.457C233.268 858.485 237.598 855.223 243.387 853.672C248.99 852.171 254.277 852.855 259.25 855.726C264.222 858.597 267.484 862.927 269.036 868.716C270.587 874.506 269.927 879.887 267.056 884.859C264.185 889.832 259.948 893.068 254.346 894.57Z" fill="#EAEAEA"/>
<path d="M394.091 643.358C413.14 638.254 429.761 639.405 443.954 646.811C458.335 654.166 467.952 666.901 472.806 685.016C477.86 703.877 475.687 719.671 466.287 732.398C456.887 745.124 442.29 754.14 422.494 759.444L427.303 781.874L399.571 789.305L386.387 745.701L395.631 743.224C413.745 738.37 426.914 732.239 435.137 724.832C443.547 717.375 445.925 706.83 442.273 693.197C439.621 683.299 434.649 676.325 427.359 672.274C420.255 668.172 411.661 667.473 401.577 670.175C391.493 672.877 384.281 677.712 379.943 684.678C375.605 691.645 374.737 699.984 377.339 709.695L347.366 717.726C344.364 706.521 344.208 695.855 346.898 685.727C349.589 675.599 354.952 666.856 362.989 659.498C371.212 652.091 381.579 646.711 394.091 643.358ZM429.605 847.609C423.816 849.16 418.435 848.5 413.463 845.629C408.49 842.758 405.228 838.428 403.677 832.639C402.126 826.85 402.786 821.469 405.656 816.496C408.527 811.524 412.857 808.262 418.647 806.711C424.249 805.21 429.536 805.895 434.509 808.765C439.482 811.636 442.743 815.966 444.295 821.756C445.846 827.545 445.186 832.926 442.315 837.898C439.444 842.871 435.208 846.107 429.605 847.609Z" fill="#EAEAEA"/>
<path d="M569.35 596.398C588.399 591.294 605.02 592.445 619.213 599.85C633.594 607.206 643.211 619.941 648.065 638.055C653.119 656.917 650.946 672.711 641.546 685.437C632.146 698.164 617.549 707.179 597.753 712.483L602.562 734.913L574.83 742.344L561.646 698.74L570.89 696.263C589.004 691.41 602.173 685.279 610.396 677.872C618.806 670.414 621.185 659.869 617.532 646.237C614.88 636.339 609.908 629.364 602.618 625.313C595.514 621.212 586.92 620.512 576.836 623.214C566.752 625.917 559.541 630.751 555.202 637.718C550.864 644.685 549.996 653.024 552.598 662.735L522.625 670.766C519.623 659.561 519.467 648.894 522.157 638.766C524.848 628.638 530.211 619.895 538.248 612.538C546.471 605.13 556.838 599.75 569.35 596.398ZM604.864 800.648C599.075 802.199 593.694 801.54 588.722 798.669C583.749 795.798 580.487 791.468 578.936 785.679C577.385 779.889 578.045 774.509 580.916 769.536C583.786 764.563 588.116 761.302 593.906 759.75C599.508 758.249 604.796 758.934 609.768 761.805C614.741 764.676 618.002 769.006 619.554 774.795C621.105 780.584 620.445 785.965 617.574 790.938C614.703 795.91 610.467 799.147 604.864 800.648Z" fill="#EAEAEA"/>
<path d="M744.61 549.437C763.658 544.333 780.279 545.484 794.473 552.89C808.853 560.245 818.471 572.98 823.324 591.095C828.378 609.956 826.205 625.75 816.805 638.477C807.406 651.204 792.808 660.219 773.013 665.523L777.822 687.953L750.09 695.384L736.905 651.78L746.149 649.303C764.264 644.449 777.432 638.319 785.656 630.911C794.065 623.454 796.444 612.909 792.791 599.276C790.139 589.378 785.168 582.404 777.877 578.353C770.774 574.252 762.18 573.552 752.095 576.254C742.011 578.956 734.8 583.791 730.462 590.758C726.124 597.724 725.256 606.063 727.858 615.774L697.885 623.805C694.882 612.601 694.726 601.934 697.417 591.806C700.107 581.678 705.471 572.935 713.507 565.577C721.73 558.17 732.098 552.79 744.61 549.437ZM780.124 753.688C774.334 755.239 768.954 754.579 763.981 751.708C759.008 748.837 755.747 744.507 754.195 738.718C752.644 732.929 753.304 727.548 756.175 722.576C759.046 717.603 763.376 714.341 769.165 712.79C774.767 711.289 780.055 711.974 785.027 714.845C790 717.715 793.262 722.045 794.813 727.835C796.364 733.624 795.704 739.005 792.834 743.977C789.963 748.95 785.726 752.187 780.124 753.688Z" fill="#EAEAEA"/>
<path d="M919.869 502.477C938.917 497.373 955.538 498.524 969.732 505.929C984.112 513.285 993.729 526.02 998.583 544.134C1003.64 562.996 1001.46 578.79 992.064 591.516C982.664 604.243 968.067 613.258 948.272 618.563L953.081 640.992L925.349 648.423L912.164 604.819L921.408 602.342C939.522 597.489 952.691 591.358 960.914 583.951C969.324 576.493 971.703 565.948 968.05 552.316C965.398 542.418 960.427 535.444 953.136 531.392C946.033 527.291 937.439 526.591 927.354 529.294C917.27 531.996 910.059 536.83 905.721 543.797C901.383 550.764 900.515 559.103 903.117 568.814L873.144 576.845C870.141 565.64 869.985 554.974 872.676 544.845C875.366 534.717 880.729 525.974 888.766 518.617C896.989 511.21 907.357 505.83 919.869 502.477ZM955.382 706.727C949.593 708.278 944.212 707.619 939.24 704.748C934.267 701.877 931.006 697.547 929.454 691.758C927.903 685.968 928.563 680.588 931.434 675.615C934.305 670.643 938.635 667.381 944.424 665.83C950.026 664.328 955.314 665.013 960.286 667.884C965.259 670.755 968.521 675.085 970.072 680.874C971.623 686.663 970.963 692.044 968.092 697.017C965.222 701.989 960.985 705.226 955.382 706.727Z" fill="#EAEAEA"/>
<path d="M1095.13 455.517C1114.18 450.413 1130.8 451.563 1144.99 458.969C1159.37 466.324 1168.99 479.059 1173.84 497.174C1178.9 516.035 1176.72 531.829 1167.32 544.556C1157.92 557.283 1143.33 566.298 1123.53 571.602L1128.34 594.032L1100.61 601.463L1087.42 557.859L1096.67 555.382C1114.78 550.528 1127.95 544.398 1136.17 536.99C1144.58 529.533 1146.96 518.988 1143.31 505.355C1140.66 495.458 1135.69 488.483 1128.4 484.432C1121.29 480.331 1112.7 479.631 1102.61 482.333C1092.53 485.035 1085.32 489.87 1080.98 496.837C1076.64 503.804 1075.77 512.142 1078.38 521.853L1048.4 529.885C1045.4 518.68 1045.24 508.013 1047.94 497.885C1050.63 487.757 1055.99 479.014 1064.03 471.657C1072.25 464.249 1082.62 458.869 1095.13 455.517ZM1130.64 659.767C1124.85 661.318 1119.47 660.658 1114.5 657.787C1109.53 654.916 1106.26 650.586 1104.71 644.797C1103.16 639.008 1103.82 633.627 1106.69 628.655C1109.56 623.682 1113.89 620.42 1119.68 618.869C1125.29 617.368 1130.57 618.053 1135.55 620.924C1140.52 623.795 1143.78 628.125 1145.33 633.914C1146.88 639.703 1146.22 645.084 1143.35 650.056C1140.48 655.029 1136.24 658.266 1130.64 659.767Z" fill="#EAEAEA"/>
<path d="M1270.39 408.556C1289.44 403.452 1306.06 404.603 1320.25 412.008C1334.63 419.364 1344.25 432.099 1349.1 450.213C1354.16 469.075 1351.98 484.869 1342.58 497.596C1333.18 510.322 1318.59 519.338 1298.79 524.642L1303.6 547.072L1275.87 554.502L1262.68 510.899L1271.93 508.422C1290.04 503.568 1303.21 497.437 1311.43 490.03C1319.84 482.572 1322.22 472.027 1318.57 458.395C1315.92 448.497 1310.95 441.523 1303.65 437.471C1296.55 433.37 1287.96 432.671 1277.87 435.373C1267.79 438.075 1260.58 442.909 1256.24 449.876C1251.9 456.843 1251.03 465.182 1253.64 474.893L1223.66 482.924C1220.66 471.719 1220.5 461.053 1223.19 450.924C1225.88 440.796 1231.25 432.054 1239.28 424.696C1247.51 417.289 1257.87 411.909 1270.39 408.556ZM1305.9 612.806C1300.11 614.358 1294.73 613.698 1289.76 610.827C1284.79 607.956 1281.52 603.626 1279.97 597.837C1278.42 592.048 1279.08 586.667 1281.95 581.694C1284.82 576.722 1289.15 573.46 1294.94 571.909C1300.54 570.407 1305.83 571.092 1310.8 573.963C1315.78 576.834 1319.04 581.164 1320.59 586.953C1322.14 592.742 1321.48 598.123 1318.61 603.096C1315.74 608.068 1311.5 611.305 1305.9 612.806Z" fill="#EAEAEA"/>
<path d="M1445.65 361.596C1464.69 356.492 1481.32 357.642 1495.51 365.048C1509.89 372.403 1519.51 385.138 1524.36 403.253C1529.41 422.114 1527.24 437.908 1517.84 450.635C1508.44 463.362 1493.84 472.377 1474.05 477.681L1478.86 500.111L1451.13 507.542L1437.94 463.938L1447.19 461.461C1465.3 456.607 1478.47 450.477 1486.69 443.069C1495.1 435.612 1497.48 425.067 1493.83 411.434C1491.18 401.537 1486.2 394.562 1478.91 390.511C1471.81 386.41 1463.22 385.71 1453.13 388.412C1443.05 391.114 1435.84 395.949 1431.5 402.916C1427.16 409.883 1426.29 418.222 1428.89 427.932L1398.92 435.964C1395.92 424.759 1395.76 414.092 1398.45 403.964C1401.14 393.836 1406.51 385.093 1414.54 377.736C1422.77 370.328 1433.13 364.948 1445.65 361.596ZM1481.16 565.846C1475.37 567.397 1469.99 566.737 1465.02 563.866C1460.05 560.996 1456.78 556.665 1455.23 550.876C1453.68 545.087 1454.34 539.706 1457.21 534.734C1460.08 529.761 1464.41 526.499 1470.2 524.948C1475.8 523.447 1481.09 524.132 1486.06 527.003C1491.04 529.874 1494.3 534.204 1495.85 539.993C1497.4 545.782 1496.74 551.163 1493.87 556.135C1491 561.108 1486.76 564.345 1481.16 565.846Z" fill="#EAEAEA"/>
<path d="M1052.38 996.998C1071.42 991.894 1088.04 993.045 1102.24 1000.45C1116.62 1007.81 1126.24 1020.54 1131.09 1038.66C1136.14 1057.52 1133.97 1073.31 1124.57 1086.04C1115.17 1098.76 1100.57 1107.78 1080.78 1113.08L1085.59 1135.51L1057.86 1142.94L1044.67 1099.34L1053.91 1096.86C1072.03 1092.01 1085.2 1085.88 1093.42 1078.47C1101.83 1071.01 1104.21 1060.47 1100.56 1046.84C1097.9 1036.94 1092.93 1029.97 1085.64 1025.91C1078.54 1021.81 1069.95 1021.11 1059.86 1023.82C1049.78 1026.52 1042.57 1031.35 1038.23 1038.32C1033.89 1045.29 1033.02 1053.62 1035.62 1063.34L1005.65 1071.37C1002.65 1060.16 1002.49 1049.5 1005.18 1039.37C1007.87 1029.24 1013.24 1020.5 1021.27 1013.14C1029.5 1005.73 1039.86 1000.35 1052.38 996.998ZM1087.89 1201.25C1082.1 1202.8 1076.72 1202.14 1071.75 1199.27C1066.77 1196.4 1063.51 1192.07 1061.96 1186.28C1060.41 1180.49 1061.07 1175.11 1063.94 1170.14C1066.81 1165.16 1071.14 1161.9 1076.93 1160.35C1082.53 1158.85 1087.82 1159.53 1092.79 1162.41C1097.77 1165.28 1101.03 1169.61 1102.58 1175.4C1104.13 1181.18 1103.47 1186.57 1100.6 1191.54C1097.73 1196.51 1093.49 1199.75 1087.89 1201.25Z" fill="#EAEAEA"/>
<path d="M1227.63 950.038C1246.68 944.934 1263.3 946.084 1277.5 953.49C1291.88 960.845 1301.5 973.58 1306.35 991.695C1311.4 1010.56 1309.23 1026.35 1299.83 1039.08C1290.43 1051.8 1275.83 1060.82 1256.04 1066.12L1260.85 1088.55L1233.11 1095.98L1219.93 1052.38L1229.17 1049.9C1247.29 1045.05 1260.46 1038.92 1268.68 1031.51C1277.09 1024.05 1279.47 1013.51 1275.82 999.876C1273.16 989.979 1268.19 983.004 1260.9 978.953C1253.8 974.852 1245.2 974.152 1235.12 976.854C1225.04 979.556 1217.82 984.391 1213.49 991.358C1209.15 998.325 1208.28 1006.66 1210.88 1016.37L1180.91 1024.41C1177.91 1013.2 1177.75 1002.53 1180.44 992.406C1183.13 982.278 1188.5 973.535 1196.53 966.178C1204.76 958.77 1215.12 953.39 1227.63 950.038ZM1263.15 1154.29C1257.36 1155.84 1251.98 1155.18 1247.01 1152.31C1242.03 1149.44 1238.77 1145.11 1237.22 1139.32C1235.67 1133.53 1236.33 1128.15 1239.2 1123.18C1242.07 1118.2 1246.4 1114.94 1252.19 1113.39C1257.79 1111.89 1263.08 1112.57 1268.05 1115.44C1273.02 1118.32 1276.29 1122.65 1277.84 1128.43C1279.39 1134.22 1278.73 1139.6 1275.86 1144.58C1272.99 1149.55 1268.75 1152.79 1263.15 1154.29Z" fill="#EAEAEA"/>
<path d="M1402.89 903.077C1421.94 897.973 1438.56 899.124 1452.76 906.529C1467.14 913.885 1476.75 926.62 1481.61 944.734C1486.66 963.596 1484.49 979.39 1475.09 992.117C1465.69 1004.84 1451.09 1013.86 1431.3 1019.16L1436.11 1041.59L1408.37 1049.02L1395.19 1005.42L1404.43 1002.94C1422.55 998.089 1435.72 991.958 1443.94 984.551C1452.35 977.093 1454.73 966.548 1451.07 952.916C1448.42 943.018 1443.45 936.044 1436.16 931.992C1429.06 927.891 1420.46 927.192 1410.38 929.894C1400.29 932.596 1393.08 937.43 1388.75 944.397C1384.41 951.364 1383.54 959.703 1386.14 969.414L1356.17 977.445C1353.17 966.24 1353.01 955.574 1355.7 945.445C1358.39 935.317 1363.75 926.574 1371.79 919.217C1380.01 911.81 1390.38 906.43 1402.89 903.077ZM1438.41 1107.33C1432.62 1108.88 1427.24 1108.22 1422.26 1105.35C1417.29 1102.48 1414.03 1098.15 1412.48 1092.36C1410.93 1086.57 1411.59 1081.19 1414.46 1076.22C1417.33 1071.24 1421.66 1067.98 1427.45 1066.43C1433.05 1064.93 1438.34 1065.61 1443.31 1068.48C1448.28 1071.36 1451.55 1075.69 1453.1 1081.47C1454.65 1087.26 1453.99 1092.64 1451.12 1097.62C1448.25 1102.59 1444.01 1105.83 1438.41 1107.33Z" fill="#EAEAEA"/>
</g>
</svg>
