<svg width="26" height="23" viewBox="0 0 26 23" fill="none" xmlns="http://www.w3.org/2000/svg">
<path d="M21.6249 16.0138C21.7537 15.6656 22.2463 15.6656 22.3751 16.0138L23.0165 17.7471C23.057 17.8566 23.1434 17.943 23.2529 17.9835L24.9862 18.6249C25.3344 18.7537 25.3344 19.2463 24.9862 19.3751L23.2529 20.0165C23.1434 20.057 23.057 20.1434 23.0165 20.2529L22.3751 21.9862C22.2463 22.3344 21.7537 22.3344 21.6249 21.9862L20.9835 20.2529C20.943 20.1434 20.8566 20.057 20.7471 20.0165L19.0138 19.3751C18.6656 19.2463 18.6656 18.7537 19.0138 18.6249L20.7471 17.9835C20.8566 17.943 20.943 17.8566 20.9835 17.7471L21.6249 16.0138Z" fill="#2D2D2D"/>
<path d="M6.79661 1.90088C7.03823 1.24792 7.96177 1.24792 8.20339 1.90088L9.406 5.15089C9.48196 5.35618 9.64382 5.51804 9.84911 5.594L13.0991 6.79661C13.7521 7.03823 13.7521 7.96177 13.0991 8.20339L9.84911 9.406C9.64382 9.48196 9.48196 9.64382 9.406 9.84911L8.20339 13.0991C7.96177 13.7521 7.03823 13.7521 6.79661 13.0991L5.594 9.84911C5.51804 9.64382 5.35618 9.48196 5.15089 9.406L1.90088 8.20339C1.24792 7.96177 1.24792 7.03823 1.90088 6.79661L5.15089 5.594C5.35618 5.51804 5.51804 5.35618 5.594 5.15089L6.79661 1.90088Z" fill="#2D2D2D"/>
</svg>
