<svg width="134" height="48" viewBox="0 0 134 48" fill="none" xmlns="http://www.w3.org/2000/svg">
<path d="M121.296 46.8112C122.34 47.3561 123.628 46.9517 124.173 45.9078L133.053 28.897C133.598 27.8532 133.194 26.5652 132.15 26.0202C131.106 25.4753 129.818 25.8798 129.273 26.9236L121.379 42.0443L106.259 34.1506C105.215 33.6056 103.927 34.0101 103.382 35.054C102.837 36.0978 103.241 37.3858 104.285 37.9308L121.296 46.8112ZM0.24553 42.9644C-0.26945 44.0233 0.171539 45.2993 1.2305 45.8142C2.28947 46.3292 3.56541 45.8882 4.0804 44.8293L0.24553 42.9644ZM124.317 44.2823C121.383 34.9387 114.416 25.55 105.195 17.8906C95.9555 10.216 84.3126 4.15779 71.8389 1.58731C59.3469 -0.98694 45.9846 -0.0668166 33.4292 6.28451C20.8722 12.6367 9.30932 24.3264 0.24553 42.9644L4.0804 44.8293C12.8217 26.8544 23.787 15.941 35.3541 10.0896C46.9229 4.23738 59.2809 3.35334 70.9782 5.76383C82.6938 8.17809 93.7091 13.8935 102.47 21.1709C111.25 28.4635 117.625 37.2053 120.249 45.5599L124.317 44.2823Z" fill="#FF0F7B"/>
</svg>
