<svg width="338" height="210" viewBox="0 0 338 210" fill="none" xmlns="http://www.w3.org/2000/svg">
<rect x="145.772" y="48.7974" width="47.7974" height="6.8282" fill="white"/>
<path d="M169.987 3.73145L179.449 41.628H160.526L169.987 3.73145Z" fill="white"/>
<path d="M146.892 20.6307L158.701 41.8548L147.278 44.9158L146.892 20.6307Z" fill="white"/>
<ellipse cx="147.228" cy="21.2838" rx="1.865" ry="1.865" transform="rotate(-15 147.228 21.2838)" fill="white"/>
<path d="M192.994 20.6308L192.609 44.9159L181.185 41.8549L192.994 20.6308Z" fill="white"/>
<ellipse cx="193.228" cy="21.2841" rx="1.865" ry="1.865" transform="rotate(15 193.228 21.2841)" fill="white"/>
<ellipse cx="170.173" cy="3.23" rx="3.23" ry="3.23" fill="white"/>
<path d="M111.199 94L106.611 85.6718H105.323V94H99.9485V71.9381H108.968C110.707 71.9381 112.184 72.2419 113.399 72.8495C114.635 73.4571 115.557 74.2952 116.165 75.3637C116.773 76.4113 117.076 77.5845 117.076 78.8835C117.076 80.3501 116.657 81.6596 115.819 82.8119C115.002 83.9643 113.787 84.7814 112.174 85.2632L117.265 94H111.199ZM105.323 81.8691H108.654C109.639 81.8691 110.372 81.6282 110.854 81.1463C111.357 80.6644 111.608 79.9835 111.608 79.1035C111.608 78.2655 111.357 77.6055 110.854 77.1236C110.372 76.6417 109.639 76.4008 108.654 76.4008H105.323V81.8691ZM123.153 74.6409C122.21 74.6409 121.435 74.3685 120.827 73.8237C120.24 73.2581 119.947 72.5667 119.947 71.7496C119.947 70.9115 120.24 70.2201 120.827 69.6754C121.435 69.1097 122.21 68.8268 123.153 68.8268C124.074 68.8268 124.829 69.1097 125.415 69.6754C126.023 70.2201 126.327 70.9115 126.327 71.7496C126.327 72.5667 126.023 73.2581 125.415 73.8237C124.829 74.3685 124.074 74.6409 123.153 74.6409ZM125.824 76.4636V94H120.45V76.4636H125.824ZM139.492 89.4431V94H136.758C134.81 94 133.291 93.5286 132.201 92.5858C131.112 91.622 130.567 90.0611 130.567 87.9031V80.9263H128.43V76.4636H130.567V72.1895H135.941V76.4636H139.461V80.9263H135.941V87.966C135.941 88.4898 136.067 88.8669 136.318 89.0974C136.57 89.3278 136.989 89.4431 137.575 89.4431H139.492ZM141.417 85.2318C141.417 83.409 141.784 81.8167 142.517 80.4549C143.271 79.093 144.308 78.0455 145.628 77.3122C146.969 76.5789 148.499 76.2122 150.217 76.2122C152.417 76.2122 154.25 76.7884 155.717 77.9407C157.204 79.093 158.178 80.7168 158.639 82.8119H152.919C152.438 81.471 151.505 80.8006 150.122 80.8006C149.138 80.8006 148.352 81.1882 147.765 81.9634C147.179 82.7176 146.885 83.8071 146.885 85.2318C146.885 86.6565 147.179 87.7565 147.765 88.5317C148.352 89.2859 149.138 89.663 150.122 89.663C151.505 89.663 152.438 88.9926 152.919 87.6517H158.639C158.178 89.705 157.204 91.3182 155.717 92.4915C154.229 93.6648 152.396 94.2514 150.217 94.2514C148.499 94.2514 146.969 93.8848 145.628 93.1515C144.308 92.4182 143.271 91.3706 142.517 90.0087C141.784 88.6469 141.417 87.0546 141.417 85.2318ZM172.293 76.2751C174.305 76.2751 175.918 76.9455 177.133 78.2864C178.348 79.6063 178.956 81.4291 178.956 83.7547V94H173.613V84.4776C173.613 83.3043 173.31 82.3929 172.702 81.7434C172.094 81.0939 171.277 80.7692 170.251 80.7692C169.224 80.7692 168.407 81.0939 167.799 81.7434C167.192 82.3929 166.888 83.3043 166.888 84.4776V94H161.514V70.7439H166.888V78.8207C167.433 78.0455 168.176 77.4274 169.119 76.9665C170.062 76.5055 171.12 76.2751 172.293 76.2751ZM206.164 79.0407C206.164 80.3187 205.87 81.492 205.284 82.5605C204.697 83.6081 203.796 84.4566 202.581 85.1061C201.366 85.7556 199.857 86.0803 198.056 86.0803H194.724V94H189.35V71.9381H198.056C199.815 71.9381 201.303 72.2419 202.518 72.8495C203.733 73.4571 204.645 74.2952 205.252 75.3637C205.86 76.4322 206.164 77.6579 206.164 79.0407ZM197.647 81.8063C198.674 81.8063 199.438 81.5653 199.941 81.0834C200.444 80.6015 200.695 79.9206 200.695 79.0407C200.695 78.1607 200.444 77.4798 199.941 76.9979C199.438 76.516 198.674 76.2751 197.647 76.2751H194.724V81.8063H197.647ZM214.336 79.3864C214.964 78.4226 215.75 77.6683 216.693 77.1236C217.635 76.5579 218.683 76.2751 219.835 76.2751V81.9634H218.358C217.017 81.9634 216.012 82.2567 215.341 82.8433C214.671 83.409 214.336 84.4147 214.336 85.8604V94H208.962V76.4636H214.336V79.3864ZM230.387 94.2514C228.669 94.2514 227.118 93.8848 225.735 93.1515C224.373 92.4182 223.294 91.3706 222.498 90.0087C221.723 88.6469 221.335 87.0546 221.335 85.2318C221.335 83.43 221.734 81.8482 222.53 80.4863C223.326 79.1035 224.415 78.0455 225.798 77.3122C227.181 76.5789 228.731 76.2122 230.449 76.2122C232.167 76.2122 233.718 76.5789 235.101 77.3122C236.483 78.0455 237.573 79.1035 238.369 80.4863C239.165 81.8482 239.563 83.43 239.563 85.2318C239.563 87.0336 239.155 88.626 238.338 90.0087C237.541 91.3706 236.441 92.4182 235.038 93.1515C233.655 93.8848 232.105 94.2514 230.387 94.2514ZM230.387 89.6002C231.413 89.6002 232.283 89.2231 232.995 88.4688C233.728 87.7146 234.095 86.6356 234.095 85.2318C234.095 83.8281 233.739 82.7491 233.026 81.9948C232.335 81.2406 231.476 80.8634 230.449 80.8634C229.402 80.8634 228.532 81.2406 227.841 81.9948C227.15 82.7281 226.804 83.8071 226.804 85.2318C226.804 86.6356 227.139 87.7146 227.809 88.4688C228.501 89.2231 229.36 89.6002 230.387 89.6002Z" fill="white"/>
<path d="M43.6862 127.797V133.235H51.3902V142.661H43.1424C42.1756 148.039 39.8191 152.148 36.0728 154.988C32.3266 157.767 26.8583 159.157 19.6679 159.157V162.782C19.6679 165.139 20.121 166.982 21.0274 168.311C21.9337 169.58 23.5047 170.214 25.7404 170.214C27.8552 170.214 29.3658 169.58 30.2722 168.311C31.1785 167.042 31.6317 165.139 31.6317 162.601H45.9521C45.7104 168.704 43.8977 173.447 40.514 176.831C37.1907 180.214 32.387 181.906 26.103 181.906C19.3355 181.906 14.1391 180.154 10.5137 176.65C6.9487 173.085 5.16621 167.767 5.16621 160.698V149.006C11.4503 149.006 16.0727 148.885 19.0334 148.643C22.0546 148.341 24.2903 147.767 25.7404 146.921C27.251 146.015 28.248 144.595 28.7314 142.661H3.44414V133.235H29.1846V127.797H3.44414V117.374H51.3902V127.797H43.6862ZM94.1311 161.604C95.0375 166.378 97.8169 168.764 102.47 168.764C105.672 168.764 107.938 167.344 109.267 164.504C110.597 161.664 111.261 157.042 111.261 150.637C109.932 152.51 108.119 153.96 105.823 154.988C103.527 156.015 100.959 156.528 98.1191 156.528C94.2519 156.528 90.8078 155.743 87.7866 154.172C84.7655 152.541 82.3787 150.154 80.6264 147.012C78.9346 143.809 78.0887 139.942 78.0887 135.41C78.0887 130.939 78.995 127.042 80.8077 123.719C82.6808 120.395 85.3093 117.827 88.693 116.015C92.1371 114.202 96.1855 113.295 100.838 113.295C109.781 113.295 116.035 116.075 119.6 121.634C123.165 127.193 124.947 135.38 124.947 146.196C124.947 154.051 124.222 160.547 122.772 165.683C121.382 170.758 118.995 174.625 115.612 177.284C112.288 179.943 107.726 181.272 101.926 181.272C97.3335 181.272 93.406 180.366 90.1432 178.553C86.9407 176.74 84.4633 174.353 82.7111 171.393C81.0192 168.432 80.0524 165.169 79.8107 161.604H94.1311ZM101.654 144.293C104.192 144.293 106.216 143.537 107.726 142.027C109.237 140.456 109.992 138.341 109.992 135.682C109.992 132.782 109.207 130.546 107.636 128.975C106.065 127.404 103.95 126.619 101.291 126.619C98.6327 126.619 96.5178 127.435 94.9468 129.066C93.4362 130.637 92.6809 132.812 92.6809 135.592C92.6809 138.19 93.4362 140.305 94.9468 141.936C96.5178 143.507 98.7535 144.293 101.654 144.293ZM149.893 161.604C150.799 166.378 153.579 168.764 158.231 168.764C161.434 168.764 163.7 167.344 165.029 164.504C166.358 161.664 167.023 157.042 167.023 150.637C165.694 152.51 163.881 153.96 161.585 154.988C159.289 156.015 156.721 156.528 153.881 156.528C150.014 156.528 146.57 155.743 143.549 154.172C140.527 152.541 138.141 150.154 136.388 147.012C134.697 143.809 133.851 139.942 133.851 135.41C133.851 130.939 134.757 127.042 136.57 123.719C138.443 120.395 141.071 117.827 144.455 116.015C147.899 114.202 151.947 113.295 156.6 113.295C165.543 113.295 171.797 116.075 175.362 121.634C178.927 127.193 180.709 135.38 180.709 146.196C180.709 154.051 179.984 160.547 178.534 165.683C177.144 170.758 174.757 174.625 171.374 177.284C168.05 179.943 163.488 181.272 157.688 181.272C153.095 181.272 149.168 180.366 145.905 178.553C142.703 176.74 140.225 174.353 138.473 171.393C136.781 168.432 135.814 165.169 135.573 161.604H149.893ZM157.416 144.293C159.954 144.293 161.978 143.537 163.488 142.027C164.999 140.456 165.754 138.341 165.754 135.682C165.754 132.782 164.969 130.546 163.398 128.975C161.827 127.404 159.712 126.619 157.053 126.619C154.395 126.619 152.28 127.435 150.709 129.066C149.198 130.637 148.443 132.812 148.443 135.592C148.443 138.19 149.198 140.305 150.709 141.936C152.28 143.507 154.515 144.293 157.416 144.293ZM205.655 161.604C206.561 166.378 209.341 168.764 213.993 168.764C217.196 168.764 219.462 167.344 220.791 164.504C222.12 161.664 222.785 157.042 222.785 150.637C221.456 152.51 219.643 153.96 217.347 154.988C215.051 156.015 212.483 156.528 209.643 156.528C205.776 156.528 202.332 155.743 199.31 154.172C196.289 152.541 193.903 150.154 192.15 147.012C190.458 143.809 189.613 139.942 189.613 135.41C189.613 130.939 190.519 127.042 192.332 123.719C194.205 120.395 196.833 117.827 200.217 116.015C203.661 114.202 207.709 113.295 212.362 113.295C221.305 113.295 227.558 116.075 231.123 121.634C234.688 127.193 236.471 135.38 236.471 146.196C236.471 154.051 235.746 160.547 234.296 165.683C232.906 170.758 230.519 174.625 227.136 177.284C223.812 179.943 219.25 181.272 213.45 181.272C208.857 181.272 204.93 180.366 201.667 178.553C198.465 176.74 195.987 174.353 194.235 171.393C192.543 168.432 191.576 165.169 191.335 161.604H205.655ZM213.178 144.293C215.715 144.293 217.74 143.537 219.25 142.027C220.761 140.456 221.516 138.341 221.516 135.682C221.516 132.782 220.731 130.546 219.16 128.975C217.589 127.404 215.474 126.619 212.815 126.619C210.157 126.619 208.042 127.435 206.471 129.066C204.96 130.637 204.205 132.812 204.205 135.592C204.205 138.19 204.96 140.305 206.471 141.936C208.042 143.507 210.277 144.293 213.178 144.293ZM269.013 120.2L251.861 192.968H241.301L258.453 120.2H269.013ZM310.109 145.288L287.709 197.96H275.933L284.125 179.784L269.597 145.288H281.821L290.077 167.624L298.269 145.288H310.109ZM325.011 151.24C326.291 149.277 327.891 147.741 329.811 146.632C331.731 145.48 333.864 144.904 336.211 144.904V156.488H333.203C330.472 156.488 328.424 157.085 327.059 158.28C325.694 159.432 325.011 161.48 325.011 164.424V181H314.067V145.288H325.011V151.24Z" fill="white"/>
</svg>
