<svg width="247" height="133" viewBox="0 0 247 133" fill="none" xmlns="http://www.w3.org/2000/svg">
<path d="M0 9C0 4.02943 4.02944 0 9 0H202C226.853 0 247 20.1472 247 45V88C247 112.853 226.853 133 202 133H9.00001C4.02944 133 0 128.971 0 124V9Z" fill="#F5F4F4"/>
<rect x="13" y="17" width="40" height="41" rx="20" fill="#C6C6C6"/>
<path d="M36.928 42.4243H30.256L29.152 45.6163H25.624L31.648 28.8403H35.56L41.584 45.6163H38.032L36.928 42.4243ZM36.016 39.7363L33.592 32.7283L31.168 39.7363H36.016Z" fill="white"/>
<path d="M75.1 41.4958H69.862L68.962 44.0518H66.82L71.302 31.5238H73.678L78.16 44.0518H76L75.1 41.4958ZM74.524 39.8218L72.49 34.0078L70.438 39.8218H74.524ZM92.1148 33.9718C92.8948 33.9718 93.5908 34.1338 94.2028 34.4578C94.8268 34.7818 95.3128 35.2618 95.6608 35.8978C96.0208 36.5338 96.2008 37.3018 96.2008 38.2018V44.0518H94.1668V38.5078C94.1668 37.6198 93.9448 36.9418 93.5008 36.4738C93.0568 35.9938 92.4508 35.7538 91.6828 35.7538C90.9148 35.7538 90.3028 35.9938 89.8468 36.4738C89.4028 36.9418 89.1808 37.6198 89.1808 38.5078V44.0518H87.1468V38.5078C87.1468 37.6198 86.9248 36.9418 86.4808 36.4738C86.0368 35.9938 85.4308 35.7538 84.6628 35.7538C83.8948 35.7538 83.2828 35.9938 82.8268 36.4738C82.3828 36.9418 82.1608 37.6198 82.1608 38.5078V44.0518H80.1088V34.1338H82.1608V35.2678C82.4968 34.8598 82.9228 34.5418 83.4388 34.3138C83.9548 34.0858 84.5068 33.9718 85.0948 33.9718C85.8868 33.9718 86.5948 34.1398 87.2188 34.4758C87.8428 34.8118 88.3228 35.2978 88.6588 35.9338C88.9588 35.3338 89.4268 34.8598 90.0628 34.5118C90.6988 34.1518 91.3828 33.9718 92.1148 33.9718ZM98.1279 39.0478C98.1279 38.0518 98.3319 37.1698 98.7399 36.4018C99.1599 35.6338 99.7239 35.0398 100.432 34.6198C101.152 34.1878 101.944 33.9718 102.808 33.9718C103.588 33.9718 104.266 34.1278 104.842 34.4398C105.43 34.7398 105.898 35.1178 106.246 35.5738V34.1338H108.316V44.0518H106.246V42.5758C105.898 43.0438 105.424 43.4338 104.824 43.7458C104.224 44.0578 103.54 44.2138 102.772 44.2138C101.92 44.2138 101.14 43.9978 100.432 43.5658C99.7239 43.1218 99.1599 42.5098 98.7399 41.7298C98.3319 40.9378 98.1279 40.0438 98.1279 39.0478ZM106.246 39.0838C106.246 38.3998 106.102 37.8058 105.814 37.3018C105.538 36.7978 105.172 36.4138 104.716 36.1498C104.26 35.8858 103.768 35.7538 103.24 35.7538C102.712 35.7538 102.22 35.8858 101.764 36.1498C101.308 36.4018 100.936 36.7798 100.648 37.2838C100.372 37.7758 100.234 38.3638 100.234 39.0478C100.234 39.7318 100.372 40.3318 100.648 40.8478C100.936 41.3638 101.308 41.7598 101.764 42.0358C102.232 42.2998 102.724 42.4318 103.24 42.4318C103.768 42.4318 104.26 42.2998 104.716 42.0358C105.172 41.7718 105.538 41.3878 105.814 40.8838C106.102 40.3678 106.246 39.7678 106.246 39.0838ZM113.063 35.5738C113.363 35.0698 113.759 34.6798 114.251 34.4038C114.755 34.1158 115.349 33.9718 116.033 33.9718V36.0958H115.511C114.707 36.0958 114.095 36.2998 113.675 36.7078C113.267 37.1158 113.063 37.8238 113.063 38.8318V44.0518H111.011V34.1338H113.063V35.5738ZM130.677 31.5418V33.2158H127.347V44.0518H125.295V33.2158H121.947V31.5418H130.677ZM132.071 39.0478C132.071 38.0518 132.275 37.1698 132.683 36.4018C133.103 35.6338 133.667 35.0398 134.375 34.6198C135.095 34.1878 135.887 33.9718 136.751 33.9718C137.531 33.9718 138.209 34.1278 138.785 34.4398C139.373 34.7398 139.841 35.1178 140.189 35.5738V34.1338H142.259V44.0518H140.189V42.5758C139.841 43.0438 139.367 43.4338 138.767 43.7458C138.167 44.0578 137.483 44.2138 136.715 44.2138C135.863 44.2138 135.083 43.9978 134.375 43.5658C133.667 43.1218 133.103 42.5098 132.683 41.7298C132.275 40.9378 132.071 40.0438 132.071 39.0478ZM140.189 39.0838C140.189 38.3998 140.045 37.8058 139.757 37.3018C139.481 36.7978 139.115 36.4138 138.659 36.1498C138.203 35.8858 137.711 35.7538 137.183 35.7538C136.655 35.7538 136.163 35.8858 135.707 36.1498C135.251 36.4018 134.879 36.7798 134.591 37.2838C134.315 37.7758 134.177 38.3638 134.177 39.0478C134.177 39.7318 134.315 40.3318 134.591 40.8478C134.879 41.3638 135.251 41.7598 135.707 42.0358C136.175 42.2998 136.667 42.4318 137.183 42.4318C137.711 42.4318 138.203 42.2998 138.659 42.0358C139.115 41.7718 139.481 41.3878 139.757 40.8838C140.045 40.3678 140.189 39.7678 140.189 39.0838ZM149.958 33.9718C150.738 33.9718 151.434 34.1338 152.046 34.4578C152.67 34.7818 153.156 35.2618 153.504 35.8978C153.852 36.5338 154.026 37.3018 154.026 38.2018V44.0518H151.992V38.5078C151.992 37.6198 151.77 36.9418 151.326 36.4738C150.882 35.9938 150.276 35.7538 149.508 35.7538C148.74 35.7538 148.128 35.9938 147.672 36.4738C147.228 36.9418 147.006 37.6198 147.006 38.5078V44.0518H144.954V34.1338H147.006V35.2678C147.342 34.8598 147.768 34.5418 148.284 34.3138C148.812 34.0858 149.37 33.9718 149.958 33.9718ZM160.478 42.2158L163.286 34.1338H165.464L161.684 44.0518H159.236L155.474 34.1338H157.67L160.478 42.2158ZM176.105 38.8498C176.105 39.2218 176.081 39.5578 176.033 39.8578H168.455C168.515 40.6498 168.809 41.2858 169.337 41.7658C169.865 42.2458 170.513 42.4858 171.281 42.4858C172.385 42.4858 173.165 42.0238 173.621 41.0998H175.835C175.535 42.0118 174.989 42.7618 174.197 43.3498C173.417 43.9258 172.445 44.2138 171.281 44.2138C170.333 44.2138 169.481 44.0038 168.725 43.5838C167.981 43.1518 167.393 42.5518 166.961 41.7838C166.541 41.0038 166.331 40.1038 166.331 39.0838C166.331 38.0638 166.535 37.1698 166.943 36.4018C167.363 35.6218 167.945 35.0218 168.689 34.6018C169.445 34.1818 170.309 33.9718 171.281 33.9718C172.217 33.9718 173.051 34.1758 173.783 34.5838C174.515 34.9918 175.085 35.5678 175.493 36.3118C175.901 37.0438 176.105 37.8898 176.105 38.8498ZM173.963 38.2018C173.951 37.4458 173.681 36.8398 173.153 36.3838C172.625 35.9278 171.971 35.6998 171.191 35.6998C170.483 35.6998 169.877 35.9278 169.373 36.3838C168.869 36.8278 168.569 37.4338 168.473 38.2018H173.963ZM187.214 38.8498C187.214 39.2218 187.19 39.5578 187.142 39.8578H179.564C179.624 40.6498 179.918 41.2858 180.446 41.7658C180.974 42.2458 181.622 42.4858 182.39 42.4858C183.494 42.4858 184.274 42.0238 184.73 41.0998H186.944C186.644 42.0118 186.098 42.7618 185.306 43.3498C184.526 43.9258 183.554 44.2138 182.39 44.2138C181.442 44.2138 180.59 44.0038 179.834 43.5838C179.09 43.1518 178.502 42.5518 178.07 41.7838C177.65 41.0038 177.44 40.1038 177.44 39.0838C177.44 38.0638 177.644 37.1698 178.052 36.4018C178.472 35.6218 179.054 35.0218 179.798 34.6018C180.554 34.1818 181.418 33.9718 182.39 33.9718C183.326 33.9718 184.16 34.1758 184.892 34.5838C185.624 34.9918 186.194 35.5678 186.602 36.3118C187.01 37.0438 187.214 37.8898 187.214 38.8498ZM185.072 38.2018C185.06 37.4458 184.79 36.8398 184.262 36.3838C183.734 35.9278 183.08 35.6998 182.3 35.6998C181.592 35.6998 180.986 35.9278 180.482 36.3838C179.978 36.8278 179.678 37.4338 179.582 38.2018H185.072ZM191.286 35.5738C191.586 35.0698 191.982 34.6798 192.474 34.4038C192.978 34.1158 193.572 33.9718 194.256 33.9718V36.0958H193.734C192.93 36.0958 192.318 36.2998 191.898 36.7078C191.49 37.1158 191.286 37.8238 191.286 38.8318V44.0518H189.234V34.1338H191.286V35.5738Z" fill="#2D2D2D"/>
<g filter="url(#filter0_d_358_1291)">
<rect x="13" y="74" width="173" height="41" rx="20.5" fill="#F89B29"/>
<path d="M74.505 88.5368V90.5918H71.715V99.0668H69.15V90.5918H66.36V88.5368H74.505ZM78.3573 92.0918C78.6573 91.6318 79.0323 91.2718 79.4823 91.0118C79.9323 90.7418 80.4323 90.6068 80.9823 90.6068V93.3218H80.2773C79.6373 93.3218 79.1573 93.4618 78.8373 93.7418C78.5173 94.0118 78.3573 94.4918 78.3573 95.1818V99.0668H75.7923V90.6968H78.3573V92.0918ZM90.7583 90.6968L85.5083 103.042H82.7483L84.6683 98.7818L81.2633 90.6968H84.1283L86.0633 95.9318L87.9833 90.6968H90.7583ZM100.235 99.0668L98.0446 95.0918H97.4296V99.0668H94.8646V88.5368H99.1696C99.9996 88.5368 100.705 88.6818 101.285 88.9718C101.875 89.2618 102.315 89.6618 102.605 90.1718C102.895 90.6718 103.04 91.2318 103.04 91.8518C103.04 92.5518 102.84 93.1768 102.44 93.7268C102.05 94.2768 101.47 94.6668 100.7 94.8968L103.13 99.0668H100.235ZM97.4296 93.2768H99.0196C99.4896 93.2768 99.8396 93.1618 100.07 92.9318C100.31 92.7018 100.43 92.3768 100.43 91.9568C100.43 91.5568 100.31 91.2418 100.07 91.0118C99.8396 90.7818 99.4896 90.6668 99.0196 90.6668H97.4296V93.2768ZM105.94 89.8268C105.49 89.8268 105.12 89.6968 104.83 89.4368C104.55 89.1668 104.41 88.8368 104.41 88.4468C104.41 88.0468 104.55 87.7168 104.83 87.4568C105.12 87.1868 105.49 87.0518 105.94 87.0518C106.38 87.0518 106.74 87.1868 107.02 87.4568C107.31 87.7168 107.455 88.0468 107.455 88.4468C107.455 88.8368 107.31 89.1668 107.02 89.4368C106.74 89.6968 106.38 89.8268 105.94 89.8268ZM107.215 90.6968V99.0668H104.65V90.6968H107.215ZM113.739 96.8918V99.0668H112.434C111.504 99.0668 110.779 98.8418 110.259 98.3918C109.739 97.9318 109.479 97.1868 109.479 96.1568V92.8268H108.459V90.6968H109.479V88.6568H112.044V90.6968H113.724V92.8268H112.044V96.1868C112.044 96.4368 112.104 96.6168 112.224 96.7268C112.344 96.8368 112.544 96.8918 112.824 96.8918H113.739ZM114.657 94.8818C114.657 94.0118 114.832 93.2518 115.182 92.6018C115.542 91.9518 116.037 91.4518 116.667 91.1018C117.307 90.7518 118.037 90.5768 118.857 90.5768C119.907 90.5768 120.782 90.8518 121.482 91.4018C122.192 91.9518 122.657 92.7268 122.877 93.7268H120.147C119.917 93.0868 119.472 92.7668 118.812 92.7668C118.342 92.7668 117.967 92.9518 117.687 93.3218C117.407 93.6818 117.267 94.2018 117.267 94.8818C117.267 95.5618 117.407 96.0868 117.687 96.4568C117.967 96.8168 118.342 96.9968 118.812 96.9968C119.472 96.9968 119.917 96.6768 120.147 96.0368H122.877C122.657 97.0168 122.192 97.7868 121.482 98.3468C120.772 98.9068 119.897 99.1868 118.857 99.1868C118.037 99.1868 117.307 99.0118 116.667 98.6618C116.037 98.3118 115.542 97.8118 115.182 97.1618C114.832 96.5118 114.657 95.7518 114.657 94.8818ZM129.394 90.6068C130.354 90.6068 131.124 90.9268 131.704 91.5668C132.284 92.1968 132.574 93.0668 132.574 94.1768V99.0668H130.024V94.5218C130.024 93.9618 129.879 93.5268 129.589 93.2168C129.299 92.9068 128.909 92.7518 128.419 92.7518C127.929 92.7518 127.539 92.9068 127.249 93.2168C126.959 93.5268 126.814 93.9618 126.814 94.5218V99.0668H124.249V87.9668H126.814V91.8218C127.074 91.4518 127.429 91.1568 127.879 90.9368C128.329 90.7168 128.834 90.6068 129.394 90.6068ZM145.56 91.9268C145.56 92.5368 145.42 93.0968 145.14 93.6068C144.86 94.1068 144.43 94.5118 143.85 94.8218C143.27 95.1318 142.55 95.2868 141.69 95.2868H140.1V99.0668H137.535V88.5368H141.69C142.53 88.5368 143.24 88.6818 143.82 88.9718C144.4 89.2618 144.835 89.6618 145.125 90.1718C145.415 90.6818 145.56 91.2668 145.56 91.9268ZM141.495 93.2468C141.985 93.2468 142.35 93.1318 142.59 92.9018C142.83 92.6718 142.95 92.3468 142.95 91.9268C142.95 91.5068 142.83 91.1818 142.59 90.9518C142.35 90.7218 141.985 90.6068 141.495 90.6068H140.1V93.2468H141.495ZM149.461 92.0918C149.761 91.6318 150.136 91.2718 150.586 91.0118C151.036 90.7418 151.536 90.6068 152.086 90.6068V93.3218H151.381C150.741 93.3218 150.261 93.4618 149.941 93.7418C149.621 94.0118 149.461 94.4918 149.461 95.1818V99.0668H146.896V90.6968H149.461V92.0918ZM157.122 99.1868C156.302 99.1868 155.562 99.0118 154.902 98.6618C154.252 98.3118 153.737 97.8118 153.357 97.1618C152.987 96.5118 152.802 95.7518 152.802 94.8818C152.802 94.0218 152.992 93.2668 153.372 92.6168C153.752 91.9568 154.272 91.4518 154.932 91.1018C155.592 90.7518 156.332 90.5768 157.152 90.5768C157.972 90.5768 158.712 90.7518 159.372 91.1018C160.032 91.4518 160.552 91.9568 160.932 92.6168C161.312 93.2668 161.502 94.0218 161.502 94.8818C161.502 95.7418 161.307 96.5018 160.917 97.1618C160.537 97.8118 160.012 98.3118 159.342 98.6618C158.682 99.0118 157.942 99.1868 157.122 99.1868ZM157.122 96.9668C157.612 96.9668 158.027 96.7868 158.367 96.4268C158.717 96.0668 158.892 95.5518 158.892 94.8818C158.892 94.2118 158.722 93.6968 158.382 93.3368C158.052 92.9768 157.642 92.7968 157.152 92.7968C156.652 92.7968 156.237 92.9768 155.907 93.3368C155.577 93.6868 155.412 94.2018 155.412 94.8818C155.412 95.5518 155.572 96.0668 155.892 96.4268C156.222 96.7868 156.632 96.9668 157.122 96.9668Z" fill="white"/>
<circle cx="46" cy="96" r="14" fill="white"/>
<rect x="37.4009" y="101.412" width="16.941" height="2.42014" fill="#F89B29"/>
<path d="M45.984 85.4387L49.3375 98.8705H42.6306L45.984 85.4387Z" fill="#F89B29"/>
<path d="M37.7986 91.4284L41.9841 98.9509L37.9351 100.036L37.7986 91.4284Z" fill="#F89B29"/>
<ellipse cx="37.917" cy="91.66" rx="0.661017" ry="0.661017" transform="rotate(-15 37.917 91.66)" fill="#F89B29"/>
<path d="M54.1385 91.4285L54.0019 100.036L49.953 98.951L54.1385 91.4285Z" fill="#F89B29"/>
<ellipse cx="54.2213" cy="91.66" rx="0.661017" ry="0.661017" transform="rotate(15 54.2213 91.66)" fill="#F89B29"/>
<ellipse cx="46.0501" cy="85.261" rx="1.14482" ry="1.14482" fill="#F89B29"/>
</g>
<defs>
<filter id="filter0_d_358_1291" x="4" y="71" width="185" height="53" filterUnits="userSpaceOnUse" color-interpolation-filters="sRGB">
<feFlood flood-opacity="0" result="BackgroundImageFix"/>
<feColorMatrix in="SourceAlpha" type="matrix" values="0 0 0 0 0 0 0 0 0 0 0 0 0 0 0 0 0 0 127 0" result="hardAlpha"/>
<feOffset dx="-3" dy="3"/>
<feGaussianBlur stdDeviation="3"/>
<feComposite in2="hardAlpha" operator="out"/>
<feColorMatrix type="matrix" values="0 0 0 0 0 0 0 0 0 0 0 0 0 0 0 0 0 0 0.12 0"/>
<feBlend mode="normal" in2="BackgroundImageFix" result="effect1_dropShadow_358_1291"/>
<feBlend mode="normal" in="SourceGraphic" in2="effect1_dropShadow_358_1291" result="shape"/>
</filter>
</defs>
</svg>
