<svg width="62" height="158" viewBox="0 0 62 158" fill="none" xmlns="http://www.w3.org/2000/svg">
<path d="M0.869243 141.873C0.127187 143.038 0.469528 144.583 1.63388 145.325L20.6081 157.417C21.7725 158.16 23.3179 157.817 24.06 156.653C24.802 155.488 24.4597 153.943 23.2953 153.201L6.42935 142.452L17.1782 125.586C17.9203 124.422 17.5779 122.876 16.4136 122.134C15.2492 121.392 13.7038 121.735 12.9617 122.899L0.869243 141.873ZM17.5929 0.854337C16.4079 0.145748 14.8728 0.531997 14.1643 1.71702C13.4557 2.90204 13.8419 4.43711 15.0269 5.14568L17.5929 0.854337ZM3.51817 145.658C14.7296 143.174 26.401 135.984 36.28 125.986C46.1788 115.968 54.4321 102.98 58.6951 88.6678C62.9644 74.3352 63.2395 58.6328 57.0886 43.3243C50.9368 28.0138 38.4495 13.3254 17.5929 0.854337L15.0269 5.14568C35.1415 17.1731 46.7823 31.0849 52.4491 45.1885C58.1167 59.2941 57.9008 73.8196 53.9032 87.2404C49.8993 100.682 42.1098 112.973 32.7235 122.472C23.3174 131.991 12.4615 138.555 2.43681 140.776L3.51817 145.658Z" fill="#9610FF"/>
</svg>
