<svg width="134" height="48" viewBox="0 0 134 48" fill="none" xmlns="http://www.w3.org/2000/svg">
<path d="M121.703 46.8112C122.747 47.3561 124.035 46.9517 124.58 45.9078L133.46 28.897C134.005 27.8532 133.601 26.5652 132.557 26.0202C131.513 25.4753 130.225 25.8798 129.68 26.9236L121.786 42.0443L106.665 34.1506C105.622 33.6056 104.334 34.0101 103.789 35.054C103.244 36.0978 103.648 37.3858 104.692 37.9308L121.703 46.8112ZM0.652269 42.9644C0.137288 44.0233 0.578277 45.2993 1.63724 45.8142C2.69621 46.3292 3.97215 45.8882 4.48714 44.8293L0.652269 42.9644ZM124.724 44.2823C121.79 34.9387 114.823 25.55 105.602 17.8906C96.3623 10.216 84.7193 4.15779 72.2456 1.58731C59.7536 -0.98694 46.3914 -0.0668166 33.836 6.28451C21.2789 12.6367 9.71606 24.3264 0.652269 42.9644L4.48714 44.8293C13.2285 26.8544 24.1937 15.941 35.7609 10.0896C47.3297 4.23738 59.6876 3.35334 71.3849 5.76383C83.1005 8.17809 94.1158 13.8935 102.877 21.1709C111.656 28.4635 118.032 37.2053 120.655 45.5599L124.724 44.2823Z" fill="#950FFF"/>
</svg>
