<svg width="699" height="691" viewBox="0 0 699 691" fill="none" xmlns="http://www.w3.org/2000/svg">
<path d="M327 143.5V98" stroke="#2D2D2D" stroke-width="2"/>
<circle cx="327" cy="95" r="17" fill="#2D2D2D"/>
<circle cx="327" cy="95" r="4" fill="white"/>
<g filter="url(#filter0_d_196_2315)">
<rect x="78" y="141" width="497" height="457" rx="69" fill="white"/>
<rect x="85" y="148" width="483" height="443" rx="62" stroke="url(#paint0_linear_196_2315)" stroke-width="14"/>
</g>
<path d="M205.64 334.28C203.587 334.28 201.747 333.947 200.12 333.28C198.493 332.613 197.187 331.627 196.2 330.32C195.24 329.013 194.733 327.44 194.68 325.6H201.96C202.067 326.64 202.427 327.44 203.04 328C203.653 328.533 204.453 328.8 205.44 328.8C206.453 328.8 207.253 328.573 207.84 328.12C208.427 327.64 208.72 326.987 208.72 326.16C208.72 325.467 208.48 324.893 208 324.44C207.547 323.987 206.973 323.613 206.28 323.32C205.613 323.027 204.653 322.693 203.4 322.32C201.587 321.76 200.107 321.2 198.96 320.64C197.813 320.08 196.827 319.253 196 318.16C195.173 317.067 194.76 315.64 194.76 313.88C194.76 311.267 195.707 309.227 197.6 307.76C199.493 306.267 201.96 305.52 205 305.52C208.093 305.52 210.587 306.267 212.48 307.76C214.373 309.227 215.387 311.28 215.52 313.92H208.12C208.067 313.013 207.733 312.307 207.12 311.8C206.507 311.267 205.72 311 204.76 311C203.933 311 203.267 311.227 202.76 311.68C202.253 312.107 202 312.733 202 313.56C202 314.467 202.427 315.173 203.28 315.68C204.133 316.187 205.467 316.733 207.28 317.32C209.093 317.933 210.56 318.52 211.68 319.08C212.827 319.64 213.813 320.453 214.64 321.52C215.467 322.587 215.88 323.96 215.88 325.64C215.88 327.24 215.467 328.693 214.64 330C213.84 331.307 212.667 332.347 211.12 333.12C209.573 333.893 207.747 334.28 205.64 334.28ZM232.529 328.2V334H229.049C226.569 334 224.636 333.4 223.249 332.2C221.863 330.973 221.169 328.987 221.169 326.24V317.36H218.449V311.68H221.169V306.24H228.009V311.68H232.489V317.36H228.009V326.32C228.009 326.987 228.169 327.467 228.489 327.76C228.809 328.053 229.343 328.2 230.089 328.2H232.529ZM234.979 322.8C234.979 320.507 235.406 318.493 236.259 316.76C237.139 315.027 238.326 313.693 239.819 312.76C241.313 311.827 242.979 311.36 244.819 311.36C246.393 311.36 247.766 311.68 248.939 312.32C250.139 312.96 251.059 313.8 251.699 314.84V311.68H258.539V334H251.699V330.84C251.033 331.88 250.099 332.72 248.899 333.36C247.726 334 246.353 334.32 244.779 334.32C242.966 334.32 241.313 333.853 239.819 332.92C238.326 331.96 237.139 330.613 236.259 328.88C235.406 327.12 234.979 325.093 234.979 322.8ZM251.699 322.84C251.699 321.133 251.219 319.787 250.259 318.8C249.326 317.813 248.179 317.32 246.819 317.32C245.459 317.32 244.299 317.813 243.339 318.8C242.406 319.76 241.939 321.093 241.939 322.8C241.939 324.507 242.406 325.867 243.339 326.88C244.299 327.867 245.459 328.36 246.819 328.36C248.179 328.36 249.326 327.867 250.259 326.88C251.219 325.893 251.699 324.547 251.699 322.84ZM270.328 315.4C271.128 314.173 272.128 313.213 273.328 312.52C274.528 311.8 275.861 311.44 277.328 311.44V318.68H275.448C273.741 318.68 272.461 319.053 271.608 319.8C270.754 320.52 270.328 321.8 270.328 323.64V334H263.488V311.68H270.328V315.4ZM293.037 328.2V334H289.557C287.077 334 285.144 333.4 283.757 332.2C282.371 330.973 281.677 328.987 281.677 326.24V317.36H278.957V311.68H281.677V306.24H288.517V311.68H292.997V317.36H288.517V326.32C288.517 326.987 288.677 327.467 288.997 327.76C289.317 328.053 289.851 328.2 290.597 328.2H293.037ZM316.524 317.36H312.844V334H306.004V317.36H303.524V311.68H306.004V311.04C306.004 308.293 306.79 306.213 308.364 304.8C309.937 303.36 312.244 302.64 315.284 302.64C315.79 302.64 316.164 302.653 316.404 302.68V308.48C315.097 308.4 314.177 308.587 313.644 309.04C313.11 309.493 312.844 310.307 312.844 311.48V311.68H316.524V317.36ZM329.898 334.32C327.711 334.32 325.738 333.853 323.978 332.92C322.244 331.987 320.871 330.653 319.858 328.92C318.871 327.187 318.378 325.16 318.378 322.84C318.378 320.547 318.884 318.533 319.898 316.8C320.911 315.04 322.298 313.693 324.058 312.76C325.818 311.827 327.791 311.36 329.978 311.36C332.164 311.36 334.138 311.827 335.898 312.76C337.658 313.693 339.044 315.04 340.058 316.8C341.071 318.533 341.578 320.547 341.578 322.84C341.578 325.133 341.058 327.16 340.018 328.92C339.004 330.653 337.604 331.987 335.818 332.92C334.058 333.853 332.084 334.32 329.898 334.32ZM329.898 328.4C331.204 328.4 332.311 327.92 333.218 326.96C334.151 326 334.618 324.627 334.618 322.84C334.618 321.053 334.164 319.68 333.258 318.72C332.378 317.76 331.284 317.28 329.978 317.28C328.644 317.28 327.538 317.76 326.658 318.72C325.778 319.653 325.338 321.027 325.338 322.84C325.338 324.627 325.764 326 326.618 326.96C327.498 327.92 328.591 328.4 329.898 328.4ZM352.047 315.4C352.847 314.173 353.847 313.213 355.047 312.52C356.247 311.8 357.58 311.44 359.047 311.44V318.68H357.167C355.46 318.68 354.18 319.053 353.327 319.8C352.473 320.52 352.047 321.8 352.047 323.64V334H345.207V311.68H352.047V315.4ZM381.993 317.36H378.312V334H371.473V317.36H368.993V311.68H371.473V311.04C371.473 308.293 372.259 306.213 373.833 304.8C375.406 303.36 377.713 302.64 380.753 302.64C381.259 302.64 381.633 302.653 381.873 302.68V308.48C380.566 308.4 379.646 308.587 379.113 309.04C378.579 309.493 378.312 310.307 378.312 311.48V311.68H381.993V317.36ZM392.047 315.4C392.847 314.173 393.847 313.213 395.047 312.52C396.247 311.8 397.58 311.44 399.047 311.44V318.68H397.167C395.46 318.68 394.18 319.053 393.327 319.8C392.473 320.52 392.047 321.8 392.047 323.64V334H385.207V311.68H392.047V315.4ZM423.356 322.48C423.356 323.12 423.316 323.787 423.236 324.48H407.756C407.863 325.867 408.303 326.933 409.076 327.68C409.876 328.4 410.849 328.76 411.996 328.76C413.703 328.76 414.889 328.04 415.556 326.6H422.836C422.463 328.067 421.783 329.387 420.796 330.56C419.836 331.733 418.623 332.653 417.156 333.32C415.689 333.987 414.049 334.32 412.236 334.32C410.049 334.32 408.103 333.853 406.396 332.92C404.689 331.987 403.356 330.653 402.396 328.92C401.436 327.187 400.956 325.16 400.956 322.84C400.956 320.52 401.423 318.493 402.356 316.76C403.316 315.027 404.649 313.693 406.356 312.76C408.063 311.827 410.023 311.36 412.236 311.36C414.396 311.36 416.316 311.813 417.996 312.72C419.676 313.627 420.983 314.92 421.916 316.6C422.876 318.28 423.356 320.24 423.356 322.48ZM416.356 320.68C416.356 319.507 415.956 318.573 415.156 317.88C414.356 317.187 413.356 316.84 412.156 316.84C411.009 316.84 410.036 317.173 409.236 317.84C408.463 318.507 407.983 319.453 407.796 320.68H416.356ZM448.004 322.48C448.004 323.12 447.964 323.787 447.884 324.48H432.404C432.511 325.867 432.951 326.933 433.724 327.68C434.524 328.4 435.498 328.76 436.644 328.76C438.351 328.76 439.538 328.04 440.204 326.6H447.484C447.111 328.067 446.431 329.387 445.444 330.56C444.484 331.733 443.271 332.653 441.804 333.32C440.338 333.987 438.698 334.32 436.884 334.32C434.698 334.32 432.751 333.853 431.044 332.92C429.338 331.987 428.004 330.653 427.044 328.92C426.084 327.187 425.604 325.16 425.604 322.84C425.604 320.52 426.071 318.493 427.004 316.76C427.964 315.027 429.298 313.693 431.004 312.76C432.711 311.827 434.671 311.36 436.884 311.36C439.044 311.36 440.964 311.813 442.644 312.72C444.324 313.627 445.631 314.92 446.564 316.6C447.524 318.28 448.004 320.24 448.004 322.48ZM441.004 320.68C441.004 319.507 440.604 318.573 439.804 317.88C439.004 317.187 438.004 316.84 436.804 316.84C435.658 316.84 434.684 317.173 433.884 317.84C433.111 318.507 432.631 319.453 432.444 320.68H441.004ZM454.813 334.32C453.613 334.32 452.626 333.973 451.853 333.28C451.106 332.56 450.733 331.68 450.733 330.64C450.733 329.573 451.106 328.68 451.853 327.96C452.626 327.24 453.613 326.88 454.813 326.88C455.986 326.88 456.946 327.24 457.693 327.96C458.466 328.68 458.853 329.573 458.853 330.64C458.853 331.68 458.466 332.56 457.693 333.28C456.946 333.973 455.986 334.32 454.813 334.32Z" fill="#2D2D2D"/>
<path d="M171.232 413.14C170.299 413.14 169.459 412.98 168.712 412.66C167.966 412.327 167.379 411.86 166.952 411.26C166.526 410.66 166.312 409.96 166.312 409.16H168.752C168.806 409.76 169.039 410.253 169.452 410.64C169.879 411.027 170.472 411.22 171.232 411.22C172.019 411.22 172.632 411.033 173.072 410.66C173.512 410.273 173.732 409.78 173.732 409.18C173.732 408.713 173.592 408.333 173.312 408.04C173.046 407.747 172.706 407.52 172.292 407.36C171.892 407.2 171.332 407.027 170.612 406.84C169.706 406.6 168.966 406.36 168.392 406.12C167.832 405.867 167.352 405.48 166.952 404.96C166.552 404.44 166.352 403.747 166.352 402.88C166.352 402.08 166.552 401.38 166.952 400.78C167.352 400.18 167.912 399.72 168.632 399.4C169.352 399.08 170.186 398.92 171.132 398.92C172.479 398.92 173.579 399.26 174.432 399.94C175.299 400.607 175.779 401.527 175.872 402.7H173.352C173.312 402.193 173.072 401.76 172.632 401.4C172.192 401.04 171.612 400.86 170.892 400.86C170.239 400.86 169.706 401.027 169.292 401.36C168.879 401.693 168.672 402.173 168.672 402.8C168.672 403.227 168.799 403.58 169.052 403.86C169.319 404.127 169.652 404.34 170.052 404.5C170.452 404.66 170.999 404.833 171.692 405.02C172.612 405.273 173.359 405.527 173.932 405.78C174.519 406.033 175.012 406.427 175.412 406.96C175.826 407.48 176.032 408.18 176.032 409.06C176.032 409.767 175.839 410.433 175.452 411.06C175.079 411.687 174.526 412.193 173.792 412.58C173.072 412.953 172.219 413.14 171.232 413.14ZM181.383 403.84V409.94C181.383 410.353 181.476 410.653 181.663 410.84C181.863 411.013 182.196 411.1 182.663 411.1H184.063V413H182.263C181.236 413 180.449 412.76 179.903 412.28C179.356 411.8 179.083 411.02 179.083 409.94V403.84H177.783V401.98H179.083V399.24H181.383V401.98H184.063V403.84H181.383ZM185.404 407.44C185.404 406.333 185.631 405.353 186.084 404.5C186.551 403.647 187.177 402.987 187.964 402.52C188.764 402.04 189.644 401.8 190.604 401.8C191.471 401.8 192.224 401.973 192.864 402.32C193.517 402.653 194.037 403.073 194.424 403.58V401.98H196.724V413H194.424V411.36C194.037 411.88 193.511 412.313 192.844 412.66C192.177 413.007 191.417 413.18 190.564 413.18C189.617 413.18 188.751 412.94 187.964 412.46C187.177 411.967 186.551 411.287 186.084 410.42C185.631 409.54 185.404 408.547 185.404 407.44ZM194.424 407.48C194.424 406.72 194.264 406.06 193.944 405.5C193.637 404.94 193.231 404.513 192.724 404.22C192.217 403.927 191.671 403.78 191.084 403.78C190.497 403.78 189.951 403.927 189.444 404.22C188.937 404.5 188.524 404.92 188.204 405.48C187.897 406.027 187.744 406.68 187.744 407.44C187.744 408.2 187.897 408.867 188.204 409.44C188.524 410.013 188.937 410.453 189.444 410.76C189.964 411.053 190.511 411.2 191.084 411.2C191.671 411.2 192.217 411.053 192.724 410.76C193.231 410.467 193.637 410.04 193.944 409.48C194.264 408.907 194.424 408.24 194.424 407.48ZM201.999 403.58C202.332 403.02 202.772 402.587 203.319 402.28C203.879 401.96 204.539 401.8 205.299 401.8V404.16H204.719C203.825 404.16 203.145 404.387 202.679 404.84C202.225 405.293 201.999 406.08 201.999 407.2V413H199.719V401.98H201.999V403.58ZM210.055 403.84V409.94C210.055 410.353 210.148 410.653 210.335 410.84C210.535 411.013 210.868 411.1 211.335 411.1H212.735V413H210.935C209.908 413 209.121 412.76 208.575 412.28C208.028 411.8 207.755 411.02 207.755 409.94V403.84H206.455V401.98H207.755V399.24H210.055V401.98H212.735V403.84H210.055ZM219.271 407.48C219.271 406.347 219.498 405.353 219.951 404.5C220.418 403.633 221.058 402.967 221.871 402.5C222.685 402.033 223.618 401.8 224.671 401.8C226.005 401.8 227.105 402.12 227.971 402.76C228.851 403.387 229.445 404.287 229.751 405.46H227.291C227.091 404.913 226.771 404.487 226.331 404.18C225.891 403.873 225.338 403.72 224.671 403.72C223.738 403.72 222.991 404.053 222.431 404.72C221.885 405.373 221.611 406.293 221.611 407.48C221.611 408.667 221.885 409.593 222.431 410.26C222.991 410.927 223.738 411.26 224.671 411.26C225.991 411.26 226.865 410.68 227.291 409.52H229.751C229.431 410.64 228.831 411.533 227.951 412.2C227.071 412.853 225.978 413.18 224.671 413.18C223.618 413.18 222.685 412.947 221.871 412.48C221.058 412 220.418 411.333 219.951 410.48C219.498 409.613 219.271 408.613 219.271 407.48ZM234.303 403.58C234.637 403.02 235.077 402.587 235.623 402.28C236.183 401.96 236.843 401.8 237.603 401.8V404.16H237.023C236.13 404.16 235.45 404.387 234.983 404.84C234.53 405.293 234.303 406.08 234.303 407.2V413H232.023V401.98H234.303V403.58ZM249.799 407.22C249.799 407.633 249.773 408.007 249.719 408.34H241.299C241.366 409.22 241.693 409.927 242.279 410.46C242.866 410.993 243.586 411.26 244.439 411.26C245.666 411.26 246.533 410.747 247.039 409.72H249.499C249.166 410.733 248.559 411.567 247.679 412.22C246.813 412.86 245.733 413.18 244.439 413.18C243.386 413.18 242.439 412.947 241.599 412.48C240.773 412 240.119 411.333 239.639 410.48C239.173 409.613 238.939 408.613 238.939 407.48C238.939 406.347 239.166 405.353 239.619 404.5C240.086 403.633 240.733 402.967 241.559 402.5C242.399 402.033 243.359 401.8 244.439 401.8C245.479 401.8 246.406 402.027 247.219 402.48C248.033 402.933 248.666 403.573 249.119 404.4C249.573 405.213 249.799 406.153 249.799 407.22ZM247.419 406.5C247.406 405.66 247.106 404.987 246.519 404.48C245.933 403.973 245.206 403.72 244.339 403.72C243.553 403.72 242.879 403.973 242.319 404.48C241.759 404.973 241.426 405.647 241.319 406.5H247.419ZM251.283 407.44C251.283 406.333 251.51 405.353 251.963 404.5C252.43 403.647 253.056 402.987 253.843 402.52C254.643 402.04 255.523 401.8 256.483 401.8C257.35 401.8 258.103 401.973 258.743 402.32C259.396 402.653 259.916 403.073 260.303 403.58V401.98H262.603V413H260.303V411.36C259.916 411.88 259.39 412.313 258.723 412.66C258.056 413.007 257.296 413.18 256.443 413.18C255.496 413.18 254.63 412.94 253.843 412.46C253.056 411.967 252.43 411.287 251.963 410.42C251.51 409.54 251.283 408.547 251.283 407.44ZM260.303 407.48C260.303 406.72 260.143 406.06 259.823 405.5C259.516 404.94 259.11 404.513 258.603 404.22C258.096 403.927 257.55 403.78 256.963 403.78C256.376 403.78 255.83 403.927 255.323 404.22C254.816 404.5 254.403 404.92 254.083 405.48C253.776 406.027 253.623 406.68 253.623 407.44C253.623 408.2 253.776 408.867 254.083 409.44C254.403 410.013 254.816 410.453 255.323 410.76C255.843 411.053 256.39 411.2 256.963 411.2C257.55 411.2 258.096 411.053 258.603 410.76C259.11 410.467 259.516 410.04 259.823 409.48C260.143 408.907 260.303 408.24 260.303 407.48ZM268.258 403.84V409.94C268.258 410.353 268.351 410.653 268.538 410.84C268.738 411.013 269.071 411.1 269.538 411.1H270.938V413H269.138C268.111 413 267.324 412.76 266.778 412.28C266.231 411.8 265.958 411.02 265.958 409.94V403.84H264.658V401.98H265.958V399.24H268.258V401.98H270.938V403.84H268.258ZM274.199 400.52C273.786 400.52 273.439 400.38 273.159 400.1C272.879 399.82 272.739 399.473 272.739 399.06C272.739 398.647 272.879 398.3 273.159 398.02C273.439 397.74 273.786 397.6 274.199 397.6C274.599 397.6 274.939 397.74 275.219 398.02C275.499 398.3 275.639 398.647 275.639 399.06C275.639 399.473 275.499 399.82 275.219 400.1C274.939 400.38 274.599 400.52 274.199 400.52ZM275.319 401.98V413H273.039V401.98H275.319ZM283.873 401.8C284.739 401.8 285.513 401.98 286.193 402.34C286.886 402.7 287.426 403.233 287.813 403.94C288.199 404.647 288.393 405.5 288.393 406.5V413H286.133V406.84C286.133 405.853 285.886 405.1 285.393 404.58C284.899 404.047 284.226 403.78 283.373 403.78C282.519 403.78 281.839 404.047 281.333 404.58C280.839 405.1 280.593 405.853 280.593 406.84V413H278.313V401.98H280.593V403.24C280.966 402.787 281.439 402.433 282.013 402.18C282.599 401.927 283.219 401.8 283.873 401.8ZM295.741 401.8C296.594 401.8 297.347 401.973 298.001 402.32C298.667 402.653 299.187 403.073 299.561 403.58V401.98H301.861V413.18C301.861 414.193 301.647 415.093 301.221 415.88C300.794 416.68 300.174 417.307 299.361 417.76C298.561 418.213 297.601 418.44 296.481 418.44C294.987 418.44 293.747 418.087 292.761 417.38C291.774 416.687 291.214 415.74 291.081 414.54H293.341C293.514 415.113 293.881 415.573 294.441 415.92C295.014 416.28 295.694 416.46 296.481 416.46C297.401 416.46 298.141 416.18 298.701 415.62C299.274 415.06 299.561 414.247 299.561 413.18V411.34C299.174 411.86 298.647 412.3 297.981 412.66C297.327 413.007 296.581 413.18 295.741 413.18C294.781 413.18 293.901 412.94 293.101 412.46C292.314 411.967 291.687 411.287 291.221 410.42C290.767 409.54 290.541 408.547 290.541 407.44C290.541 406.333 290.767 405.353 291.221 404.5C291.687 403.647 292.314 402.987 293.101 402.52C293.901 402.04 294.781 401.8 295.741 401.8ZM299.561 407.48C299.561 406.72 299.401 406.06 299.081 405.5C298.774 404.94 298.367 404.513 297.861 404.22C297.354 403.927 296.807 403.78 296.221 403.78C295.634 403.78 295.087 403.927 294.581 404.22C294.074 404.5 293.661 404.92 293.341 405.48C293.034 406.027 292.881 406.68 292.881 407.44C292.881 408.2 293.034 408.867 293.341 409.44C293.661 410.013 294.074 410.453 294.581 410.76C295.101 411.053 295.647 411.2 296.221 411.2C296.807 411.2 297.354 411.053 297.861 410.76C298.367 410.467 298.774 410.04 299.081 409.48C299.401 408.907 299.561 408.24 299.561 407.48ZM319.971 401.98L313.211 418.18H310.851L313.091 412.82L308.751 401.98H311.291L314.391 410.38L317.611 401.98H319.971ZM326.471 413.18C325.431 413.18 324.491 412.947 323.651 412.48C322.811 412 322.151 411.333 321.671 410.48C321.191 409.613 320.951 408.613 320.951 407.48C320.951 406.36 321.198 405.367 321.691 404.5C322.185 403.633 322.858 402.967 323.711 402.5C324.565 402.033 325.518 401.8 326.571 401.8C327.625 401.8 328.578 402.033 329.431 402.5C330.285 402.967 330.958 403.633 331.451 404.5C331.945 405.367 332.191 406.36 332.191 407.48C332.191 408.6 331.938 409.593 331.431 410.46C330.925 411.327 330.231 412 329.351 412.48C328.485 412.947 327.525 413.18 326.471 413.18ZM326.471 411.2C327.058 411.2 327.605 411.06 328.111 410.78C328.631 410.5 329.051 410.08 329.371 409.52C329.691 408.96 329.851 408.28 329.851 407.48C329.851 406.68 329.698 406.007 329.391 405.46C329.085 404.9 328.678 404.48 328.171 404.2C327.665 403.92 327.118 403.78 326.531 403.78C325.945 403.78 325.398 403.92 324.891 404.2C324.398 404.48 324.005 404.9 323.711 405.46C323.418 406.007 323.271 406.68 323.271 407.48C323.271 408.667 323.571 409.587 324.171 410.24C324.785 410.88 325.551 411.2 326.471 411.2ZM344.425 401.98V413H342.145V411.7C341.785 412.153 341.312 412.513 340.725 412.78C340.152 413.033 339.539 413.16 338.885 413.16C338.019 413.16 337.239 412.98 336.545 412.62C335.865 412.26 335.325 411.727 334.925 411.02C334.539 410.313 334.345 409.46 334.345 408.46V401.98H336.605V408.12C336.605 409.107 336.852 409.867 337.345 410.4C337.839 410.92 338.512 411.18 339.365 411.18C340.219 411.18 340.892 410.92 341.385 410.4C341.892 409.867 342.145 409.107 342.145 408.12V401.98H344.425ZM349.714 403.58C350.047 403.02 350.487 402.587 351.034 402.28C351.594 401.96 352.254 401.8 353.014 401.8V404.16H352.434C351.54 404.16 350.86 404.387 350.394 404.84C349.94 405.293 349.714 406.08 349.714 407.2V413H347.434V401.98H349.714V403.58ZM362.585 403.6C362.971 403.093 363.498 402.667 364.165 402.32C364.831 401.973 365.585 401.8 366.425 401.8C367.385 401.8 368.258 402.04 369.045 402.52C369.845 402.987 370.471 403.647 370.925 404.5C371.378 405.353 371.605 406.333 371.605 407.44C371.605 408.547 371.378 409.54 370.925 410.42C370.471 411.287 369.845 411.967 369.045 412.46C368.258 412.94 367.385 413.18 366.425 413.18C365.585 413.18 364.838 413.013 364.185 412.68C363.531 412.333 362.998 411.907 362.585 411.4V418.24H360.305V401.98H362.585V403.6ZM369.285 407.44C369.285 406.68 369.125 406.027 368.805 405.48C368.498 404.92 368.085 404.5 367.565 404.22C367.058 403.927 366.511 403.78 365.925 403.78C365.351 403.78 364.805 403.927 364.285 404.22C363.778 404.513 363.365 404.94 363.045 405.5C362.738 406.06 362.585 406.72 362.585 407.48C362.585 408.24 362.738 408.907 363.045 409.48C363.365 410.04 363.778 410.467 364.285 410.76C364.805 411.053 365.351 411.2 365.925 411.2C366.511 411.2 367.058 411.053 367.565 410.76C368.085 410.453 368.498 410.013 368.805 409.44C369.125 408.867 369.285 408.2 369.285 407.44ZM376.139 403.58C376.473 403.02 376.913 402.587 377.459 402.28C378.019 401.96 378.679 401.8 379.439 401.8V404.16H378.859C377.966 404.16 377.286 404.387 376.819 404.84C376.366 405.293 376.139 406.08 376.139 407.2V413H373.859V401.98H376.139V403.58ZM391.635 407.22C391.635 407.633 391.608 408.007 391.555 408.34H383.135C383.202 409.22 383.528 409.927 384.115 410.46C384.702 410.993 385.422 411.26 386.275 411.26C387.502 411.26 388.368 410.747 388.875 409.72H391.335C391.002 410.733 390.395 411.567 389.515 412.22C388.648 412.86 387.568 413.18 386.275 413.18C385.222 413.18 384.275 412.947 383.435 412.48C382.608 412 381.955 411.333 381.475 410.48C381.008 409.613 380.775 408.613 380.775 407.48C380.775 406.347 381.002 405.353 381.455 404.5C381.922 403.633 382.568 402.967 383.395 402.5C384.235 402.033 385.195 401.8 386.275 401.8C387.315 401.8 388.242 402.027 389.055 402.48C389.868 402.933 390.502 403.573 390.955 404.4C391.408 405.213 391.635 406.153 391.635 407.22ZM389.255 406.5C389.242 405.66 388.942 404.987 388.355 404.48C387.768 403.973 387.042 403.72 386.175 403.72C385.388 403.72 384.715 403.973 384.155 404.48C383.595 404.973 383.262 405.647 383.155 406.5H389.255ZM397.879 413.18C397.012 413.18 396.232 413.027 395.539 412.72C394.859 412.4 394.319 411.973 393.919 411.44C393.519 410.893 393.306 410.287 393.279 409.62H395.639C395.679 410.087 395.899 410.48 396.299 410.8C396.712 411.107 397.226 411.26 397.839 411.26C398.479 411.26 398.972 411.14 399.319 410.9C399.679 410.647 399.859 410.327 399.859 409.94C399.859 409.527 399.659 409.22 399.259 409.02C398.872 408.82 398.252 408.6 397.399 408.36C396.572 408.133 395.899 407.913 395.379 407.7C394.859 407.487 394.406 407.16 394.019 406.72C393.646 406.28 393.459 405.7 393.459 404.98C393.459 404.393 393.632 403.86 393.979 403.38C394.326 402.887 394.819 402.5 395.459 402.22C396.112 401.94 396.859 401.8 397.699 401.8C398.952 401.8 399.959 402.12 400.719 402.76C401.492 403.387 401.906 404.247 401.959 405.34H399.679C399.639 404.847 399.439 404.453 399.079 404.16C398.719 403.867 398.232 403.72 397.619 403.72C397.019 403.72 396.559 403.833 396.239 404.06C395.919 404.287 395.759 404.587 395.759 404.96C395.759 405.253 395.866 405.5 396.079 405.7C396.292 405.9 396.552 406.06 396.859 406.18C397.166 406.287 397.619 406.427 398.219 406.6C399.019 406.813 399.672 407.033 400.179 407.26C400.699 407.473 401.146 407.793 401.519 408.22C401.892 408.647 402.086 409.213 402.099 409.92C402.099 410.547 401.926 411.107 401.579 411.6C401.232 412.093 400.739 412.48 400.099 412.76C399.472 413.04 398.732 413.18 397.879 413.18ZM414.663 407.22C414.663 407.633 414.636 408.007 414.583 408.34H406.163C406.229 409.22 406.556 409.927 407.143 410.46C407.729 410.993 408.449 411.26 409.303 411.26C410.529 411.26 411.396 410.747 411.903 409.72H414.362C414.029 410.733 413.423 411.567 412.543 412.22C411.676 412.86 410.596 413.18 409.303 413.18C408.249 413.18 407.303 412.947 406.463 412.48C405.636 412 404.983 411.333 404.503 410.48C404.036 409.613 403.803 408.613 403.803 407.48C403.803 406.347 404.029 405.353 404.483 404.5C404.949 403.633 405.596 402.967 406.423 402.5C407.263 402.033 408.223 401.8 409.303 401.8C410.343 401.8 411.269 402.027 412.083 402.48C412.896 402.933 413.529 403.573 413.983 404.4C414.436 405.213 414.663 406.153 414.663 407.22ZM412.283 406.5C412.269 405.66 411.969 404.987 411.383 404.48C410.796 403.973 410.069 403.72 409.203 403.72C408.416 403.72 407.743 403.973 407.183 404.48C406.623 404.973 406.289 405.647 406.183 406.5H412.283ZM422.466 401.8C423.333 401.8 424.106 401.98 424.786 402.34C425.48 402.7 426.02 403.233 426.406 403.94C426.793 404.647 426.986 405.5 426.986 406.5V413H424.726V406.84C424.726 405.853 424.48 405.1 423.986 404.58C423.493 404.047 422.82 403.78 421.966 403.78C421.113 403.78 420.433 404.047 419.926 404.58C419.433 405.1 419.186 405.853 419.186 406.84V413H416.906V401.98H419.186V403.24C419.56 402.787 420.033 402.433 420.606 402.18C421.193 401.927 421.813 401.8 422.466 401.8ZM432.555 403.84V409.94C432.555 410.353 432.648 410.653 432.835 410.84C433.035 411.013 433.368 411.1 433.835 411.1H435.235V413H433.435C432.408 413 431.621 412.76 431.075 412.28C430.528 411.8 430.255 411.02 430.255 409.94V403.84H428.955V401.98H430.255V399.24H432.555V401.98H435.235V403.84H432.555ZM436.576 407.44C436.576 406.333 436.803 405.353 437.256 404.5C437.723 403.647 438.349 402.987 439.136 402.52C439.936 402.04 440.816 401.8 441.776 401.8C442.643 401.8 443.396 401.973 444.036 402.32C444.689 402.653 445.209 403.073 445.596 403.58V401.98H447.896V413H445.596V411.36C445.209 411.88 444.683 412.313 444.016 412.66C443.349 413.007 442.589 413.18 441.736 413.18C440.789 413.18 439.923 412.94 439.136 412.46C438.349 411.967 437.723 411.287 437.256 410.42C436.803 409.54 436.576 408.547 436.576 407.44ZM445.596 407.48C445.596 406.72 445.436 406.06 445.116 405.5C444.809 404.94 444.403 404.513 443.896 404.22C443.389 403.927 442.843 403.78 442.256 403.78C441.669 403.78 441.123 403.927 440.616 404.22C440.109 404.5 439.696 404.92 439.376 405.48C439.069 406.027 438.916 406.68 438.916 407.44C438.916 408.2 439.069 408.867 439.376 409.44C439.696 410.013 440.109 410.453 440.616 410.76C441.136 411.053 441.683 411.2 442.256 411.2C442.843 411.2 443.389 411.053 443.896 410.76C444.403 410.467 444.809 410.04 445.116 409.48C445.436 408.907 445.596 408.24 445.596 407.48ZM453.551 403.84V409.94C453.551 410.353 453.644 410.653 453.831 410.84C454.031 411.013 454.364 411.1 454.831 411.1H456.231V413H454.431C453.404 413 452.617 412.76 452.071 412.28C451.524 411.8 451.251 411.02 451.251 409.94V403.84H449.951V401.98H451.251V399.24H453.551V401.98H456.231V403.84H453.551ZM459.492 400.52C459.079 400.52 458.732 400.38 458.452 400.1C458.172 399.82 458.032 399.473 458.032 399.06C458.032 398.647 458.172 398.3 458.452 398.02C458.732 397.74 459.079 397.6 459.492 397.6C459.892 397.6 460.232 397.74 460.512 398.02C460.792 398.3 460.932 398.647 460.932 399.06C460.932 399.473 460.792 399.82 460.512 400.1C460.232 400.38 459.892 400.52 459.492 400.52ZM460.612 401.98V413H458.332V401.98H460.612ZM468.385 413.18C467.345 413.18 466.405 412.947 465.565 412.48C464.725 412 464.065 411.333 463.585 410.48C463.105 409.613 462.865 408.613 462.865 407.48C462.865 406.36 463.112 405.367 463.605 404.5C464.099 403.633 464.772 402.967 465.625 402.5C466.479 402.033 467.432 401.8 468.485 401.8C469.539 401.8 470.492 402.033 471.345 402.5C472.199 402.967 472.872 403.633 473.365 404.5C473.859 405.367 474.105 406.36 474.105 407.48C474.105 408.6 473.852 409.593 473.345 410.46C472.839 411.327 472.145 412 471.265 412.48C470.399 412.947 469.439 413.18 468.385 413.18ZM468.385 411.2C468.972 411.2 469.519 411.06 470.025 410.78C470.545 410.5 470.965 410.08 471.285 409.52C471.605 408.96 471.765 408.28 471.765 407.48C471.765 406.68 471.612 406.007 471.305 405.46C470.999 404.9 470.592 404.48 470.085 404.2C469.579 403.92 469.032 403.78 468.445 403.78C467.859 403.78 467.312 403.92 466.805 404.2C466.312 404.48 465.919 404.9 465.625 405.46C465.332 406.007 465.185 406.68 465.185 407.48C465.185 408.667 465.485 409.587 466.085 410.24C466.699 410.88 467.465 411.2 468.385 411.2ZM481.919 401.8C482.786 401.8 483.559 401.98 484.239 402.34C484.933 402.7 485.473 403.233 485.859 403.94C486.246 404.647 486.439 405.5 486.439 406.5V413H484.179V406.84C484.179 405.853 483.933 405.1 483.439 404.58C482.946 404.047 482.273 403.78 481.419 403.78C480.566 403.78 479.886 404.047 479.379 404.58C478.886 405.1 478.639 405.853 478.639 406.84V413H476.359V401.98H478.639V403.24C479.013 402.787 479.486 402.433 480.059 402.18C480.646 401.927 481.266 401.8 481.919 401.8ZM167.721 440.62C168.108 440.087 168.635 439.653 169.301 439.32C169.981 438.973 170.735 438.8 171.561 438.8C172.535 438.8 173.415 439.033 174.201 439.5C174.988 439.967 175.608 440.633 176.061 441.5C176.515 442.353 176.741 443.333 176.741 444.44C176.741 445.547 176.515 446.54 176.061 447.42C175.608 448.287 174.981 448.967 174.181 449.46C173.395 449.94 172.521 450.18 171.561 450.18C170.708 450.18 169.948 450.013 169.281 449.68C168.628 449.347 168.108 448.92 167.721 448.4V450H165.441V435.2H167.721V440.62ZM174.421 444.44C174.421 443.68 174.261 443.027 173.941 442.48C173.635 441.92 173.221 441.5 172.701 441.22C172.195 440.927 171.648 440.78 171.061 440.78C170.488 440.78 169.941 440.927 169.421 441.22C168.915 441.513 168.501 441.94 168.181 442.5C167.875 443.06 167.721 443.72 167.721 444.48C167.721 445.24 167.875 445.907 168.181 446.48C168.501 447.04 168.915 447.467 169.421 447.76C169.941 448.053 170.488 448.2 171.061 448.2C171.648 448.2 172.195 448.053 172.701 447.76C173.221 447.453 173.635 447.013 173.941 446.44C174.261 445.867 174.421 445.2 174.421 444.44ZM188.916 438.98L182.156 455.18H179.796L182.036 449.82L177.696 438.98H180.236L183.336 447.38L186.556 438.98H188.916ZM195.072 444.44C195.072 443.333 195.299 442.353 195.752 441.5C196.219 440.647 196.845 439.987 197.632 439.52C198.432 439.04 199.312 438.8 200.272 438.8C201.139 438.8 201.892 438.973 202.532 439.32C203.185 439.653 203.705 440.073 204.092 440.58V438.98H206.392V450H204.092V448.36C203.705 448.88 203.179 449.313 202.512 449.66C201.845 450.007 201.085 450.18 200.232 450.18C199.285 450.18 198.419 449.94 197.632 449.46C196.845 448.967 196.219 448.287 195.752 447.42C195.299 446.54 195.072 445.547 195.072 444.44ZM204.092 444.48C204.092 443.72 203.932 443.06 203.612 442.5C203.305 441.94 202.899 441.513 202.392 441.22C201.885 440.927 201.339 440.78 200.752 440.78C200.165 440.78 199.619 440.927 199.112 441.22C198.605 441.5 198.192 441.92 197.872 442.48C197.565 443.027 197.412 443.68 197.412 444.44C197.412 445.2 197.565 445.867 197.872 446.44C198.192 447.013 198.605 447.453 199.112 447.76C199.632 448.053 200.179 448.2 200.752 448.2C201.339 448.2 201.885 448.053 202.392 447.76C202.899 447.467 203.305 447.04 203.612 446.48C203.932 445.907 204.092 445.24 204.092 444.48ZM208.627 444.48C208.627 443.347 208.853 442.353 209.307 441.5C209.773 440.633 210.413 439.967 211.227 439.5C212.04 439.033 212.973 438.8 214.027 438.8C215.36 438.8 216.46 439.12 217.327 439.76C218.207 440.387 218.8 441.287 219.107 442.46H216.647C216.447 441.913 216.127 441.487 215.687 441.18C215.247 440.873 214.693 440.72 214.027 440.72C213.093 440.72 212.347 441.053 211.787 441.72C211.24 442.373 210.967 443.293 210.967 444.48C210.967 445.667 211.24 446.593 211.787 447.26C212.347 447.927 213.093 448.26 214.027 448.26C215.347 448.26 216.22 447.68 216.647 446.52H219.107C218.787 447.64 218.187 448.533 217.307 449.2C216.427 449.853 215.333 450.18 214.027 450.18C212.973 450.18 212.04 449.947 211.227 449.48C210.413 449 209.773 448.333 209.307 447.48C208.853 446.613 208.627 445.613 208.627 444.48ZM220.619 444.48C220.619 443.347 220.846 442.353 221.299 441.5C221.766 440.633 222.406 439.967 223.219 439.5C224.032 439.033 224.966 438.8 226.019 438.8C227.352 438.8 228.452 439.12 229.319 439.76C230.199 440.387 230.792 441.287 231.099 442.46H228.639C228.439 441.913 228.119 441.487 227.679 441.18C227.239 440.873 226.686 440.72 226.019 440.72C225.086 440.72 224.339 441.053 223.779 441.72C223.232 442.373 222.959 443.293 222.959 444.48C222.959 445.667 223.232 446.593 223.779 447.26C224.339 447.927 225.086 448.26 226.019 448.26C227.339 448.26 228.212 447.68 228.639 446.52H231.099C230.779 447.64 230.179 448.533 229.299 449.2C228.419 449.853 227.326 450.18 226.019 450.18C224.966 450.18 224.032 449.947 223.219 449.48C222.406 449 221.766 448.333 221.299 447.48C220.846 446.613 220.619 445.613 220.619 444.48ZM243.471 444.22C243.471 444.633 243.444 445.007 243.391 445.34H234.971C235.038 446.22 235.364 446.927 235.951 447.46C236.538 447.993 237.258 448.26 238.111 448.26C239.338 448.26 240.204 447.747 240.711 446.72H243.171C242.838 447.733 242.231 448.567 241.351 449.22C240.484 449.86 239.404 450.18 238.111 450.18C237.058 450.18 236.111 449.947 235.271 449.48C234.444 449 233.791 448.333 233.311 447.48C232.844 446.613 232.611 445.613 232.611 444.48C232.611 443.347 232.838 442.353 233.291 441.5C233.758 440.633 234.404 439.967 235.231 439.5C236.071 439.033 237.031 438.8 238.111 438.8C239.151 438.8 240.078 439.027 240.891 439.48C241.704 439.933 242.338 440.573 242.791 441.4C243.244 442.213 243.471 443.153 243.471 444.22ZM241.091 443.5C241.078 442.66 240.778 441.987 240.191 441.48C239.604 440.973 238.878 440.72 238.011 440.72C237.224 440.72 236.551 440.973 235.991 441.48C235.431 441.973 235.098 442.647 234.991 443.5H241.091ZM249.715 450.18C248.848 450.18 248.068 450.027 247.375 449.72C246.695 449.4 246.155 448.973 245.755 448.44C245.355 447.893 245.142 447.287 245.115 446.62H247.475C247.515 447.087 247.735 447.48 248.135 447.8C248.548 448.107 249.062 448.26 249.675 448.26C250.315 448.26 250.808 448.14 251.155 447.9C251.515 447.647 251.695 447.327 251.695 446.94C251.695 446.527 251.495 446.22 251.095 446.02C250.708 445.82 250.088 445.6 249.235 445.36C248.408 445.133 247.735 444.913 247.215 444.7C246.695 444.487 246.242 444.16 245.855 443.72C245.482 443.28 245.295 442.7 245.295 441.98C245.295 441.393 245.468 440.86 245.815 440.38C246.162 439.887 246.655 439.5 247.295 439.22C247.948 438.94 248.695 438.8 249.535 438.8C250.788 438.8 251.795 439.12 252.555 439.76C253.328 440.387 253.742 441.247 253.795 442.34H251.515C251.475 441.847 251.275 441.453 250.915 441.16C250.555 440.867 250.068 440.72 249.455 440.72C248.855 440.72 248.395 440.833 248.075 441.06C247.755 441.287 247.595 441.587 247.595 441.96C247.595 442.253 247.702 442.5 247.915 442.7C248.128 442.9 248.388 443.06 248.695 443.18C249.002 443.287 249.455 443.427 250.055 443.6C250.855 443.813 251.508 444.033 252.015 444.26C252.535 444.473 252.982 444.793 253.355 445.22C253.728 445.647 253.922 446.213 253.935 446.92C253.935 447.547 253.762 448.107 253.415 448.6C253.068 449.093 252.575 449.48 251.935 449.76C251.308 450.04 250.568 450.18 249.715 450.18ZM260.398 450.18C259.532 450.18 258.752 450.027 258.058 449.72C257.378 449.4 256.838 448.973 256.438 448.44C256.038 447.893 255.825 447.287 255.798 446.62H258.158C258.198 447.087 258.418 447.48 258.818 447.8C259.232 448.107 259.745 448.26 260.358 448.26C260.998 448.26 261.492 448.14 261.838 447.9C262.198 447.647 262.378 447.327 262.378 446.94C262.378 446.527 262.178 446.22 261.778 446.02C261.392 445.82 260.772 445.6 259.918 445.36C259.092 445.133 258.418 444.913 257.898 444.7C257.378 444.487 256.925 444.16 256.538 443.72C256.165 443.28 255.978 442.7 255.978 441.98C255.978 441.393 256.152 440.86 256.498 440.38C256.845 439.887 257.338 439.5 257.978 439.22C258.632 438.94 259.378 438.8 260.218 438.8C261.472 438.8 262.478 439.12 263.238 439.76C264.012 440.387 264.425 441.247 264.478 442.34H262.198C262.158 441.847 261.958 441.453 261.598 441.16C261.238 440.867 260.752 440.72 260.138 440.72C259.538 440.72 259.078 440.833 258.758 441.06C258.438 441.287 258.278 441.587 258.278 441.96C258.278 442.253 258.385 442.5 258.598 442.7C258.812 442.9 259.072 443.06 259.378 443.18C259.685 443.287 260.138 443.427 260.738 443.6C261.538 443.813 262.192 444.033 262.698 444.26C263.218 444.473 263.665 444.793 264.038 445.22C264.412 445.647 264.605 446.213 264.618 446.92C264.618 447.547 264.445 448.107 264.098 448.6C263.752 449.093 263.258 449.48 262.618 449.76C261.992 450.04 261.252 450.18 260.398 450.18ZM268.242 437.52C267.829 437.52 267.482 437.38 267.202 437.1C266.922 436.82 266.782 436.473 266.782 436.06C266.782 435.647 266.922 435.3 267.202 435.02C267.482 434.74 267.829 434.6 268.242 434.6C268.642 434.6 268.982 434.74 269.262 435.02C269.542 435.3 269.682 435.647 269.682 436.06C269.682 436.473 269.542 436.82 269.262 437.1C268.982 437.38 268.642 437.52 268.242 437.52ZM269.362 438.98V450H267.082V438.98H269.362ZM277.915 438.8C278.782 438.8 279.555 438.98 280.235 439.34C280.929 439.7 281.469 440.233 281.855 440.94C282.242 441.647 282.435 442.5 282.435 443.5V450H280.175V443.84C280.175 442.853 279.929 442.1 279.435 441.58C278.942 441.047 278.269 440.78 277.415 440.78C276.562 440.78 275.882 441.047 275.375 441.58C274.882 442.1 274.635 442.853 274.635 443.84V450H272.355V438.98H274.635V440.24C275.009 439.787 275.482 439.433 276.055 439.18C276.642 438.927 277.262 438.8 277.915 438.8ZM289.784 438.8C290.637 438.8 291.39 438.973 292.044 439.32C292.71 439.653 293.23 440.073 293.604 440.58V438.98H295.904V450.18C295.904 451.193 295.69 452.093 295.264 452.88C294.837 453.68 294.217 454.307 293.404 454.76C292.604 455.213 291.644 455.44 290.524 455.44C289.03 455.44 287.79 455.087 286.804 454.38C285.817 453.687 285.257 452.74 285.124 451.54H287.384C287.557 452.113 287.924 452.573 288.484 452.92C289.057 453.28 289.737 453.46 290.524 453.46C291.444 453.46 292.184 453.18 292.744 452.62C293.317 452.06 293.604 451.247 293.604 450.18V448.34C293.217 448.86 292.69 449.3 292.024 449.66C291.37 450.007 290.624 450.18 289.784 450.18C288.824 450.18 287.944 449.94 287.144 449.46C286.357 448.967 285.73 448.287 285.264 447.42C284.81 446.54 284.584 445.547 284.584 444.44C284.584 443.333 284.81 442.353 285.264 441.5C285.73 440.647 286.357 439.987 287.144 439.52C287.944 439.04 288.824 438.8 289.784 438.8ZM293.604 444.48C293.604 443.72 293.444 443.06 293.124 442.5C292.817 441.94 292.41 441.513 291.904 441.22C291.397 440.927 290.85 440.78 290.264 440.78C289.677 440.78 289.13 440.927 288.624 441.22C288.117 441.5 287.704 441.92 287.384 442.48C287.077 443.027 286.924 443.68 286.924 444.44C286.924 445.2 287.077 445.867 287.384 446.44C287.704 447.013 288.117 447.453 288.624 447.76C289.144 448.053 289.69 448.2 290.264 448.2C290.85 448.2 291.397 448.053 291.904 447.76C292.41 447.467 292.817 447.04 293.124 446.48C293.444 445.907 293.604 445.24 293.604 444.48ZM311.314 450L308.114 444.44H306.374V450H304.094V436.1H308.894C309.96 436.1 310.86 436.287 311.594 436.66C312.34 437.033 312.894 437.533 313.254 438.16C313.627 438.787 313.814 439.487 313.814 440.26C313.814 441.167 313.547 441.993 313.014 442.74C312.494 443.473 311.687 443.973 310.594 444.24L314.034 450H311.314ZM306.374 442.62H308.894C309.747 442.62 310.387 442.407 310.814 441.98C311.254 441.553 311.474 440.98 311.474 440.26C311.474 439.54 311.26 438.98 310.834 438.58C310.407 438.167 309.76 437.96 308.894 437.96H306.374V442.62ZM317.89 437.52C317.477 437.52 317.13 437.38 316.85 437.1C316.57 436.82 316.43 436.473 316.43 436.06C316.43 435.647 316.57 435.3 316.85 435.02C317.13 434.74 317.477 434.6 317.89 434.6C318.29 434.6 318.63 434.74 318.91 435.02C319.19 435.3 319.33 435.647 319.33 436.06C319.33 436.473 319.19 436.82 318.91 437.1C318.63 437.38 318.29 437.52 317.89 437.52ZM319.01 438.98V450H316.73V438.98H319.01ZM324.664 440.84V446.94C324.664 447.353 324.757 447.653 324.944 447.84C325.144 448.013 325.477 448.1 325.944 448.1H327.344V450H325.544C324.517 450 323.731 449.76 323.184 449.28C322.637 448.8 322.364 448.02 322.364 446.94V440.84H321.064V438.98H322.364V436.24H324.664V438.98H327.344V440.84H324.664ZM328.685 444.48C328.685 443.347 328.912 442.353 329.365 441.5C329.832 440.633 330.472 439.967 331.285 439.5C332.099 439.033 333.032 438.8 334.085 438.8C335.419 438.8 336.519 439.12 337.385 439.76C338.265 440.387 338.859 441.287 339.165 442.46H336.705C336.505 441.913 336.185 441.487 335.745 441.18C335.305 440.873 334.752 440.72 334.085 440.72C333.152 440.72 332.405 441.053 331.845 441.72C331.299 442.373 331.025 443.293 331.025 444.48C331.025 445.667 331.299 446.593 331.845 447.26C332.405 447.927 333.152 448.26 334.085 448.26C335.405 448.26 336.279 447.68 336.705 446.52H339.165C338.845 447.64 338.245 448.533 337.365 449.2C336.485 449.853 335.392 450.18 334.085 450.18C333.032 450.18 332.099 449.947 331.285 449.48C330.472 449 329.832 448.333 329.365 447.48C328.912 446.613 328.685 445.613 328.685 444.48ZM347.138 438.8C347.978 438.8 348.724 438.98 349.378 439.34C350.044 439.7 350.564 440.233 350.938 440.94C351.324 441.647 351.518 442.5 351.518 443.5V450H349.258V443.84C349.258 442.853 349.011 442.1 348.518 441.58C348.024 441.047 347.351 440.78 346.498 440.78C345.644 440.78 344.964 441.047 344.458 441.58C343.964 442.1 343.718 442.853 343.718 443.84V450H341.438V435.2H343.718V440.26C344.104 439.793 344.591 439.433 345.178 439.18C345.778 438.927 346.431 438.8 347.138 438.8ZM358.861 444.44C358.861 443.333 359.088 442.353 359.541 441.5C360.008 440.647 360.634 439.987 361.421 439.52C362.221 439.04 363.101 438.8 364.061 438.8C364.928 438.8 365.681 438.973 366.321 439.32C366.974 439.653 367.494 440.073 367.881 440.58V438.98H370.181V450H367.881V448.36C367.494 448.88 366.968 449.313 366.301 449.66C365.634 450.007 364.874 450.18 364.021 450.18C363.074 450.18 362.208 449.94 361.421 449.46C360.634 448.967 360.008 448.287 359.541 447.42C359.088 446.54 358.861 445.547 358.861 444.44ZM367.881 444.48C367.881 443.72 367.721 443.06 367.401 442.5C367.094 441.94 366.688 441.513 366.181 441.22C365.674 440.927 365.128 440.78 364.541 440.78C363.954 440.78 363.408 440.927 362.901 441.22C362.394 441.5 361.981 441.92 361.661 442.48C361.354 443.027 361.201 443.68 361.201 444.44C361.201 445.2 361.354 445.867 361.661 446.44C361.981 447.013 362.394 447.453 362.901 447.76C363.421 448.053 363.968 448.2 364.541 448.2C365.128 448.2 365.674 448.053 366.181 447.76C366.688 447.467 367.094 447.04 367.401 446.48C367.721 445.907 367.881 445.24 367.881 444.48ZM375.836 440.84V446.94C375.836 447.353 375.929 447.653 376.116 447.84C376.316 448.013 376.649 448.1 377.116 448.1H378.516V450H376.716C375.689 450 374.902 449.76 374.356 449.28C373.809 448.8 373.536 448.02 373.536 446.94V440.84H372.236V438.98H373.536V436.24H375.836V438.98H378.516V440.84H375.836ZM391.373 438.8C392.239 438.8 393.013 438.98 393.693 439.34C394.386 439.7 394.926 440.233 395.313 440.94C395.699 441.647 395.893 442.5 395.893 443.5V450H393.633V443.84C393.633 442.853 393.386 442.1 392.893 441.58C392.399 441.047 391.726 440.78 390.873 440.78C390.019 440.78 389.339 441.047 388.833 441.58C388.339 442.1 388.093 442.853 388.093 443.84V450H385.813V438.98H388.093V440.24C388.466 439.787 388.939 439.433 389.513 439.18C390.099 438.927 390.719 438.8 391.373 438.8ZM403.581 450.18C402.541 450.18 401.601 449.947 400.761 449.48C399.921 449 399.261 448.333 398.781 447.48C398.301 446.613 398.061 445.613 398.061 444.48C398.061 443.36 398.307 442.367 398.801 441.5C399.294 440.633 399.967 439.967 400.821 439.5C401.674 439.033 402.627 438.8 403.681 438.8C404.734 438.8 405.687 439.033 406.541 439.5C407.394 439.967 408.067 440.633 408.561 441.5C409.054 442.367 409.301 443.36 409.301 444.48C409.301 445.6 409.047 446.593 408.541 447.46C408.034 448.327 407.341 449 406.461 449.48C405.594 449.947 404.634 450.18 403.581 450.18ZM403.581 448.2C404.167 448.2 404.714 448.06 405.221 447.78C405.741 447.5 406.161 447.08 406.481 446.52C406.801 445.96 406.961 445.28 406.961 444.48C406.961 443.68 406.807 443.007 406.501 442.46C406.194 441.9 405.787 441.48 405.281 441.2C404.774 440.92 404.227 440.78 403.641 440.78C403.054 440.78 402.507 440.92 402.001 441.2C401.507 441.48 401.114 441.9 400.821 442.46C400.527 443.007 400.381 443.68 400.381 444.48C400.381 445.667 400.681 446.587 401.281 447.24C401.894 447.88 402.661 448.2 403.581 448.2ZM415.99 444.48C415.99 443.347 416.217 442.353 416.67 441.5C417.137 440.633 417.777 439.967 418.59 439.5C419.403 439.033 420.337 438.8 421.39 438.8C422.723 438.8 423.823 439.12 424.69 439.76C425.57 440.387 426.163 441.287 426.47 442.46H424.01C423.81 441.913 423.49 441.487 423.05 441.18C422.61 440.873 422.057 440.72 421.39 440.72C420.457 440.72 419.71 441.053 419.15 441.72C418.603 442.373 418.33 443.293 418.33 444.48C418.33 445.667 418.603 446.593 419.15 447.26C419.71 447.927 420.457 448.26 421.39 448.26C422.71 448.26 423.583 447.68 424.01 446.52H426.47C426.15 447.64 425.55 448.533 424.67 449.2C423.79 449.853 422.697 450.18 421.39 450.18C420.337 450.18 419.403 449.947 418.59 449.48C417.777 449 417.137 448.333 416.67 447.48C416.217 446.613 415.99 445.613 415.99 444.48ZM433.522 450.18C432.482 450.18 431.542 449.947 430.702 449.48C429.862 449 429.202 448.333 428.722 447.48C428.242 446.613 428.002 445.613 428.002 444.48C428.002 443.36 428.249 442.367 428.742 441.5C429.236 440.633 429.909 439.967 430.762 439.5C431.616 439.033 432.569 438.8 433.622 438.8C434.676 438.8 435.629 439.033 436.482 439.5C437.336 439.967 438.009 440.633 438.502 441.5C438.996 442.367 439.242 443.36 439.242 444.48C439.242 445.6 438.989 446.593 438.482 447.46C437.976 448.327 437.282 449 436.402 449.48C435.536 449.947 434.576 450.18 433.522 450.18ZM433.522 448.2C434.109 448.2 434.656 448.06 435.162 447.78C435.682 447.5 436.102 447.08 436.422 446.52C436.742 445.96 436.902 445.28 436.902 444.48C436.902 443.68 436.749 443.007 436.442 442.46C436.136 441.9 435.729 441.48 435.222 441.2C434.716 440.92 434.169 440.78 433.582 440.78C432.996 440.78 432.449 440.92 431.942 441.2C431.449 441.48 431.056 441.9 430.762 442.46C430.469 443.007 430.322 443.68 430.322 444.48C430.322 445.667 430.622 446.587 431.222 447.24C431.836 447.88 432.602 448.2 433.522 448.2ZM445.496 450.18C444.629 450.18 443.849 450.027 443.156 449.72C442.476 449.4 441.936 448.973 441.536 448.44C441.136 447.893 440.923 447.287 440.896 446.62H443.256C443.296 447.087 443.516 447.48 443.916 447.8C444.329 448.107 444.843 448.26 445.456 448.26C446.096 448.26 446.589 448.14 446.936 447.9C447.296 447.647 447.476 447.327 447.476 446.94C447.476 446.527 447.276 446.22 446.876 446.02C446.489 445.82 445.869 445.6 445.016 445.36C444.189 445.133 443.516 444.913 442.996 444.7C442.476 444.487 442.023 444.16 441.636 443.72C441.263 443.28 441.076 442.7 441.076 441.98C441.076 441.393 441.249 440.86 441.596 440.38C441.943 439.887 442.436 439.5 443.076 439.22C443.729 438.94 444.476 438.8 445.316 438.8C446.569 438.8 447.576 439.12 448.336 439.76C449.109 440.387 449.523 441.247 449.576 442.34H447.296C447.256 441.847 447.056 441.453 446.696 441.16C446.336 440.867 445.849 440.72 445.236 440.72C444.636 440.72 444.176 440.833 443.856 441.06C443.536 441.287 443.376 441.587 443.376 441.96C443.376 442.253 443.483 442.5 443.696 442.7C443.909 442.9 444.169 443.06 444.476 443.18C444.783 443.287 445.236 443.427 445.836 443.6C446.636 443.813 447.289 444.033 447.796 444.26C448.316 444.473 448.763 444.793 449.136 445.22C449.509 445.647 449.703 446.213 449.716 446.92C449.716 447.547 449.543 448.107 449.196 448.6C448.849 449.093 448.356 449.48 447.716 449.76C447.089 450.04 446.349 450.18 445.496 450.18ZM454.84 440.84V446.94C454.84 447.353 454.933 447.653 455.12 447.84C455.32 448.013 455.653 448.1 456.12 448.1H457.52V450H455.72C454.693 450 453.906 449.76 453.36 449.28C452.813 448.8 452.54 448.02 452.54 446.94V440.84H451.24V438.98H452.54V436.24H454.84V438.98H457.52V440.84H454.84ZM469.596 450.18C468.556 450.18 467.616 449.947 466.776 449.48C465.936 449 465.276 448.333 464.796 447.48C464.316 446.613 464.076 445.613 464.076 444.48C464.076 443.36 464.323 442.367 464.816 441.5C465.31 440.633 465.983 439.967 466.836 439.5C467.69 439.033 468.643 438.8 469.696 438.8C470.75 438.8 471.703 439.033 472.556 439.5C473.41 439.967 474.083 440.633 474.576 441.5C475.07 442.367 475.316 443.36 475.316 444.48C475.316 445.6 475.063 446.593 474.556 447.46C474.05 448.327 473.356 449 472.476 449.48C471.61 449.947 470.65 450.18 469.596 450.18ZM469.596 448.2C470.183 448.2 470.73 448.06 471.236 447.78C471.756 447.5 472.176 447.08 472.496 446.52C472.816 445.96 472.976 445.28 472.976 444.48C472.976 443.68 472.823 443.007 472.516 442.46C472.21 441.9 471.803 441.48 471.296 441.2C470.79 440.92 470.243 440.78 469.656 440.78C469.07 440.78 468.523 440.92 468.016 441.2C467.523 441.48 467.13 441.9 466.836 442.46C466.543 443.007 466.396 443.68 466.396 444.48C466.396 445.667 466.696 446.587 467.296 447.24C467.91 447.88 468.676 448.2 469.596 448.2ZM483.13 438.8C483.997 438.8 484.77 438.98 485.45 439.34C486.144 439.7 486.684 440.233 487.07 440.94C487.457 441.647 487.65 442.5 487.65 443.5V450H485.39V443.84C485.39 442.853 485.144 442.1 484.65 441.58C484.157 441.047 483.484 440.78 482.63 440.78C481.777 440.78 481.097 441.047 480.59 441.58C480.097 442.1 479.85 442.853 479.85 443.84V450H477.57V438.98H479.85V440.24C480.224 439.787 480.697 439.433 481.27 439.18C481.857 438.927 482.477 438.8 483.13 438.8ZM190.239 481.22C190.239 481.633 190.212 482.007 190.159 482.34H181.739C181.805 483.22 182.132 483.927 182.719 484.46C183.305 484.993 184.025 485.26 184.879 485.26C186.105 485.26 186.972 484.747 187.479 483.72H189.939C189.605 484.733 188.999 485.567 188.119 486.22C187.252 486.86 186.172 487.18 184.879 487.18C183.825 487.18 182.879 486.947 182.039 486.48C181.212 486 180.559 485.333 180.079 484.48C179.612 483.613 179.379 482.613 179.379 481.48C179.379 480.347 179.605 479.353 180.059 478.5C180.525 477.633 181.172 476.967 181.999 476.5C182.839 476.033 183.799 475.8 184.879 475.8C185.919 475.8 186.845 476.027 187.659 476.48C188.472 476.933 189.105 477.573 189.559 478.4C190.012 479.213 190.239 480.153 190.239 481.22ZM187.859 480.5C187.845 479.66 187.545 478.987 186.959 478.48C186.372 477.973 185.645 477.72 184.779 477.72C183.992 477.72 183.319 477.973 182.759 478.48C182.199 478.973 181.865 479.647 181.759 480.5H187.859ZM193.642 474.52C193.229 474.52 192.882 474.38 192.602 474.1C192.322 473.82 192.182 473.473 192.182 473.06C192.182 472.647 192.322 472.3 192.602 472.02C192.882 471.74 193.229 471.6 193.642 471.6C194.042 471.6 194.382 471.74 194.662 472.02C194.942 472.3 195.082 472.647 195.082 473.06C195.082 473.473 194.942 473.82 194.662 474.1C194.382 474.38 194.042 474.52 193.642 474.52ZM194.762 475.98V487H192.482V475.98H194.762ZM200.416 477.84V483.94C200.416 484.353 200.509 484.653 200.696 484.84C200.896 485.013 201.229 485.1 201.696 485.1H203.096V487H201.296C200.269 487 199.483 486.76 198.936 486.28C198.389 485.8 198.116 485.02 198.116 483.94V477.84H196.816V475.98H198.116V473.24H200.416V475.98H203.096V477.84H200.416ZM210.897 475.8C211.737 475.8 212.484 475.98 213.137 476.34C213.804 476.7 214.324 477.233 214.697 477.94C215.084 478.647 215.277 479.5 215.277 480.5V487H213.017V480.84C213.017 479.853 212.771 479.1 212.277 478.58C211.784 478.047 211.111 477.78 210.257 477.78C209.404 477.78 208.724 478.047 208.217 478.58C207.724 479.1 207.477 479.853 207.477 480.84V487H205.197V472.2H207.477V477.26C207.864 476.793 208.351 476.433 208.937 476.18C209.537 475.927 210.191 475.8 210.897 475.8ZM228.286 481.22C228.286 481.633 228.259 482.007 228.206 482.34H219.786C219.852 483.22 220.179 483.927 220.766 484.46C221.352 484.993 222.072 485.26 222.926 485.26C224.152 485.26 225.019 484.747 225.526 483.72H227.986C227.652 484.733 227.046 485.567 226.166 486.22C225.299 486.86 224.219 487.18 222.926 487.18C221.872 487.18 220.926 486.947 220.086 486.48C219.259 486 218.606 485.333 218.126 484.48C217.659 483.613 217.426 482.613 217.426 481.48C217.426 480.347 217.652 479.353 218.106 478.5C218.572 477.633 219.219 476.967 220.046 476.5C220.886 476.033 221.846 475.8 222.926 475.8C223.966 475.8 224.892 476.027 225.706 476.48C226.519 476.933 227.152 477.573 227.606 478.4C228.059 479.213 228.286 480.153 228.286 481.22ZM225.906 480.5C225.892 479.66 225.592 478.987 225.006 478.48C224.419 477.973 223.692 477.72 222.826 477.72C222.039 477.72 221.366 477.973 220.806 478.48C220.246 478.973 219.912 479.647 219.806 480.5H225.906ZM232.809 477.58C233.143 477.02 233.583 476.587 234.129 476.28C234.689 475.96 235.349 475.8 236.109 475.8V478.16H235.529C234.636 478.16 233.956 478.387 233.489 478.84C233.036 479.293 232.809 480.08 232.809 481.2V487H230.529V475.98H232.809V477.58ZM253.32 475.98L246.56 492.18H244.2L246.44 486.82L242.1 475.98H244.64L247.74 484.38L250.96 475.98H253.32ZM259.821 487.18C258.781 487.18 257.841 486.947 257.001 486.48C256.161 486 255.501 485.333 255.021 484.48C254.541 483.613 254.301 482.613 254.301 481.48C254.301 480.36 254.548 479.367 255.041 478.5C255.534 477.633 256.208 476.967 257.061 476.5C257.914 476.033 258.868 475.8 259.921 475.8C260.974 475.8 261.928 476.033 262.781 476.5C263.634 476.967 264.308 477.633 264.801 478.5C265.294 479.367 265.541 480.36 265.541 481.48C265.541 482.6 265.288 483.593 264.781 484.46C264.274 485.327 263.581 486 262.701 486.48C261.834 486.947 260.874 487.18 259.821 487.18ZM259.821 485.2C260.408 485.2 260.954 485.06 261.461 484.78C261.981 484.5 262.401 484.08 262.721 483.52C263.041 482.96 263.201 482.28 263.201 481.48C263.201 480.68 263.048 480.007 262.741 479.46C262.434 478.9 262.028 478.48 261.521 478.2C261.014 477.92 260.468 477.78 259.881 477.78C259.294 477.78 258.748 477.92 258.241 478.2C257.748 478.48 257.354 478.9 257.061 479.46C256.768 480.007 256.621 480.68 256.621 481.48C256.621 482.667 256.921 483.587 257.521 484.24C258.134 484.88 258.901 485.2 259.821 485.2ZM277.775 475.98V487H275.495V485.7C275.135 486.153 274.662 486.513 274.075 486.78C273.502 487.033 272.888 487.16 272.235 487.16C271.368 487.16 270.588 486.98 269.895 486.62C269.215 486.26 268.675 485.727 268.275 485.02C267.888 484.313 267.695 483.46 267.695 482.46V475.98H269.955V482.12C269.955 483.107 270.202 483.867 270.695 484.4C271.188 484.92 271.862 485.18 272.715 485.18C273.568 485.18 274.242 484.92 274.735 484.4C275.242 483.867 275.495 483.107 275.495 482.12V475.98H277.775ZM283.063 477.58C283.397 477.02 283.837 476.587 284.383 476.28C284.943 475.96 285.603 475.8 286.363 475.8V478.16H285.783C284.89 478.16 284.21 478.387 283.743 478.84C283.29 479.293 283.063 480.08 283.063 481.2V487H280.783V475.98H283.063V477.58ZM292.894 481.44C292.894 480.333 293.121 479.353 293.574 478.5C294.041 477.647 294.668 476.987 295.454 476.52C296.254 476.04 297.141 475.8 298.114 475.8C298.834 475.8 299.541 475.96 300.234 476.28C300.941 476.587 301.501 477 301.914 477.52V472.2H304.214V487H301.914V485.34C301.541 485.873 301.021 486.313 300.354 486.66C299.701 487.007 298.948 487.18 298.094 487.18C297.134 487.18 296.254 486.94 295.454 486.46C294.668 485.967 294.041 485.287 293.574 484.42C293.121 483.54 292.894 482.547 292.894 481.44ZM301.914 481.48C301.914 480.72 301.754 480.06 301.434 479.5C301.128 478.94 300.721 478.513 300.214 478.22C299.708 477.927 299.161 477.78 298.574 477.78C297.988 477.78 297.441 477.927 296.934 478.22C296.428 478.5 296.014 478.92 295.694 479.48C295.388 480.027 295.234 480.68 295.234 481.44C295.234 482.2 295.388 482.867 295.694 483.44C296.014 484.013 296.428 484.453 296.934 484.76C297.454 485.053 298.001 485.2 298.574 485.2C299.161 485.2 299.708 485.053 300.214 484.76C300.721 484.467 301.128 484.04 301.434 483.48C301.754 482.907 301.914 482.24 301.914 481.48ZM317.309 481.22C317.309 481.633 317.282 482.007 317.229 482.34H308.809C308.876 483.22 309.202 483.927 309.789 484.46C310.376 484.993 311.096 485.26 311.949 485.26C313.176 485.26 314.042 484.747 314.549 483.72H317.009C316.676 484.733 316.069 485.567 315.189 486.22C314.322 486.86 313.242 487.18 311.949 487.18C310.896 487.18 309.949 486.947 309.109 486.48C308.282 486 307.629 485.333 307.149 484.48C306.682 483.613 306.449 482.613 306.449 481.48C306.449 480.347 306.676 479.353 307.129 478.5C307.596 477.633 308.242 476.967 309.069 476.5C309.909 476.033 310.869 475.8 311.949 475.8C312.989 475.8 313.916 476.027 314.729 476.48C315.542 476.933 316.176 477.573 316.629 478.4C317.082 479.213 317.309 480.153 317.309 481.22ZM314.929 480.5C314.916 479.66 314.616 478.987 314.029 478.48C313.442 477.973 312.716 477.72 311.849 477.72C311.062 477.72 310.389 477.973 309.829 478.48C309.269 478.973 308.936 479.647 308.829 480.5H314.929ZM323.553 487.18C322.686 487.18 321.906 487.027 321.213 486.72C320.533 486.4 319.993 485.973 319.593 485.44C319.193 484.893 318.979 484.287 318.953 483.62H321.313C321.353 484.087 321.573 484.48 321.973 484.8C322.386 485.107 322.899 485.26 323.513 485.26C324.153 485.26 324.646 485.14 324.993 484.9C325.353 484.647 325.533 484.327 325.533 483.94C325.533 483.527 325.333 483.22 324.933 483.02C324.546 482.82 323.926 482.6 323.073 482.36C322.246 482.133 321.573 481.913 321.053 481.7C320.533 481.487 320.079 481.16 319.693 480.72C319.319 480.28 319.133 479.7 319.133 478.98C319.133 478.393 319.306 477.86 319.653 477.38C319.999 476.887 320.493 476.5 321.133 476.22C321.786 475.94 322.533 475.8 323.373 475.8C324.626 475.8 325.633 476.12 326.393 476.76C327.166 477.387 327.579 478.247 327.633 479.34H325.353C325.313 478.847 325.113 478.453 324.753 478.16C324.393 477.867 323.906 477.72 323.293 477.72C322.693 477.72 322.233 477.833 321.913 478.06C321.593 478.287 321.433 478.587 321.433 478.96C321.433 479.253 321.539 479.5 321.753 479.7C321.966 479.9 322.226 480.06 322.533 480.18C322.839 480.287 323.293 480.427 323.893 480.6C324.693 480.813 325.346 481.033 325.853 481.26C326.373 481.473 326.819 481.793 327.193 482.22C327.566 482.647 327.759 483.213 327.773 483.92C327.773 484.547 327.599 485.107 327.253 485.6C326.906 486.093 326.413 486.48 325.773 486.76C325.146 487.04 324.406 487.18 323.553 487.18ZM334.596 481.5L339.676 487H336.596L332.516 482.26V487H330.236V472.2H332.516V480.8L336.516 475.98H339.676L334.596 481.5ZM343.971 477.84V483.94C343.971 484.353 344.064 484.653 344.251 484.84C344.451 485.013 344.784 485.1 345.251 485.1H346.651V487H344.851C343.824 487 343.037 486.76 342.491 486.28C341.944 485.8 341.671 485.02 341.671 483.94V477.84H340.371V475.98H341.671V473.24H343.971V475.98H346.651V477.84H343.971ZM353.532 487.18C352.492 487.18 351.552 486.947 350.712 486.48C349.872 486 349.212 485.333 348.732 484.48C348.252 483.613 348.012 482.613 348.012 481.48C348.012 480.36 348.259 479.367 348.752 478.5C349.245 477.633 349.919 476.967 350.772 476.5C351.625 476.033 352.579 475.8 353.632 475.8C354.685 475.8 355.639 476.033 356.492 476.5C357.345 476.967 358.019 477.633 358.512 478.5C359.005 479.367 359.252 480.36 359.252 481.48C359.252 482.6 358.999 483.593 358.492 484.46C357.985 485.327 357.292 486 356.412 486.48C355.545 486.947 354.585 487.18 353.532 487.18ZM353.532 485.2C354.119 485.2 354.665 485.06 355.172 484.78C355.692 484.5 356.112 484.08 356.432 483.52C356.752 482.96 356.912 482.28 356.912 481.48C356.912 480.68 356.759 480.007 356.452 479.46C356.145 478.9 355.739 478.48 355.232 478.2C354.725 477.92 354.179 477.78 353.592 477.78C353.005 477.78 352.459 477.92 351.952 478.2C351.459 478.48 351.065 478.9 350.772 479.46C350.479 480.007 350.332 480.68 350.332 481.48C350.332 482.667 350.632 483.587 351.232 484.24C351.845 484.88 352.612 485.2 353.532 485.2ZM363.786 477.6C364.173 477.093 364.699 476.667 365.366 476.32C366.033 475.973 366.786 475.8 367.626 475.8C368.586 475.8 369.459 476.04 370.246 476.52C371.046 476.987 371.673 477.647 372.126 478.5C372.579 479.353 372.806 480.333 372.806 481.44C372.806 482.547 372.579 483.54 372.126 484.42C371.673 485.287 371.046 485.967 370.246 486.46C369.459 486.94 368.586 487.18 367.626 487.18C366.786 487.18 366.039 487.013 365.386 486.68C364.733 486.333 364.199 485.907 363.786 485.4V492.24H361.506V475.98H363.786V477.6ZM370.486 481.44C370.486 480.68 370.326 480.027 370.006 479.48C369.699 478.92 369.286 478.5 368.766 478.22C368.259 477.927 367.713 477.78 367.126 477.78C366.553 477.78 366.006 477.927 365.486 478.22C364.979 478.513 364.566 478.94 364.246 479.5C363.939 480.06 363.786 480.72 363.786 481.48C363.786 482.24 363.939 482.907 364.246 483.48C364.566 484.04 364.979 484.467 365.486 484.76C366.006 485.053 366.553 485.2 367.126 485.2C367.713 485.2 368.259 485.053 368.766 484.76C369.286 484.453 369.699 484.013 370.006 483.44C370.326 482.867 370.486 482.2 370.486 481.44ZM385.036 487.18C383.996 487.18 383.056 486.947 382.216 486.48C381.376 486 380.716 485.333 380.236 484.48C379.756 483.613 379.516 482.613 379.516 481.48C379.516 480.36 379.763 479.367 380.256 478.5C380.749 477.633 381.423 476.967 382.276 476.5C383.129 476.033 384.083 475.8 385.136 475.8C386.189 475.8 387.143 476.033 387.996 476.5C388.849 476.967 389.523 477.633 390.016 478.5C390.509 479.367 390.756 480.36 390.756 481.48C390.756 482.6 390.503 483.593 389.996 484.46C389.489 485.327 388.796 486 387.916 486.48C387.049 486.947 386.089 487.18 385.036 487.18ZM385.036 485.2C385.623 485.2 386.169 485.06 386.676 484.78C387.196 484.5 387.616 484.08 387.936 483.52C388.256 482.96 388.416 482.28 388.416 481.48C388.416 480.68 388.263 480.007 387.956 479.46C387.649 478.9 387.243 478.48 386.736 478.2C386.229 477.92 385.683 477.78 385.096 477.78C384.509 477.78 383.963 477.92 383.456 478.2C382.963 478.48 382.569 478.9 382.276 479.46C381.983 480.007 381.836 480.68 381.836 481.48C381.836 482.667 382.136 483.587 382.736 484.24C383.349 484.88 384.116 485.2 385.036 485.2ZM395.29 477.58C395.623 477.02 396.063 476.587 396.61 476.28C397.17 475.96 397.83 475.8 398.59 475.8V478.16H398.01C397.116 478.16 396.436 478.387 395.97 478.84C395.516 479.293 395.29 480.08 395.29 481.2V487H393.01V475.98H395.29V477.58ZM419.221 475.8C420.088 475.8 420.861 475.98 421.541 476.34C422.234 476.7 422.774 477.233 423.161 477.94C423.561 478.647 423.761 479.5 423.761 480.5V487H421.501V480.84C421.501 479.853 421.254 479.1 420.761 478.58C420.268 478.047 419.594 477.78 418.741 477.78C417.888 477.78 417.208 478.047 416.701 478.58C416.208 479.1 415.961 479.853 415.961 480.84V487H413.701V480.84C413.701 479.853 413.454 479.1 412.961 478.58C412.468 478.047 411.794 477.78 410.941 477.78C410.088 477.78 409.408 478.047 408.901 478.58C408.408 479.1 408.161 479.853 408.161 480.84V487H405.881V475.98H408.161V477.24C408.534 476.787 409.008 476.433 409.581 476.18C410.154 475.927 410.768 475.8 411.421 475.8C412.301 475.8 413.088 475.987 413.781 476.36C414.474 476.733 415.008 477.273 415.381 477.98C415.714 477.313 416.234 476.787 416.941 476.4C417.648 476 418.408 475.8 419.221 475.8ZM431.442 487.18C430.402 487.18 429.462 486.947 428.622 486.48C427.782 486 427.122 485.333 426.642 484.48C426.162 483.613 425.922 482.613 425.922 481.48C425.922 480.36 426.169 479.367 426.662 478.5C427.155 477.633 427.829 476.967 428.682 476.5C429.535 476.033 430.489 475.8 431.542 475.8C432.595 475.8 433.549 476.033 434.402 476.5C435.255 476.967 435.929 477.633 436.422 478.5C436.915 479.367 437.162 480.36 437.162 481.48C437.162 482.6 436.909 483.593 436.402 484.46C435.895 485.327 435.202 486 434.322 486.48C433.455 486.947 432.495 487.18 431.442 487.18ZM431.442 485.2C432.029 485.2 432.575 485.06 433.082 484.78C433.602 484.5 434.022 484.08 434.342 483.52C434.662 482.96 434.822 482.28 434.822 481.48C434.822 480.68 434.669 480.007 434.362 479.46C434.055 478.9 433.649 478.48 433.142 478.2C432.635 477.92 432.089 477.78 431.502 477.78C430.915 477.78 430.369 477.92 429.862 478.2C429.369 478.48 428.975 478.9 428.682 479.46C428.389 480.007 428.242 480.68 428.242 481.48C428.242 482.667 428.542 483.587 429.142 484.24C429.755 484.88 430.522 485.2 431.442 485.2ZM441.696 477.62C442.083 477.087 442.609 476.653 443.276 476.32C443.956 475.973 444.709 475.8 445.536 475.8C446.509 475.8 447.389 476.033 448.176 476.5C448.963 476.967 449.583 477.633 450.036 478.5C450.489 479.353 450.716 480.333 450.716 481.44C450.716 482.547 450.489 483.54 450.036 484.42C449.583 485.287 448.956 485.967 448.156 486.46C447.369 486.94 446.496 487.18 445.536 487.18C444.683 487.18 443.923 487.013 443.256 486.68C442.603 486.347 442.083 485.92 441.696 485.4V487H439.416V472.2H441.696V477.62ZM448.396 481.44C448.396 480.68 448.236 480.027 447.916 479.48C447.609 478.92 447.196 478.5 446.676 478.22C446.169 477.927 445.623 477.78 445.036 477.78C444.463 477.78 443.916 477.927 443.396 478.22C442.889 478.513 442.476 478.94 442.156 479.5C441.849 480.06 441.696 480.72 441.696 481.48C441.696 482.24 441.849 482.907 442.156 483.48C442.476 484.04 442.889 484.467 443.396 484.76C443.916 485.053 444.463 485.2 445.036 485.2C445.623 485.2 446.169 485.053 446.676 484.76C447.196 484.453 447.609 484.013 447.916 483.44C448.236 482.867 448.396 482.2 448.396 481.44ZM454.131 474.52C453.717 474.52 453.371 474.38 453.091 474.1C452.811 473.82 452.671 473.473 452.671 473.06C452.671 472.647 452.811 472.3 453.091 472.02C453.371 471.74 453.717 471.6 454.131 471.6C454.531 471.6 454.871 471.74 455.151 472.02C455.431 472.3 455.571 472.647 455.571 473.06C455.571 473.473 455.431 473.82 455.151 474.1C454.871 474.38 454.531 474.52 454.131 474.52ZM455.251 475.98V487H452.971V475.98H455.251ZM460.524 472.2V487H458.244V472.2H460.524ZM473.618 481.22C473.618 481.633 473.591 482.007 473.538 482.34H465.118C465.184 483.22 465.511 483.927 466.098 484.46C466.684 484.993 467.404 485.26 468.258 485.26C469.484 485.26 470.351 484.747 470.858 483.72H473.318C472.984 484.733 472.378 485.567 471.498 486.22C470.631 486.86 469.551 487.18 468.258 487.18C467.204 487.18 466.258 486.947 465.418 486.48C464.591 486 463.938 485.333 463.458 484.48C462.991 483.613 462.758 482.613 462.758 481.48C462.758 480.347 462.984 479.353 463.438 478.5C463.904 477.633 464.551 476.967 465.378 476.5C466.218 476.033 467.178 475.8 468.258 475.8C469.298 475.8 470.224 476.027 471.038 476.48C471.851 476.933 472.484 477.573 472.938 478.4C473.391 479.213 473.618 480.153 473.618 481.22ZM471.238 480.5C471.224 479.66 470.924 478.987 470.338 478.48C469.751 477.973 469.024 477.72 468.158 477.72C467.371 477.72 466.698 477.973 466.138 478.48C465.578 478.973 465.244 479.647 465.138 480.5H471.238ZM291.312 518.44C291.312 517.333 291.539 516.353 291.992 515.5C292.459 514.647 293.086 513.987 293.872 513.52C294.672 513.04 295.559 512.8 296.532 512.8C297.252 512.8 297.959 512.96 298.652 513.28C299.359 513.587 299.919 514 300.332 514.52V509.2H302.632V524H300.332V522.34C299.959 522.873 299.439 523.313 298.772 523.66C298.119 524.007 297.366 524.18 296.512 524.18C295.552 524.18 294.672 523.94 293.872 523.46C293.086 522.967 292.459 522.287 291.992 521.42C291.539 520.54 291.312 519.547 291.312 518.44ZM300.332 518.48C300.332 517.72 300.172 517.06 299.852 516.5C299.546 515.94 299.139 515.513 298.632 515.22C298.126 514.927 297.579 514.78 296.992 514.78C296.406 514.78 295.859 514.927 295.352 515.22C294.846 515.5 294.432 515.92 294.112 516.48C293.806 517.027 293.652 517.68 293.652 518.44C293.652 519.2 293.806 519.867 294.112 520.44C294.432 521.013 294.846 521.453 295.352 521.76C295.872 522.053 296.419 522.2 296.992 522.2C297.579 522.2 298.126 522.053 298.632 521.76C299.139 521.467 299.546 521.04 299.852 520.48C300.172 519.907 300.332 519.24 300.332 518.48ZM315.727 518.22C315.727 518.633 315.7 519.007 315.647 519.34H307.227C307.294 520.22 307.62 520.927 308.207 521.46C308.794 521.993 309.514 522.26 310.367 522.26C311.594 522.26 312.46 521.747 312.967 520.72H315.427C315.094 521.733 314.487 522.567 313.607 523.22C312.74 523.86 311.66 524.18 310.367 524.18C309.314 524.18 308.367 523.947 307.527 523.48C306.7 523 306.047 522.333 305.567 521.48C305.1 520.613 304.867 519.613 304.867 518.48C304.867 517.347 305.094 516.353 305.547 515.5C306.014 514.633 306.66 513.967 307.487 513.5C308.327 513.033 309.287 512.8 310.367 512.8C311.407 512.8 312.334 513.027 313.147 513.48C313.96 513.933 314.594 514.573 315.047 515.4C315.5 516.213 315.727 517.153 315.727 518.22ZM313.347 517.5C313.334 516.66 313.034 515.987 312.447 515.48C311.86 514.973 311.134 514.72 310.267 514.72C309.48 514.72 308.807 514.973 308.247 515.48C307.687 515.973 307.354 516.647 307.247 517.5H313.347ZM322.231 521.96L325.351 512.98H327.771L323.571 524H320.851L316.671 512.98H319.111L322.231 521.96ZM330.654 511.52C330.241 511.52 329.894 511.38 329.614 511.1C329.334 510.82 329.194 510.473 329.194 510.06C329.194 509.647 329.334 509.3 329.614 509.02C329.894 508.74 330.241 508.6 330.654 508.6C331.054 508.6 331.394 508.74 331.674 509.02C331.954 509.3 332.094 509.647 332.094 510.06C332.094 510.473 331.954 510.82 331.674 511.1C331.394 511.38 331.054 511.52 330.654 511.52ZM331.774 512.98V524H329.494V512.98H331.774ZM334.008 518.48C334.008 517.347 334.234 516.353 334.688 515.5C335.154 514.633 335.794 513.967 336.608 513.5C337.421 513.033 338.354 512.8 339.408 512.8C340.741 512.8 341.841 513.12 342.708 513.76C343.588 514.387 344.181 515.287 344.488 516.46H342.028C341.828 515.913 341.508 515.487 341.068 515.18C340.628 514.873 340.074 514.72 339.408 514.72C338.474 514.72 337.728 515.053 337.168 515.72C336.621 516.373 336.348 517.293 336.348 518.48C336.348 519.667 336.621 520.593 337.168 521.26C337.728 521.927 338.474 522.26 339.408 522.26C340.728 522.26 341.601 521.68 342.028 520.52H344.488C344.168 521.64 343.568 522.533 342.688 523.2C341.808 523.853 340.714 524.18 339.408 524.18C338.354 524.18 337.421 523.947 336.608 523.48C335.794 523 335.154 522.333 334.688 521.48C334.234 520.613 334.008 519.613 334.008 518.48ZM356.86 518.22C356.86 518.633 356.833 519.007 356.78 519.34H348.36C348.426 520.22 348.753 520.927 349.34 521.46C349.926 521.993 350.646 522.26 351.5 522.26C352.726 522.26 353.593 521.747 354.1 520.72H356.56C356.226 521.733 355.62 522.567 354.74 523.22C353.873 523.86 352.793 524.18 351.5 524.18C350.446 524.18 349.5 523.947 348.66 523.48C347.833 523 347.18 522.333 346.7 521.48C346.233 520.613 346 519.613 346 518.48C346 517.347 346.226 516.353 346.68 515.5C347.146 514.633 347.793 513.967 348.62 513.5C349.46 513.033 350.42 512.8 351.5 512.8C352.54 512.8 353.466 513.027 354.28 513.48C355.093 513.933 355.726 514.573 356.18 515.4C356.633 516.213 356.86 517.153 356.86 518.22ZM354.48 517.5C354.466 516.66 354.166 515.987 353.58 515.48C352.993 514.973 352.266 514.72 351.4 514.72C350.613 514.72 349.94 514.973 349.38 515.48C348.82 515.973 348.486 516.647 348.38 517.5H354.48ZM360.024 524.14C359.61 524.14 359.264 524 358.984 523.72C358.704 523.44 358.564 523.093 358.564 522.68C358.564 522.267 358.704 521.92 358.984 521.64C359.264 521.36 359.61 521.22 360.024 521.22C360.424 521.22 360.764 521.36 361.044 521.64C361.324 521.92 361.464 522.267 361.464 522.68C361.464 523.093 361.324 523.44 361.044 523.72C360.764 524 360.424 524.14 360.024 524.14Z" fill="#2D2D2D"/>
<path d="M250 366.5H402.5" stroke="#2D2D2D" stroke-width="2"/>
<g filter="url(#filter1_d_196_2315)">
<rect x="285.232" y="188" width="86.7674" height="86.7674" rx="43.3837" fill="url(#paint1_linear_196_2315)"/>
<rect x="283.732" y="186.5" width="89.7674" height="89.7674" rx="44.8837" stroke="white" stroke-width="3"/>
</g>
<path d="M325.653 231.807C324.161 237.663 323.749 241.33 323.311 245.596C323.3 246.248 323.277 247.679 323.277 248.542" stroke="white" stroke-width="2.96279" stroke-linecap="round"/>
<path d="M337.355 218.516C335.65 225.205 333.449 231.931 332.358 238.743C331.654 243.137 331.817 246.892 336.429 248.486" stroke="white" stroke-width="2.96279" stroke-linecap="round"/>
<path d="M329.674 239.536C330.174 238.493 332.613 237.877 333.567 237.43C335.227 236.653 336.889 236.021 338.672 235.633" stroke="white" stroke-width="2.96279" stroke-linecap="round"/>
<path d="M348.148 237.025C345.853 236.678 343.197 238.834 342.292 240.811C340.386 244.975 343.639 248.229 347.612 248.248" stroke="white" stroke-width="2.96279" stroke-linecap="round"/>
<path d="M357.3 216.781C355.608 223.421 354.249 229.875 354.037 236.732C353.945 239.697 353.378 242.798 353.527 245.767C353.591 247.036 353.823 248.66 353.508 249.893" stroke="white" stroke-width="2.96279" stroke-linecap="round"/>
<path d="M353.731 240.914C354.121 239.384 355.208 238.585 356.382 237.602C357.699 236.499 358.567 236.564 360.175 236.676C361.757 236.786 361.565 237.712 361.532 239.173C361.475 241.69 360.923 243.853 361.108 246.408" stroke="white" stroke-width="2.96279" stroke-linecap="round"/>
<path d="M303.379 230.637C303.309 229.99 303.228 229.347 303.138 228.708C301.592 234.007 300.363 239.47 301.033 244.884C301.157 245.887 301.217 249.948 302.379 250.526C302.453 250.563 302.835 249.163 302.846 249.126C303.231 247.796 303.285 246.545 303.379 245.165C303.712 240.296 303.912 235.506 303.379 230.637Z" fill="url(#paint2_linear_196_2315)"/>
<path d="M292.571 204.408C295.36 206.331 297.144 209.965 298.517 212.95C301.128 218.625 302.701 224.431 303.379 230.637C303.912 235.506 303.712 240.296 303.379 245.165C303.285 246.545 303.231 247.796 302.846 249.126C302.835 249.163 302.453 250.563 302.379 250.526C301.217 249.948 301.157 245.887 301.033 244.884C300.071 237.11 303.025 229.235 305.207 221.892C306.1 218.889 307.358 216.078 309.276 213.581C310.089 212.523 311.366 210.681 312.771 210.325C313.963 210.022 315.933 210.763 316.765 211.605C319.628 214.504 319.405 219.715 318.766 223.365C317.713 229.378 314.299 235.716 309.316 239.422C308.914 239.722 308.377 239.942 307.895 240.085C307.834 240.103 307.217 240.16 307.209 240.224C307.167 240.582 308.066 241.478 308.23 241.687C309.174 242.894 310.154 244.074 311.254 245.144C313.109 246.949 315.089 248.468 317.332 249.731" stroke="white" stroke-width="2.96279" stroke-linecap="round"/>
<path d="M318.423 261.515C321.299 261.425 324.18 260.373 326.92 259.593C331.801 258.203 338.351 256.963 338.351 256.963C338.351 256.963 345.935 255.665 347.01 256.963C348.086 258.26 344.371 262.107 344.279 262.243" stroke="white" stroke-width="2.96279" stroke-linecap="round"/>
<defs>
<filter id="filter0_d_196_2315" x="54" y="131" width="531" height="491" filterUnits="userSpaceOnUse" color-interpolation-filters="sRGB">
<feFlood flood-opacity="0" result="BackgroundImageFix"/>
<feColorMatrix in="SourceAlpha" type="matrix" values="0 0 0 0 0 0 0 0 0 0 0 0 0 0 0 0 0 0 127 0" result="hardAlpha"/>
<feOffset dx="-7" dy="7"/>
<feGaussianBlur stdDeviation="8.5"/>
<feComposite in2="hardAlpha" operator="out"/>
<feColorMatrix type="matrix" values="0 0 0 0 0.588235 0 0 0 0 0.0627451 0 0 0 0 1 0 0 0 0.17 0"/>
<feBlend mode="normal" in2="BackgroundImageFix" result="effect1_dropShadow_196_2315"/>
<feBlend mode="normal" in="SourceGraphic" in2="effect1_dropShadow_196_2315" result="shape"/>
</filter>
<filter id="filter1_d_196_2315" x="278.232" y="185" width="100.768" height="100.768" filterUnits="userSpaceOnUse" color-interpolation-filters="sRGB">
<feFlood flood-opacity="0" result="BackgroundImageFix"/>
<feColorMatrix in="SourceAlpha" type="matrix" values="0 0 0 0 0 0 0 0 0 0 0 0 0 0 0 0 0 0 127 0" result="hardAlpha"/>
<feOffset dy="4"/>
<feGaussianBlur stdDeviation="2"/>
<feComposite in2="hardAlpha" operator="out"/>
<feColorMatrix type="matrix" values="0 0 0 0 0 0 0 0 0 0 0 0 0 0 0 0 0 0 0.25 0"/>
<feBlend mode="normal" in2="BackgroundImageFix" result="effect1_dropShadow_196_2315"/>
<feBlend mode="normal" in="SourceGraphic" in2="effect1_dropShadow_196_2315" result="shape"/>
</filter>
<linearGradient id="paint0_linear_196_2315" x1="75.7802" y1="407.649" x2="574.995" y2="411.641" gradientUnits="userSpaceOnUse">
<stop stop-color="#950FFF"/>
<stop offset="0.447917" stop-color="#FF0F7B"/>
<stop offset="1" stop-color="#F89B29"/>
</linearGradient>
<linearGradient id="paint1_linear_196_2315" x1="284.845" y1="238.627" x2="372" y2="239.268" gradientUnits="userSpaceOnUse">
<stop stop-color="#950FFF"/>
<stop offset="0.447917" stop-color="#FF0F7B"/>
<stop offset="1" stop-color="#F89B29"/>
</linearGradient>
<linearGradient id="paint2_linear_196_2315" x1="285.702" y1="227.521" x2="320.755" y2="237.924" gradientUnits="userSpaceOnUse">
<stop stop-color="#FF0F7B"/>
<stop offset="1" stop-color="#F89B29"/>
</linearGradient>
</defs>
</svg>
