<svg width="95" height="162" viewBox="0 0 95 162" fill="none" xmlns="http://www.w3.org/2000/svg">
<path d="M90.749 1.02798C92.0598 0.594099 93.4741 1.30496 93.908 2.61573C94.3419 3.9265 93.631 5.34081 92.3203 5.77469L90.749 1.02798ZM28.7691 159.696C28.5666 161.062 27.2953 162.005 25.9295 161.803L3.67277 158.503C2.30698 158.301 1.36392 157.029 1.56639 155.664C1.76886 154.298 3.04018 153.355 4.40596 153.557L24.1898 156.49L27.1225 136.706C27.325 135.34 28.5963 134.397 29.9621 134.6C31.3279 134.802 32.271 136.074 32.0685 137.439L28.7691 159.696ZM92.3203 5.77469C68.375 13.7008 36.6365 30.8749 18.81 56.4492C9.9363 69.1796 4.5363 83.9465 5.17842 100.724C5.82111 117.516 12.5265 136.571 28.304 157.84L24.2883 160.819C8.06441 138.948 0.872126 118.944 0.182082 100.915C-0.508522 82.8711 5.32365 67.0533 14.7082 53.59C33.3982 26.7769 66.2803 9.12742 90.749 1.02798L92.3203 5.77469Z" fill="#FF107B"/>
</svg>
