<svg width="18" height="20" viewBox="0 0 18 20" fill="none" xmlns="http://www.w3.org/2000/svg">
<path d="M12.5127 4.59854C12.5127 6.59702 10.8926 8.2171 8.89411 8.2171C6.89564 8.2171 5.27555 6.59702 5.27555 4.59854C5.27555 2.60007 6.89564 0.97998 8.89411 0.97998C10.8926 0.97998 12.5127 2.60007 12.5127 4.59854Z" fill="white"/>
<path d="M16.9034 19.6536C17.2346 18.7441 17.4152 17.7623 17.4152 16.7382C17.4152 12.0321 13.6002 8.2171 8.89411 8.2171C4.18802 8.2171 0.372986 12.0321 0.372986 16.7382C0.372986 17.7623 0.553625 18.7441 0.884776 19.6536C3.29918 18.4597 6.01829 17.7888 8.89411 17.7888C11.7699 17.7888 14.489 18.4597 16.9034 19.6536Z" fill="white"/>
</svg>
