<svg width="51" height="51" viewBox="0 0 51 51" fill="none" xmlns="http://www.w3.org/2000/svg">
<path d="M15.311 22.9639C14.8103 22.9639 14.3209 23.1126 13.9046 23.3911C13.4883 23.6696 13.1638 24.0655 12.9722 24.5287C12.7806 24.9919 12.7305 25.5016 12.8282 25.9934C12.9258 26.4851 13.1669 26.9368 13.521 27.2913C13.875 27.6458 14.3261 27.8872 14.8171 27.985C15.3082 28.0829 15.8172 28.0327 16.2798 27.8408C16.7423 27.6489 17.1377 27.324 17.4158 26.9072C17.694 26.4903 17.8425 26.0002 17.8425 25.4988C17.8425 24.8265 17.5758 24.1817 17.101 23.7064C16.6263 23.231 15.9824 22.9639 15.311 22.9639V22.9639ZM25.4369 22.9639C24.9362 22.9639 24.4468 23.1126 24.0305 23.3911C23.6142 23.6696 23.2897 24.0655 23.0981 24.5287C22.9065 24.9919 22.8564 25.5016 22.9541 25.9934C23.0517 26.4851 23.2928 26.9368 23.6469 27.2913C24.0009 27.6458 24.452 27.8872 24.943 27.985C25.4341 28.0829 25.9431 28.0327 26.4056 27.8408C26.8682 27.6489 27.2636 27.324 27.5417 26.9072C27.8199 26.4903 27.9684 26.0002 27.9684 25.4988C27.9684 24.8265 27.7017 24.1817 27.2269 23.7064C26.7522 23.231 26.1083 22.9639 25.4369 22.9639ZM35.5628 22.9639C35.0621 22.9639 34.5727 23.1126 34.1564 23.3911C33.7401 23.6696 33.4156 24.0655 33.224 24.5287C33.0324 24.9919 32.9823 25.5016 33.08 25.9934C33.1776 26.4851 33.4187 26.9368 33.7728 27.2913C34.1268 27.6458 34.5779 27.8872 35.0689 27.985C35.56 28.0829 36.069 28.0327 36.5315 27.8408C36.9941 27.6489 37.3895 27.324 37.6676 26.9072C37.9458 26.4903 38.0943 26.0002 38.0943 25.4988C38.0943 24.8265 37.8276 24.1817 37.3528 23.7064C36.8781 23.231 36.2342 22.9639 35.5628 22.9639ZM25.4369 0.149536C22.1125 0.149536 18.8207 0.805215 15.7494 2.07914C12.678 3.35306 9.88737 5.22027 7.53668 7.57417C2.78924 12.3281 0.122165 18.7758 0.122165 25.4988C0.100034 31.3523 2.12403 37.029 5.84329 41.5449L0.780348 46.6148C0.429087 46.9712 0.191138 47.4239 0.096526 47.9157C0.00191442 48.4074 0.0548796 48.9162 0.248738 49.3778C0.458997 49.834 0.79985 50.2172 1.22803 50.479C1.65621 50.7408 2.15241 50.8692 2.65364 50.8481H25.4369C32.1508 50.8481 38.5897 48.1774 43.3371 43.4235C48.0845 38.6696 50.7516 32.2219 50.7516 25.4988C50.7516 18.7758 48.0845 12.3281 43.3371 7.57417C38.5897 2.82026 32.1508 0.149536 25.4369 0.149536V0.149536ZM25.4369 45.7783H8.75449L11.1088 43.4208C11.348 43.186 11.5382 42.906 11.6686 42.5971C11.799 42.2881 11.8668 41.9564 11.8682 41.621C11.8587 40.9523 11.5857 40.3145 11.1088 39.8465C7.79401 36.5309 5.72982 32.167 5.26787 27.4984C4.80592 22.8297 5.97478 18.145 8.57533 14.2425C11.1759 10.34 15.0472 7.46118 19.5297 6.09641C24.0123 4.73164 28.8287 4.96541 33.1584 6.75788C37.4882 8.55035 41.0633 11.7906 43.2748 15.9267C45.4862 20.0627 46.1972 24.8386 45.2865 29.4407C44.3758 34.0427 41.8998 38.1863 38.2804 41.1653C34.661 44.1443 30.1221 45.7746 25.4369 45.7783V45.7783Z" fill="white"/>
</svg>
