<svg width="79" height="141" viewBox="0 0 79 141" fill="none" xmlns="http://www.w3.org/2000/svg">
<path d="M48.0809 134.898C47.9044 136.268 48.8714 137.521 50.2408 137.697L72.5563 140.573C73.9257 140.75 75.1788 139.782 75.3553 138.413C75.5318 137.044 74.5647 135.791 73.1954 135.614L53.3594 133.058L55.9157 113.222C56.0921 111.852 55.1251 110.599 53.7557 110.423C52.3863 110.246 51.1331 111.213 50.9567 112.583L48.0809 134.898ZM3.24878 0.153762C1.87492 0.0163778 0.649814 1.01874 0.51243 2.3926C0.375046 3.76646 1.37741 4.99156 2.75127 5.12895L3.24878 0.153762ZM52.0877 137.197C61.1787 130.182 68.6846 118.711 73.3744 105.461C78.0735 92.1846 80.0198 76.9189 77.7921 62.1529C75.5611 47.3653 69.1327 33.0365 57.0557 21.7968C44.9771 10.5557 27.4289 2.57174 3.24878 0.153762L2.75127 5.12895C26.0711 7.46091 42.5229 15.102 53.6493 25.4569C64.7774 35.8134 70.759 49.0519 72.848 62.8988C74.9403 76.7674 73.1167 91.2035 68.6609 103.793C64.1957 116.408 57.1618 126.966 49.033 133.239L52.0877 137.197Z" fill="#F99B2A"/>
</svg>
