<svg width="70" height="149" viewBox="0 0 70 149" fill="none" xmlns="http://www.w3.org/2000/svg">
<path d="M30.4219 139.969C30.0681 141.304 30.8632 142.673 32.1978 143.026L53.9465 148.792C55.2812 149.146 56.6499 148.351 57.0037 147.016C57.3575 145.681 56.5624 144.313 55.2278 143.959L35.8956 138.834L41.0205 119.502C41.3743 118.167 40.5792 116.798 39.2446 116.445C37.91 116.091 36.5413 116.886 36.1875 118.22L30.4219 139.969ZM3.57151 0.5237C2.22736 0.208065 0.88184 1.04184 0.566205 2.38599C0.250571 3.73014 1.08435 5.07566 2.4285 5.3913L3.57151 0.5237ZM34.0942 142.772C44.0236 137.004 52.9633 126.611 59.3433 114.087C65.736 101.538 69.6594 86.6577 69.3792 71.7272C69.0986 56.7749 64.5967 41.7292 54.091 29.0086C43.584 16.2863 27.2288 6.07892 3.57151 0.5237L2.4285 5.3913C25.2441 10.7489 40.557 20.4731 50.2358 32.1925C59.9159 43.9136 64.1174 57.8199 64.3801 71.821C64.6433 85.8441 60.9499 99.9184 54.8881 111.818C48.8136 123.742 40.461 133.291 31.5827 138.448L34.0942 142.772Z" fill="#F99B2A"/>
</svg>
