<svg width="133" height="57" viewBox="0 0 133 57" fill="none" xmlns="http://www.w3.org/2000/svg">
<path d="M121.302 9.78767C122.358 9.26612 123.637 9.69917 124.158 10.7549L132.657 27.9593C133.179 29.0151 132.746 30.2937 131.69 30.8153C130.634 31.3368 129.356 30.9038 128.834 29.848L121.279 14.5552L105.986 22.1101C104.931 22.6317 103.652 22.1986 103.131 21.1429C102.609 20.0871 103.042 18.8085 104.098 18.2869L121.302 9.78767ZM0.140296 3.07568C-0.266538 1.97064 0.29948 0.745023 1.40452 0.338197C2.50956 -0.0686328 3.73517 0.497381 4.14199 1.60242L0.140296 3.07568ZM124.266 12.3832C117.429 32.5693 94.5598 52.0744 69.35 55.6605C56.6547 57.4664 43.31 55.2451 31.1196 47.0132C18.949 38.7947 8.1033 24.705 0.140296 3.07568L4.14199 1.60242C11.8842 22.6321 22.2634 35.8874 33.506 43.4792C44.7288 51.0577 56.9858 53.1121 68.7495 51.4387C92.4577 48.0662 113.935 29.5923 120.227 11.0153L124.266 12.3832Z" fill="#F89B29"/>
</svg>
