<svg width="62" height="158" viewBox="0 0 62 158" fill="none" xmlns="http://www.w3.org/2000/svg">
<path d="M60.9503 141.873C61.6924 143.038 61.3501 144.583 60.1857 145.325L41.2114 157.417C40.0471 158.16 38.5016 157.817 37.7596 156.653C37.0175 155.488 37.3599 153.943 38.5242 153.201L55.3902 142.452L44.6414 125.586C43.8993 124.422 44.2417 122.876 45.406 122.134C46.5704 121.392 48.1158 121.735 48.8579 122.899L60.9503 141.873ZM44.2267 0.854337C45.4117 0.145748 46.9467 0.531997 47.6553 1.71702C48.3639 2.90204 47.9777 4.43711 46.7926 5.14568L44.2267 0.854337ZM58.3014 145.658C47.09 143.174 35.4186 135.984 25.5395 125.986C15.6408 115.968 7.38746 102.98 3.12446 88.6678C-1.14478 74.3352 -1.41993 58.6328 4.731 43.3243C10.8827 28.0138 23.37 13.3254 44.2267 0.854337L46.7926 5.14568C26.678 17.1731 15.0373 31.0849 9.3705 45.1885C3.7029 59.2941 3.91874 73.8196 7.9164 87.2404C11.9203 100.682 19.7098 112.973 29.0961 122.472C38.5021 131.991 49.3581 138.555 59.3828 140.776L58.3014 145.658Z" fill="#F89B29"/>
</svg>
